<svg width="647" height="456" viewBox="0 0 647 456" fill="none" xmlns="http://www.w3.org/2000/svg">
<path opacity="0.1" d="M560.674 456C581.21 456 597.858 451.578 597.858 446.123C597.858 440.668 581.21 436.247 560.674 436.247C540.137 436.247 523.489 440.668 523.489 446.123C523.489 451.578 540.137 456 560.674 456Z" fill="#2B91D9"/>
<path opacity="0.2" d="M621.999 403.959C607.852 415.702 587.72 420.562 568.25 423.632L564.973 424.132C544.638 427.166 524.076 428.782 503.444 429.765C492.405 430.299 481.366 430.677 470.327 431.014L461.676 431.27C450.443 431.603 439.189 431.931 427.913 432.253C416.874 432.567 405.835 432.861 394.796 433.136C380.658 433.481 366.52 433.768 352.382 433.997C341.343 434.171 330.304 434.291 319.264 434.357C305.123 434.438 290.985 434.411 276.851 434.276C265.804 434.163 254.765 433.97 243.733 433.694C229.588 433.33 215.45 432.797 201.32 432.096C191.729 431.627 182.144 431.063 172.565 430.404L168.202 430.096C127.084 427.131 85.2282 421.812 49.2463 405L48.2761 404.541C47.7938 404.314 47.3116 404.087 46.8293 403.849C40.2228 400.689 33.8945 396.976 27.9117 392.751C17.2734 385.159 8.48856 375.893 3.8463 364.9C-3.42794 347.658 0.418343 328.276 8.72677 311.418C17.0352 294.559 29.5095 279.34 40.2988 263.464C43.4595 258.813 46.4575 253.988 49.2463 249.041C66.6766 218.016 75.322 182.113 57.0493 152.215C54.6374 148.403 52.033 144.717 49.2463 141.17C44.79 135.357 40.2581 129.543 37.1962 123.108C30.0556 108.133 31.5895 91.2918 34.1924 75.2937C37.6784 54.0229 44.0695 31.1127 64.0446 17.8235C84.7692 4.02278 114.186 4.72038 139.907 9.68492C179.898 17.3526 216.809 33.4031 254.069 47.8782C291.33 62.3533 330.362 75.5901 371.329 77.0144C380.129 77.3157 388.94 76.9952 397.695 76.0552C409.367 74.8551 420.88 72.4293 432.044 68.8177C448.167 63.5043 462.838 55.5111 473.714 44.4019C497.042 20.6546 540.879 18.8583 572.486 33.1997C602.646 46.8841 622.15 75.8459 620.709 104.773C619.071 136.973 594.971 163.446 572.886 190.6C570.208 193.891 567.564 197.192 564.991 200.518C563.554 202.374 562.144 204.234 560.761 206.098C558.338 209.389 555.997 212.696 553.789 216.045C542.506 233.212 534.528 253.831 542.296 272.364C546.654 282.741 554.968 290.658 564.991 297.57C587.447 313.051 618.443 323.469 632.388 345.141C644.403 363.819 639.952 389.031 621.999 403.959Z" fill="#2B91D9"/>
<g opacity="0.1">
<path opacity="0.1" d="M322.751 319.353C322.774 319.899 322.814 320.434 322.873 320.957C327.393 319.155 331.83 317.218 336.183 315.144C338.507 314.836 340.667 313.779 342.336 312.133C343.609 311.493 344.875 310.825 346.13 310.156C345.846 309.555 345.524 308.972 345.166 308.412C342.72 304.546 339.001 302.128 334.905 302.262C330.809 302.396 327.265 305.052 325.075 309.058C323.394 312.22 322.591 315.775 322.751 319.353Z" fill="#3F3D56"/>
<path opacity="0.1" d="M322.082 299.024C322.17 302.586 323.203 306.061 325.075 309.092C327.526 312.947 331.245 315.365 335.341 315.231C335.626 315.231 335.922 315.191 336.183 315.167C338.507 314.859 340.667 313.802 342.336 312.156C343.469 311.077 344.424 309.825 345.166 308.447C346.805 305.282 347.605 301.75 347.489 298.187C347.373 294.625 346.345 291.152 344.503 288.101C342.052 284.235 338.333 281.816 334.237 281.95C330.141 282.084 326.603 284.74 324.412 288.746C322.733 291.902 321.928 295.451 322.082 299.024Z" fill="#3F3D56"/>
<path opacity="0.1" d="M334.671 294.904C341.685 294.673 347.126 287.039 346.825 277.852C346.523 268.665 340.593 261.404 333.579 261.635C326.565 261.865 321.124 269.499 321.425 278.686C321.727 287.873 327.657 295.134 334.671 294.904Z" fill="#3F3D56"/>
<path opacity="0.1" d="M334.005 274.578C341.018 274.348 346.46 266.714 346.159 257.527C345.857 248.34 339.927 241.079 332.913 241.309C325.899 241.54 320.458 249.174 320.759 258.361C321.06 267.548 326.991 274.809 334.005 274.578Z" fill="#3F3D56"/>
<path opacity="0.1" d="M333.338 254.247C340.352 254.017 345.794 246.382 345.492 237.195C345.191 228.009 339.261 220.748 332.247 220.978C325.233 221.208 319.791 228.843 320.093 238.03C320.394 247.217 326.324 254.477 333.338 254.247Z" fill="#3F3D56"/>
<path opacity="0.5" d="M375.791 96.9482C377.453 94.6818 378.956 92.3023 380.288 89.8269L346.74 85.4437L382.833 84.5252C386.047 76.8773 387.668 68.6534 387.597 60.3569C387.525 52.0604 385.761 43.8659 382.414 36.2749L334.824 62.9869L378.4 28.6886C373.963 21.6269 368.124 15.5525 361.245 10.8419C354.365 6.1313 346.592 2.88501 338.407 1.30432C330.222 -0.276366 321.799 -0.157744 313.662 1.65283C305.524 3.46341 297.845 6.92733 291.101 11.8298C284.357 16.7323 278.691 22.9687 274.455 30.1525C270.219 37.3363 267.503 45.3141 266.476 53.5914C265.449 61.8687 266.132 70.2688 268.483 78.271C270.835 86.2731 274.804 93.7066 280.145 100.111C277.556 103.639 275.353 107.436 273.574 111.435L317.62 132.525L270.93 118.539C268.003 128.236 267.538 138.51 269.578 148.432C271.618 158.354 276.099 167.61 282.614 175.364C275.855 184.574 271.822 195.501 270.977 206.897C270.132 218.292 272.509 229.695 277.836 239.803C283.163 249.91 291.225 258.314 301.1 264.053C310.975 269.792 322.265 272.635 333.679 272.257C345.094 271.879 356.171 268.295 365.645 261.914C375.119 255.534 382.608 246.615 387.255 236.177C391.902 225.739 393.519 214.203 391.922 202.889C390.325 191.574 385.579 180.938 378.225 172.195C386.308 161.195 390.461 147.796 390.02 134.15C389.578 120.504 384.567 107.403 375.791 96.9482Z" fill="#144364"/>
<path opacity="0.5" d="M268.362 138.141C268.787 151.795 273.809 164.906 282.614 175.346C275.853 184.555 271.818 195.482 270.971 206.877C270.124 218.272 272.499 229.676 277.824 239.784C283.149 249.893 291.209 258.298 301.083 264.039C310.958 269.78 322.247 272.625 333.662 272.249C345.076 271.873 356.154 268.291 365.629 261.912C375.105 255.534 382.595 246.616 387.244 236.179C391.892 225.741 393.512 214.206 391.917 202.891C390.322 191.577 385.577 180.939 378.225 172.195C386.04 161.58 268.141 131.311 268.362 138.141Z" fill="#144364"/>
</g>
<g opacity="0.1">
<path opacity="0.1" d="M189.514 426.439C189.514 426.823 189.473 427.207 189.426 427.602C186.211 426.323 183.053 424.953 179.95 423.492C178.297 423.276 176.759 422.527 175.569 421.359C174.663 420.897 173.762 420.429 172.868 419.952C173.07 419.527 173.299 419.115 173.553 418.719C175.296 415.964 177.934 414.243 180.851 414.336C183.767 414.429 186.289 416.313 187.823 419.161C189.024 421.394 189.607 423.906 189.514 426.439Z" fill="#3F3D56"/>
<path opacity="0.1" d="M189.967 411.97C189.91 414.505 189.18 416.979 187.852 419.138C186.109 421.882 183.465 423.608 180.554 423.515L179.973 423.469C178.32 423.253 176.782 422.504 175.593 421.335C174.784 420.569 174.104 419.678 173.576 418.696C172.411 416.446 171.841 413.935 171.92 411.403C172 408.87 172.726 406.399 174.03 404.227C175.773 401.471 178.416 399.751 181.327 399.844C184.238 399.937 186.765 401.82 188.328 404.669C189.515 406.913 190.081 409.434 189.967 411.97Z" fill="#3F3D56"/>
<path opacity="0.1" d="M190.436 397.528C190.643 390.991 186.764 385.564 181.774 385.406C176.783 385.248 172.571 390.42 172.364 396.956C172.158 403.493 176.036 408.92 181.026 409.078C186.017 409.235 190.23 404.064 190.436 397.528Z" fill="#3F3D56"/>
<path opacity="0.1" d="M190.888 383.061C191.094 376.524 187.216 371.097 182.225 370.939C177.235 370.782 173.022 375.953 172.816 382.489C172.609 389.026 176.487 394.453 181.478 394.611C186.468 394.769 190.681 389.598 190.888 383.061Z" fill="#3F3D56"/>
<path opacity="0.1" d="M191.345 368.588C191.551 362.052 187.673 356.625 182.683 356.467C177.692 356.309 173.479 361.48 173.273 368.017C173.067 374.554 176.945 379.98 181.935 380.138C186.926 380.296 191.139 375.125 191.345 368.588Z" fill="#3F3D56"/>
<path opacity="0.5" d="M151.591 268.213C150.406 266.601 149.333 264.909 148.378 263.15L172.246 259.976L146.56 259.395C144.264 253.954 143.102 248.101 143.146 242.196C143.19 236.29 144.439 230.456 146.815 225.05L180.705 244.018L149.668 219.632C152.809 214.583 156.955 210.236 161.848 206.859C166.741 203.483 172.276 201.151 178.108 200.008C183.941 198.864 189.946 198.934 195.751 200.214C201.555 201.493 207.034 203.954 211.847 207.443C216.66 210.933 220.703 215.376 223.725 220.496C226.748 225.617 228.685 231.305 229.415 237.207C230.145 243.108 229.654 249.097 227.971 254.801C226.288 260.504 223.45 265.8 219.633 270.358C221.481 272.867 223.053 275.569 224.322 278.416L192.994 293.46L226.21 283.462C228.301 290.362 228.64 297.674 227.198 304.738C225.755 311.802 222.576 318.396 217.948 323.922C222.768 330.469 225.65 338.242 226.264 346.35C226.877 354.459 225.198 362.577 221.418 369.776C217.638 376.974 211.91 382.964 204.888 387.059C197.866 391.154 189.835 393.189 181.711 392.932C173.588 392.676 165.701 390.137 158.951 385.607C152.202 381.076 146.863 374.737 143.545 367.314C140.226 359.891 139.063 351.683 140.187 343.63C141.31 335.576 144.677 328.001 149.9 321.771C144.14 313.948 141.176 304.414 141.482 294.702C141.789 284.99 145.349 275.663 151.591 268.219V268.213Z" fill="#144364"/>
<path opacity="0.1" d="M228.052 297.431C227.761 307.148 224.201 316.482 217.948 323.922C222.768 330.469 225.65 338.242 226.264 346.35C226.877 354.459 225.198 362.577 221.418 369.776C217.638 376.974 211.91 382.964 204.888 387.059C197.866 391.154 189.835 393.189 181.711 392.932C173.588 392.676 165.701 390.137 158.951 385.607C152.202 381.076 146.863 374.737 143.545 367.314C140.226 359.891 139.063 351.683 140.187 343.63C141.31 335.576 144.677 328.001 149.9 321.771C144.328 314.214 228.215 292.565 228.052 297.431Z" fill="black"/>
</g>
<g opacity="0.1">
<path opacity="0.1" d="M492.086 350.838C492.086 351.227 492.045 351.605 492.004 352C488.785 350.721 485.627 349.351 482.528 347.89C480.873 347.673 479.334 346.925 478.141 345.757C477.241 345.298 476.334 344.827 475.44 344.35C475.644 343.926 475.873 343.515 476.125 343.118C477.868 340.362 480.506 338.641 483.423 338.734C486.339 338.827 488.861 340.711 490.395 343.559C491.596 345.792 492.179 348.304 492.086 350.838Z" fill="#3F3D56"/>
<path opacity="0.1" d="M492.574 336.368C492.515 338.904 491.783 341.377 490.453 343.536C488.71 346.28 486.072 348.007 483.155 347.914L482.574 347.867C480.92 347.65 479.381 346.901 478.188 345.734C477.382 344.965 476.702 344.074 476.172 343.094C475.006 340.844 474.436 338.334 474.516 335.801C474.595 333.268 475.321 330.798 476.625 328.625C478.368 325.875 481.012 324.149 483.922 324.242C486.833 324.335 489.366 326.218 490.924 329.067C492.114 331.31 492.684 333.831 492.574 336.368Z" fill="#3F3D56"/>
<path opacity="0.1" d="M493.028 321.921C493.234 315.385 489.356 309.958 484.365 309.8C479.375 309.642 475.162 314.813 474.956 321.35C474.749 327.887 478.627 333.313 483.618 333.471C488.608 333.629 492.821 328.458 493.028 321.921Z" fill="#3F3D56"/>
<path opacity="0.1" d="M493.485 307.454C493.692 300.918 489.813 295.491 484.823 295.333C479.832 295.175 475.62 300.346 475.413 306.883C475.207 313.42 479.085 318.847 484.075 319.005C489.066 319.162 493.279 313.991 493.485 307.454Z" fill="#3F3D56"/>
<path opacity="0.1" d="M493.942 292.988C494.149 286.451 490.271 281.024 485.28 280.866C480.29 280.709 476.077 285.88 475.87 292.416C475.664 298.953 479.542 304.38 484.533 304.538C489.523 304.696 493.736 299.525 493.942 292.988Z" fill="#3F3D56"/>
<path opacity="0.5" d="M454.163 192.612C452.977 191.001 451.905 189.309 450.956 187.548L474.824 184.403L449.137 183.781C446.843 178.34 445.681 172.488 445.724 166.583C445.767 160.678 447.014 154.843 449.387 149.436L483.277 168.405L452.24 144.03C455.375 138.969 459.52 134.609 464.414 131.221C469.308 127.834 474.848 125.492 480.687 124.342C486.526 123.192 492.539 123.258 498.352 124.536C504.164 125.814 509.651 128.277 514.47 131.77C519.289 135.264 523.337 139.714 526.361 144.843C529.385 149.971 531.32 155.668 532.046 161.578C532.771 167.488 532.272 173.485 530.579 179.193C528.886 184.901 526.035 190.2 522.205 194.757C524.052 197.266 525.622 199.967 526.888 202.814L495.56 217.859L528.776 207.86C530.87 214.759 531.211 222.071 529.768 229.135C528.326 236.198 525.145 242.791 520.514 248.315C525.335 254.861 528.218 262.632 528.832 270.74C529.447 278.848 527.768 286.966 523.989 294.164C520.21 301.363 514.482 307.352 507.461 311.447C500.44 315.542 492.409 317.578 484.286 317.321C476.163 317.064 468.276 314.525 461.528 309.995C454.779 305.465 449.441 299.125 446.123 291.702C442.806 284.279 441.643 276.072 442.768 268.019C443.892 259.966 447.26 252.392 452.484 246.164C446.724 238.34 443.759 228.807 444.066 219.095C444.372 209.383 447.933 200.056 454.175 192.612H454.163Z" fill="#144364"/>
<path opacity="0.1" d="M530.63 221.829C530.339 231.545 526.776 240.878 520.52 248.315C525.34 254.861 528.222 262.632 528.836 270.74C529.449 278.848 527.771 286.965 523.991 294.163C520.212 301.361 514.484 307.349 507.463 311.444C500.442 315.539 492.412 317.574 484.289 317.317C476.167 317.06 468.28 314.522 461.532 309.992C454.783 305.462 449.445 299.123 446.127 291.701C442.81 284.279 441.646 276.072 442.77 268.019C443.894 259.966 447.261 252.392 452.484 246.164C446.906 238.612 530.781 216.958 530.63 221.829Z" fill="black"/>
</g>
<path d="M112.425 442.885C130.719 442.885 145.549 440.033 145.549 436.514C145.549 432.995 130.719 430.143 112.425 430.143C94.1318 430.143 79.3019 432.995 79.3019 436.514C79.3019 440.033 94.1318 442.885 112.425 442.885Z" fill="#2B91D9"/>
<path d="M111.873 438.857C114.004 438.857 115.731 436.595 115.731 433.805C115.731 431.015 114.004 428.753 111.873 428.753C109.743 428.753 108.015 431.015 108.015 433.805C108.015 436.595 109.743 438.857 111.873 438.857Z" fill="#282C37"/>
<path d="M111.873 432.683C114.004 432.683 115.731 430.421 115.731 427.631C115.731 424.841 114.004 422.579 111.873 422.579C109.743 422.579 108.015 424.841 108.015 427.631C108.015 430.421 109.743 432.683 111.873 432.683Z" fill="#282C37"/>
<path d="M111.873 426.509C114.004 426.509 115.731 424.247 115.731 421.457C115.731 418.667 114.004 416.406 111.873 416.406C109.743 416.406 108.015 418.667 108.015 421.457C108.015 424.247 109.743 426.509 111.873 426.509Z" fill="#282C37"/>
<path d="M111.873 420.336C114.004 420.336 115.731 418.074 115.731 415.284C115.731 412.494 114.004 410.232 111.873 410.232C109.743 410.232 108.015 412.494 108.015 415.284C108.015 418.074 109.743 420.336 111.873 420.336Z" fill="#282C37"/>
<path d="M111.873 414.162C114.004 414.162 115.731 411.9 115.731 409.11C115.731 406.32 114.004 404.058 111.873 404.058C109.743 404.058 108.015 406.32 108.015 409.11C108.015 411.9 109.743 414.162 111.873 414.162Z" fill="#282C37"/>
<path d="M111.873 407.988C114.004 407.988 115.731 405.726 115.731 402.936C115.731 400.146 114.004 397.885 111.873 397.885C109.743 397.885 108.015 400.146 108.015 402.936C108.015 405.726 109.743 407.988 111.873 407.988Z" fill="#3F3D56"/>
<path d="M111.873 401.814C114.004 401.814 115.731 399.553 115.731 396.763C115.731 393.973 114.004 391.711 111.873 391.711C109.743 391.711 108.015 393.973 108.015 396.763C108.015 399.553 109.743 401.814 111.873 401.814Z" fill="#3F3D56"/>
<path d="M126.311 354.512C126.837 353.84 127.317 353.133 127.746 352.396L117.614 350.727L128.571 350.814C129.622 348.525 130.196 346.045 130.257 343.526C130.318 341.007 129.865 338.503 128.926 336.165L114.221 343.798L127.781 333.805C126.51 331.61 124.8 329.7 122.759 328.195C120.718 326.689 118.39 325.62 115.918 325.054C113.446 324.488 110.884 324.437 108.392 324.905C105.9 325.372 103.53 326.348 101.431 327.771C99.3322 329.194 97.5483 331.034 96.1908 333.177C94.8332 335.32 93.9311 337.72 93.5404 340.226C93.1498 342.733 93.279 345.294 93.9201 347.748C94.5611 350.203 95.7003 352.499 97.2667 354.494C96.4473 355.54 95.7422 356.67 95.1635 357.866L108.318 364.702L94.292 359.994C93.3067 362.906 93.0627 366.019 93.5821 369.05C94.1015 372.081 95.3679 374.934 97.2667 377.352C95.1241 380.079 93.7916 383.354 93.4215 386.803C93.0513 390.252 93.6585 393.736 95.1736 396.856C96.6888 399.976 99.0507 402.606 101.989 404.447C104.928 406.287 108.325 407.263 111.792 407.263C115.259 407.263 118.656 406.287 121.595 404.447C124.533 402.606 126.895 399.976 128.41 396.856C129.925 393.736 130.533 390.252 130.162 386.803C129.792 383.354 128.46 380.079 126.317 377.352C128.877 374.093 130.268 370.068 130.268 365.923C130.268 361.778 128.877 357.753 126.317 354.494L126.311 354.512Z" fill="#2B91D9"/>
<path d="M126.311 354.512C126.837 353.84 127.317 353.133 127.746 352.396L117.614 350.727L128.571 350.814C129.622 348.525 130.196 346.045 130.257 343.526C130.318 341.007 129.865 338.503 128.926 336.165L114.221 343.798L127.781 333.805C126.51 331.61 124.8 329.7 122.759 328.195C120.718 326.689 118.39 325.62 115.918 325.054C113.446 324.488 110.884 324.437 108.392 324.905C105.9 325.372 103.53 326.348 101.431 327.771C99.3322 329.194 97.5483 331.034 96.1908 333.177C94.8332 335.32 93.9311 337.72 93.5404 340.226C93.1498 342.733 93.279 345.294 93.9201 347.748C94.5611 350.203 95.7003 352.499 97.2667 354.494C96.4473 355.54 95.7422 356.67 95.1635 357.866L108.318 364.702L94.292 359.994C93.3067 362.906 93.0627 366.019 93.5821 369.05C94.1015 372.081 95.3679 374.934 97.2667 377.352C95.1241 380.079 93.7916 383.354 93.4215 386.803C93.0513 390.252 93.6585 393.736 95.1736 396.856C96.6888 399.976 99.0507 402.606 101.989 404.447C104.928 406.287 108.325 407.263 111.792 407.263C115.259 407.263 118.656 406.287 121.595 404.447C124.533 402.606 126.895 399.976 128.41 396.856C129.925 393.736 130.533 390.252 130.162 386.803C129.792 383.354 128.46 380.079 126.317 377.352C128.877 374.093 130.268 370.068 130.268 365.923C130.268 361.778 128.877 357.753 126.317 354.494L126.311 354.512Z" fill="url(#paint0_linear)"/>
<path opacity="0.1" d="M93.3159 365.941C93.309 370.087 94.7011 374.114 97.2667 377.37C95.1241 380.097 93.7916 383.372 93.4214 386.821C93.0513 390.27 93.6585 393.753 95.1736 396.873C96.6887 399.993 99.0507 402.624 101.989 404.464C104.928 406.305 108.325 407.281 111.792 407.281C115.259 407.281 118.656 406.305 121.595 404.464C124.533 402.624 126.895 399.993 128.41 396.873C129.925 393.753 130.533 390.27 130.162 386.821C129.792 383.372 128.46 380.097 126.317 377.37C128.786 374.225 93.3159 363.865 93.3159 365.941Z" fill="black"/>
<path d="M201.32 300.669V432.049C191.729 431.58 182.144 431.016 172.566 430.358L168.202 430.05V300.669C168.202 299.996 168.335 299.329 168.592 298.707C168.85 298.085 169.227 297.519 169.703 297.043C170.179 296.567 170.744 296.19 171.366 295.932C171.987 295.674 172.654 295.542 173.327 295.542H196.195C196.868 295.542 197.534 295.674 198.156 295.932C198.778 296.19 199.343 296.567 199.819 297.043C200.295 297.519 200.672 298.085 200.93 298.707C201.187 299.329 201.32 299.996 201.32 300.669Z" fill="url(#paint1_linear)"/>
<path d="M243.733 433.683V212.888C243.733 211.529 244.273 210.224 245.234 209.263C246.195 208.301 247.499 207.761 248.858 207.761H271.726C272.399 207.761 273.066 207.894 273.687 208.151C274.309 208.409 274.874 208.787 275.35 209.263C275.826 209.739 276.203 210.304 276.461 210.926C276.718 211.548 276.851 212.215 276.851 212.888V434.258L243.733 433.683Z" fill="url(#paint2_linear)"/>
<path d="M319.264 434.375V258.813C319.264 257.453 319.804 256.149 320.765 255.188C321.726 254.226 323.03 253.686 324.389 253.686H347.257C348.617 253.686 349.92 254.226 350.881 255.188C351.842 256.149 352.382 257.453 352.382 258.813V433.997L319.264 434.375Z" fill="url(#paint3_linear)"/>
<path d="M427.913 128.596V432.253C416.874 432.567 405.835 432.861 394.796 433.136V128.596C394.796 127.236 395.335 125.932 396.297 124.97C397.258 124.009 398.561 123.468 399.92 123.468H422.789C424.148 123.468 425.451 124.009 426.412 124.97C427.373 125.932 427.913 127.236 427.913 128.596Z" fill="url(#paint4_linear)"/>
<path d="M503.444 189.635V429.724C492.405 430.259 481.366 430.637 470.327 430.974V189.635C470.327 188.275 470.867 186.971 471.828 186.01C472.789 185.048 474.092 184.508 475.451 184.508H498.32C499.679 184.508 500.982 185.048 501.943 186.01C502.904 186.971 503.444 188.275 503.444 189.635Z" fill="url(#paint5_linear)"/>
<path d="M185.051 224.05L260.583 139.757L336.114 182.194L411.645 51.9766L487.176 114.179" stroke="#2172AB" stroke-width="7" stroke-miterlimit="10" stroke-linecap="round"/>
<path d="M184.761 240.327C193.746 240.327 201.029 233.04 201.029 224.05C201.029 215.06 193.746 207.773 184.761 207.773C175.776 207.773 168.493 215.06 168.493 224.05C168.493 233.04 175.776 240.327 184.761 240.327Z" fill="#8BC3EA"/>
<path d="M260.292 156.034C269.277 156.034 276.56 148.747 276.56 139.757C276.56 130.768 269.277 123.48 260.292 123.48C251.307 123.48 244.024 130.768 244.024 139.757C244.024 148.747 251.307 156.034 260.292 156.034Z" fill="#8BC3EA"/>
<path d="M335.823 198.471C344.808 198.471 352.091 191.184 352.091 182.194C352.091 173.205 344.808 165.917 335.823 165.917C326.839 165.917 319.555 173.205 319.555 182.194C319.555 191.184 326.839 198.471 335.823 198.471Z" fill="#8BC3EA"/>
<path d="M411.354 68.2538C420.339 68.2538 427.623 60.9662 427.623 51.9766C427.623 42.9869 420.339 35.6994 411.354 35.6994C402.37 35.6994 395.086 42.9869 395.086 51.9766C395.086 60.9662 402.37 68.2538 411.354 68.2538Z" fill="#8BC3EA"/>
<path d="M556.607 206.61C565.591 206.61 572.875 199.322 572.875 190.333C572.875 181.343 565.591 174.056 556.607 174.056C547.622 174.056 540.338 181.343 540.338 190.333C540.338 199.322 547.622 206.61 556.607 206.61Z" fill="#8BC3EA"/>
<path opacity="0.1" d="M135.77 421.911C141.764 421.911 146.623 421.088 146.623 420.074C146.623 419.059 141.764 418.237 135.77 418.237C129.776 418.237 124.917 419.059 124.917 420.074C124.917 421.088 129.776 421.911 135.77 421.911Z" fill="#2B91D9"/>
<path d="M493.625 200.314C493.733 201.332 494.137 202.297 494.787 203.087C495.63 204.041 496.891 204.477 498.024 205.046C500.956 206.548 503.195 209.124 504.275 212.237C506.21 217.888 506.46 223.864 508.923 229.317C511.387 234.77 514.28 240.007 516.407 245.594C517.615 248.762 518.58 252.058 520.352 254.942C521.21 256.36 522.304 257.62 523.588 258.668C523.454 260.714 523.402 262.737 523.414 264.784C523.806 264.776 524.194 264.868 524.542 265.051C524.889 265.234 525.185 265.502 525.401 265.83C525.831 266.493 526.127 267.233 526.272 268.01C527.068 271.306 526.086 274.817 526.801 278.131C528.764 287.348 528.161 296.927 525.058 305.825C524.262 308.081 523.263 315.545 524.111 317.783C527.272 317.464 530.072 319.405 533.029 320.69C533.268 322.444 533.126 324.228 532.611 325.922C531.548 328.986 531.554 332.317 531.571 335.555L531.716 359.54C531.716 362.58 531.757 365.662 532.518 368.609C533.384 371.928 535.202 375.312 535.144 378.741C534.987 386.124 538.473 393.158 538.195 400.483C538.142 401.89 537.951 403.285 537.817 404.68C537.474 408.397 537.567 412.141 538.096 415.836C539.153 423.196 541.948 430.433 541.251 437.833C541.204 438.333 541.036 438.996 540.565 439.188C541.146 439.845 541.762 440.496 542.389 441.118C542.262 441.33 542.09 441.511 541.884 441.647C541.197 442.006 540.439 442.204 539.664 442.228C538.756 442.252 537.874 442.539 537.125 443.054C536.581 443.576 536.212 444.255 536.068 444.995C535.861 445.727 535.817 446.496 535.937 447.247C536.058 447.998 536.34 448.713 536.765 449.344C537.284 449.997 537.962 450.506 538.735 450.82C541.419 451.983 544.499 451.14 547.299 450.291L558.268 446.966C558.938 446.827 559.555 446.505 560.052 446.036C560.28 445.767 560.43 445.442 560.488 445.094C562.911 445.676 565.572 444.961 568.041 444.222L579.01 440.891C579.68 440.755 580.299 440.433 580.794 439.961C580.992 439.721 581.134 439.44 581.211 439.139C581.289 438.837 581.299 438.523 581.242 438.217C581.323 438.182 581.404 438.159 581.486 438.118C582.322 437.74 583.229 437.002 583.025 436.113C582.88 435.531 582.299 435.194 582.049 434.659C581.932 434.312 581.907 433.939 581.979 433.579C582.05 433.219 582.215 432.884 582.456 432.607C582.886 432.026 583.467 431.544 583.862 430.933C585.128 428.991 584.269 426.439 583.792 424.166C582.764 419.312 583.717 414.243 583.066 409.325C582.845 407.668 582.444 406.041 582.125 404.395C581.448 400.507 580.999 396.582 580.782 392.641C580.364 387.014 578.801 381.468 579.696 375.887C580.13 372.612 580.315 369.308 580.248 366.005C580.311 363.9 580.22 361.794 579.975 359.703C579.748 358.145 579.347 356.616 579.173 355.052C579.032 353.295 579.001 351.53 579.08 349.768C579.16 345.841 578.798 341.917 577.999 338.072C576.837 332.787 574.653 327.73 573.723 322.434C574.037 322.504 574.351 322.573 574.653 322.655C574.688 318.586 571.126 309.738 569.807 305.878C569.614 305.405 569.497 304.905 569.459 304.395C569.538 303.724 569.661 303.058 569.825 302.401C569.993 300.995 569.244 299.657 569.04 298.251C568.961 297.261 569.034 296.265 569.255 295.298C570.191 290.095 571.353 284.932 572.515 279.776C573.021 277.908 573.196 275.966 573.032 274.038C572.897 273.016 572.983 271.978 573.283 270.992C573.584 270.006 574.093 269.096 574.775 268.324C575.285 267.853 575.72 267.306 576.065 266.702C576.258 266.184 576.345 265.632 576.32 265.08C576.297 262.689 575.945 260.312 575.275 258.017C576.297 256.162 576.675 253.884 576.971 251.733C577.622 246.983 578.273 242.211 578.249 237.415C578.301 234.856 577.948 232.306 577.204 229.857C576.66 228.345 575.995 226.88 575.216 225.474C572.16 219.585 569.238 213.388 565.38 207.994C564.218 206.354 564.95 204.093 565.031 202.07C565.119 199.628 564.154 197.285 563.207 195.042C562.724 193.661 561.982 192.384 561.022 191.28C560.698 190.923 560.304 190.635 559.864 190.435C559.424 190.235 558.949 190.127 558.466 190.118C557.919 190.185 557.393 190.368 556.922 190.656C556.452 190.944 556.049 191.329 555.741 191.786C555.038 192.744 554.532 193.831 554.252 194.986C553.972 196.14 553.923 197.339 554.108 198.512C554.494 200.861 555.517 203.059 557.066 204.866C557.814 205.775 558.67 206.59 559.616 207.29C560.577 210.344 561.545 213.396 562.521 216.446C564.055 221.3 565.589 226.178 567.75 230.77C568.384 232.101 569.081 233.456 569.157 234.927C569.238 236.514 568.576 238.025 568.047 239.519C566.933 242.633 566.302 245.899 566.176 249.204C566.006 249.279 565.843 249.369 565.688 249.471C563.858 250.669 563.283 253.279 561.377 254.349C560.267 254.971 558.919 254.93 557.676 255.215C557.565 255.215 557.455 255.273 557.339 255.308C557.292 255.075 557.246 254.849 557.217 254.61C557.199 254.462 557.199 254.311 557.217 254.163C560.179 252.533 562.668 250.161 564.439 247.28C564.812 246.746 565.1 246.158 565.293 245.536C565.45 244.79 565.479 244.024 565.38 243.269C565.283 240.748 564.923 238.244 564.305 235.799C563.685 233.341 562.329 231.132 560.418 229.468C559.465 228.7 558.367 228.125 557.42 227.352C555.573 225.858 554.306 223.649 552.191 222.538C550.845 221.883 549.31 221.728 547.86 222.103C546.411 222.478 545.143 223.358 544.284 224.585C544.002 225.152 543.607 225.655 543.122 226.061C542.752 226.236 542.391 226.43 542.041 226.643C541.402 227.154 541.367 228.137 541.576 228.933C541.972 230.569 542.194 232.243 542.238 233.927C540.363 236.128 539.33 238.925 539.324 241.818C539.318 244.71 540.338 247.511 542.204 249.721C542.204 250.803 542.203 251.884 542.163 252.965C542.163 253.169 542.163 253.378 542.122 253.581C541.452 253.348 540.852 252.948 540.379 252.419C539.728 251.605 539.612 250.407 538.816 249.739C538.244 249.361 537.591 249.122 536.911 249.041C535.218 248.657 533.632 247.904 532.262 246.838C531.188 246.007 530.072 244.943 528.817 244.699C526.652 240.634 524.124 236.774 521.264 233.165C520.539 232.311 519.878 231.403 519.288 230.45C518.039 228.27 517.668 225.707 516.877 223.317C514.669 216.62 509.162 211.249 507.819 204.32C507.331 201.808 505.739 199.622 504.647 197.309C503.909 195.745 503.096 194.094 501.62 193.199C499.72 192.036 497.094 192.571 495.514 194.135C494.749 194.952 494.181 195.934 493.853 197.005C493.526 198.077 493.448 199.208 493.625 200.314ZM562.609 435.572C561.922 435.931 561.163 436.13 560.389 436.153C559.999 436.194 559.611 436.256 559.227 436.339C559.082 435.119 559 433.88 558.908 432.677C558.6 428.73 557.984 424.812 557.374 420.899C556.735 416.83 556.432 412.377 555.05 408.471C552.824 402.111 550.57 395.559 550.855 388.822C550.919 387.293 551.11 385.776 551.192 384.252C551.378 380.48 550.849 376.625 551.773 372.957C552.185 371.289 552.888 369.696 553.156 367.998C553.326 366.465 553.345 364.919 553.214 363.383C552.96 358.048 553.403 352.703 554.533 347.483C555.613 348.896 555.968 350.721 556.276 352.471L558.454 364.295C559.75 371.312 560.895 378.753 564.328 384.997C563.846 387.246 563.37 389.647 564.166 391.798C564.508 392.728 565.072 393.542 565.421 394.484C566.002 396.048 565.92 397.768 566.095 399.425C566.472 402.913 567.913 406.343 566.856 409.709C565.768 413.18 565.061 416.758 564.747 420.382C564.689 421.39 564.572 422.393 564.398 423.387C564.212 424.283 563.91 425.131 563.742 426.05C563.509 427.339 563.567 428.663 563.91 429.927C564.171 430.628 564.331 431.362 564.386 432.107C564.386 432.851 563.474 433.386 562.742 433.503C562.957 433.782 563.19 434.049 563.428 434.311C563.288 434.804 563.002 435.244 562.609 435.572Z" fill="url(#paint6_linear)"/>
<path d="M539.664 442.281C538.756 442.305 537.874 442.591 537.125 443.106C536.579 443.622 536.209 444.298 536.068 445.036C535.862 445.762 535.817 446.525 535.938 447.27C536.058 448.016 536.341 448.725 536.765 449.35C537.284 450.001 537.963 450.508 538.735 450.82C541.419 451.983 544.498 451.134 547.299 450.291L558.268 446.989C558.937 446.853 559.555 446.533 560.052 446.065C560.354 445.658 560.521 445.167 560.529 444.66C560.538 444.153 560.387 443.657 560.098 443.24C559.509 442.419 558.705 441.778 557.774 441.385C554.364 439.723 550.518 439.345 546.77 439.275C545.376 439.275 543.999 438.938 543.052 440.014C542.552 440.595 542.645 441.217 541.89 441.711C541.199 442.064 540.439 442.258 539.664 442.281Z" fill="#3F3D56"/>
<path d="M560.389 436.247C559.481 436.273 558.6 436.559 557.85 437.072C557.305 437.589 556.935 438.264 556.793 439.002C556.587 439.729 556.543 440.493 556.663 441.239C556.783 441.985 557.066 442.696 557.49 443.321C558.011 443.969 558.689 444.474 559.459 444.786C562.149 445.949 565.223 445.106 568.023 444.263L578.993 440.955C579.662 440.818 580.279 440.498 580.777 440.031C581.078 439.625 581.245 439.134 581.253 438.629C581.261 438.123 581.111 437.627 580.823 437.212C580.233 436.392 579.429 435.75 578.499 435.357C575.083 433.695 571.236 433.311 567.489 433.241C566.095 433.241 564.723 432.91 563.77 433.985C563.271 434.567 563.364 435.183 562.608 435.677C561.922 436.034 561.163 436.229 560.389 436.247Z" fill="#3F3D56"/>
<path d="M550.855 317.132C557.319 316.482 563.822 316.3 570.313 316.586C570.741 316.581 571.167 316.648 571.573 316.783C573.003 317.365 573.224 319.237 573.357 320.766C573.938 326.974 576.646 332.758 578.005 338.839C578.804 342.661 579.166 346.562 579.086 350.466C579.007 352.21 579.038 353.957 579.179 355.698C579.353 357.25 579.76 358.773 579.981 360.319C580.226 362.397 580.317 364.489 580.254 366.58C580.32 369.858 580.136 373.137 579.702 376.387C578.807 381.927 580.37 387.432 580.788 393.036C580.997 396.956 581.437 400.86 582.107 404.727C582.427 406.36 582.828 407.976 583.048 409.622C583.699 414.511 582.746 419.545 583.775 424.37C584.251 426.626 585.111 429.16 583.844 431.09C583.449 431.671 582.868 432.166 582.438 432.753C582.197 433.027 582.032 433.36 581.961 433.718C581.89 434.077 581.914 434.447 582.032 434.793C582.281 435.322 582.862 435.671 583.008 436.235C583.234 437.124 582.305 437.851 581.468 438.229C575.164 441.077 567.036 439.072 562.783 433.613C563.515 433.497 564.41 432.968 564.427 432.224C564.371 431.484 564.211 430.756 563.951 430.061C563.608 428.807 563.551 427.492 563.782 426.213C563.951 425.318 564.253 424.469 564.439 423.568C564.613 422.579 564.729 421.582 564.787 420.58C565.102 416.979 565.809 413.423 566.896 409.976C567.954 406.634 566.513 403.25 566.135 399.762C565.961 398.111 566.036 396.408 565.461 394.85C565.113 393.932 564.549 393.106 564.206 392.188C563.41 390.042 563.887 387.659 564.369 385.427C560.935 379.224 559.791 371.829 558.495 364.859L556.316 353.116C555.991 351.372 555.636 349.565 554.573 348.158C553.444 353.342 553 358.652 553.254 363.952C553.386 365.48 553.367 367.016 553.196 368.539C552.929 370.225 552.226 371.812 551.813 373.463C550.913 377.108 551.442 380.933 551.232 384.683C551.151 386.2 550.959 387.706 550.895 389.223C550.611 395.92 552.865 402.431 555.09 408.75C556.456 412.627 556.758 417.034 557.414 421.091C557.995 424.98 558.64 428.869 558.948 432.793C559.233 436.398 559.361 440.298 561.603 443.129C559.552 444.461 557.438 445.815 555.038 446.274C552.242 446.712 549.38 446.157 546.95 444.705C544.534 443.259 542.374 441.423 540.559 439.269C541.03 439.107 541.198 438.421 541.245 437.927C541.942 430.567 539.147 423.393 538.09 416.069C537.561 412.399 537.468 408.68 537.811 404.988C537.945 403.599 538.136 402.21 538.189 400.815C538.468 393.542 534.964 386.537 535.092 379.259C535.15 375.846 533.349 372.486 532.466 369.19C531.705 366.284 531.681 363.203 531.664 360.18L531.519 336.345C531.519 333.125 531.519 329.823 532.559 326.782C533.837 323.12 532.373 318.917 532.152 315.045C538.189 316.96 544.544 317.669 550.855 317.132Z" fill="#144364"/>
<path d="M530.142 248.652C527.699 243.656 524.717 238.945 521.246 234.601C520.521 233.753 519.861 232.851 519.271 231.904C518.022 229.735 517.65 227.189 516.86 224.817C514.652 218.167 509.144 212.824 507.802 205.947C507.314 203.448 505.722 201.297 504.63 198.971C503.892 197.419 503.078 195.78 501.602 194.902C499.703 193.739 497.076 194.274 495.496 195.832C494.736 196.643 494.172 197.618 493.847 198.681C493.523 199.744 493.447 200.868 493.625 201.965C493.734 202.978 494.138 203.936 494.787 204.721C495.63 205.668 496.891 206.098 498.023 206.668C500.951 208.153 503.191 210.713 504.275 213.813C506.21 219.423 506.46 225.364 508.923 230.782C511.387 236.2 514.28 241.397 516.407 246.937C517.615 250.082 518.58 253.331 520.352 256.238C522.124 259.145 524.889 261.58 528.23 262.016C528.207 259.909 528.527 257.812 529.177 255.808C529.903 253.517 531.193 250.82 530.142 248.652Z" fill="#CBE4F5"/>
<path d="M530.142 248.652C527.699 243.656 524.717 238.945 521.246 234.601C520.521 233.753 519.861 232.851 519.271 231.904C518.022 229.735 517.65 227.189 516.86 224.817C514.652 218.167 509.144 212.824 507.802 205.947C507.314 203.448 505.722 201.297 504.63 198.971C503.892 197.419 503.078 195.78 501.602 194.902C499.703 193.739 497.076 194.274 495.496 195.832C494.736 196.643 494.172 197.618 493.847 198.681C493.523 199.744 493.447 200.868 493.625 201.965C493.734 202.978 494.138 203.936 494.787 204.721C495.63 205.668 496.891 206.098 498.023 206.668C500.951 208.153 503.191 210.713 504.275 213.813C506.21 219.423 506.46 225.364 508.923 230.782C511.387 236.2 514.28 241.397 516.407 246.937C517.615 250.082 518.58 253.331 520.352 256.238C522.124 259.145 524.889 261.58 528.23 262.016C528.207 259.909 528.527 257.812 529.177 255.808C529.903 253.517 531.193 250.82 530.142 248.652Z" fill="url(#paint7_linear)"/>
<path d="M566.112 253C565.963 248.89 566.604 244.789 568 240.92C568.535 239.438 569.162 237.932 569.11 236.357C569.034 234.892 568.337 233.549 567.704 232.223C565.519 227.66 563.985 222.823 562.475 217.998L559.57 208.9C558.623 208.206 557.766 207.395 557.019 206.488C555.471 204.697 554.447 202.512 554.062 200.175C553.877 199.01 553.925 197.819 554.206 196.673C554.486 195.527 554.992 194.449 555.695 193.501C556.004 193.046 556.407 192.662 556.877 192.375C557.347 192.088 557.873 191.905 558.419 191.838C558.902 191.849 559.377 191.958 559.817 192.158C560.256 192.357 560.651 192.644 560.976 193.001C561.934 194.095 562.676 195.362 563.16 196.733C564.107 198.966 565.072 201.291 564.985 203.709C564.903 205.721 564.154 207.965 565.333 209.598C569.191 214.958 572.114 221.114 575.17 226.968C575.949 228.363 576.614 229.819 577.157 231.322C577.903 233.758 578.256 236.298 578.203 238.845C578.203 243.606 577.575 248.349 576.925 253.07C576.512 256.029 575.972 259.249 573.735 261.208C571.411 258.232 569.075 255.325 566.112 253Z" fill="#CBE4F5"/>
<path d="M566.112 253C565.963 248.89 566.604 244.789 568 240.92C568.535 239.438 569.162 237.932 569.11 236.357C569.034 234.892 568.337 233.549 567.704 232.223C565.519 227.66 563.985 222.823 562.475 217.998L559.57 208.9C558.623 208.206 557.766 207.395 557.019 206.488C555.471 204.697 554.447 202.512 554.062 200.175C553.877 199.01 553.925 197.819 554.206 196.673C554.486 195.527 554.992 194.449 555.695 193.501C556.004 193.046 556.407 192.662 556.877 192.375C557.347 192.088 557.873 191.905 558.419 191.838C558.902 191.849 559.377 191.958 559.817 192.158C560.256 192.357 560.651 192.644 560.976 193.001C561.934 194.095 562.676 195.362 563.16 196.733C564.107 198.966 565.072 201.291 564.985 203.709C564.903 205.721 564.154 207.965 565.333 209.598C569.191 214.958 572.114 221.114 575.17 226.968C575.949 228.363 576.614 229.819 577.157 231.322C577.903 233.758 578.256 236.298 578.203 238.845C578.203 243.606 577.575 248.349 576.925 253.07C576.512 256.029 575.972 259.249 573.735 261.208C571.411 258.232 569.075 255.325 566.112 253Z" fill="url(#paint8_linear)"/>
<path d="M551.331 255.267C557.989 255.267 563.387 249.867 563.387 243.205C563.387 236.543 557.989 231.142 551.331 231.142C544.673 231.142 539.275 236.543 539.275 243.205C539.275 249.867 544.673 255.267 551.331 255.267Z" fill="#CBE4F5"/>
<path d="M551.331 255.267C557.989 255.267 563.387 249.867 563.387 243.205C563.387 236.543 557.989 231.142 551.331 231.142C544.673 231.142 539.275 236.543 539.275 243.205C539.275 249.867 544.673 255.267 551.331 255.267Z" fill="url(#paint9_linear)"/>
<path d="M557.17 255.907C557.461 258.087 558.629 260.04 559.767 261.923C560.453 263.086 561.33 264.324 562.672 264.452C559.179 266.286 555.51 267.763 551.72 268.859C550.432 269.292 549.082 269.51 547.723 269.504C546.572 269.418 545.444 269.129 544.394 268.649C542.096 267.648 540.055 266.138 538.426 264.233C536.796 262.327 535.621 260.077 534.987 257.651C536.488 257.691 537.989 257.576 539.467 257.308C540.311 257.243 541.097 256.856 541.663 256.226C542 255.637 542.157 254.962 542.116 254.285C542.174 252.273 542.18 250.256 542.116 248.245C545.079 248.056 548.05 248.423 550.878 249.326C552.04 249.704 553.202 250.157 554.364 250.454C555.096 250.64 557.112 250.454 557.652 250.878C558.541 251.477 556.967 254.424 557.17 255.907Z" fill="#CBE4F5"/>
<path d="M551.871 263.237C552.004 261.648 552.633 260.141 553.669 258.929C554.706 257.718 556.097 256.864 557.647 256.488C558.89 256.209 560.238 256.244 561.348 255.628C563.253 254.564 563.829 251.971 565.659 250.779C567.489 249.588 570.086 250.25 571.678 251.756C573.27 253.262 574.078 255.407 574.728 257.505C575.7 260.343 576.227 263.314 576.291 266.312C576.315 266.861 576.228 267.409 576.036 267.923C575.691 268.523 575.256 269.066 574.746 269.533C574.064 270.299 573.555 271.202 573.254 272.182C572.954 273.163 572.868 274.196 573.003 275.213C573.168 277.127 572.993 279.056 572.486 280.91C571.324 286.037 570.162 291.158 569.226 296.332C569.007 297.284 568.934 298.265 569.011 299.239C569.191 300.64 569.964 301.965 569.795 303.366C569.631 304.019 569.509 304.681 569.429 305.349C569.467 305.854 569.585 306.351 569.778 306.819C571.097 310.65 574.659 319.428 574.624 323.486C568.436 321.899 559.314 321.545 552.923 321.515C551.165 321.497 549.408 321.575 547.659 321.748C543.458 322.201 539.159 323.428 535.086 322.294C531.304 321.242 527.957 318.225 524.047 318.603C523.199 316.382 524.198 308.97 524.994 306.726C528.097 297.891 528.7 288.369 526.737 279.212C526.022 275.922 527.004 272.428 526.208 269.161C526.063 268.388 525.767 267.651 525.337 266.993C525.12 266.666 524.824 266.399 524.477 266.217C524.13 266.035 523.742 265.944 523.35 265.952C523.277 260.697 523.764 255.449 524.802 250.297C525.186 248.466 525.964 246.303 527.841 245.989C529.503 245.704 530.897 247.111 532.233 248.14C533.603 249.201 535.19 249.948 536.881 250.326C537.562 250.407 538.215 250.646 538.787 251.024C539.583 251.686 539.699 252.878 540.35 253.686C541.512 255.134 544.109 255.011 544.934 256.68C545.115 257.177 545.26 257.686 545.37 258.203C545.76 259.194 546.425 260.054 547.287 260.679C548.581 261.897 550.156 262.775 551.871 263.237Z" fill="#2172AB"/>
<path d="M541.535 230.381C541.326 229.584 541.361 228.637 542 228.102C542.32 227.852 542.738 227.759 543.081 227.52C543.564 227.114 543.959 226.614 544.243 226.05C545.11 224.836 546.379 223.968 547.824 223.601C549.269 223.234 550.798 223.391 552.139 224.044C554.236 225.143 555.503 227.34 557.368 228.823C558.315 229.59 559.413 230.16 560.366 230.927C562.274 232.576 563.631 234.772 564.253 237.217C564.87 239.645 565.23 242.131 565.328 244.635C565.427 245.386 565.397 246.149 565.24 246.89C565.047 247.512 564.759 248.101 564.386 248.634C562.469 251.541 559.942 254.18 556.775 255.68C553.609 257.18 549.757 257.424 546.631 255.854C546.316 255.727 546.046 255.511 545.852 255.232C545.675 254.808 545.632 254.339 545.73 253.89C545.9 252.113 545.548 250.325 544.719 248.745C544.138 247.582 543.267 246.582 542.802 245.379C542.37 244.032 542.185 242.618 542.256 241.205C542.203 237.548 542.453 233.903 541.535 230.381Z" fill="#282C37"/>
<defs>
<linearGradient id="paint0_linear" x1="93" y1="325" x2="130" y2="407" gradientUnits="userSpaceOnUse">
<stop offset="0.282528" stop-color="#2B91D9"/>
<stop offset="1" stop-color="#2172AB"/>
</linearGradient>
<linearGradient id="paint1_linear" x1="184.761" y1="295.542" x2="184.761" y2="432.049" gradientUnits="userSpaceOnUse">
<stop stop-color="#CBE4F5"/>
<stop offset="1" stop-color="white" stop-opacity="0"/>
</linearGradient>
<linearGradient id="paint2_linear" x1="260.292" y1="207.761" x2="260.292" y2="434.258" gradientUnits="userSpaceOnUse">
<stop stop-color="#CBE4F5"/>
<stop offset="1" stop-color="white" stop-opacity="0"/>
</linearGradient>
<linearGradient id="paint3_linear" x1="335.823" y1="253.686" x2="335.823" y2="434.375" gradientUnits="userSpaceOnUse">
<stop stop-color="#CBE4F5"/>
<stop offset="1" stop-color="white" stop-opacity="0"/>
</linearGradient>
<linearGradient id="paint4_linear" x1="411.354" y1="123.468" x2="411.354" y2="433.136" gradientUnits="userSpaceOnUse">
<stop stop-color="#CBE4F5"/>
<stop offset="1" stop-color="white" stop-opacity="0"/>
</linearGradient>
<linearGradient id="paint5_linear" x1="486.886" y1="184.508" x2="486.886" y2="430.974" gradientUnits="userSpaceOnUse">
<stop stop-color="#CBE4F5"/>
<stop offset="1" stop-color="white" stop-opacity="0"/>
</linearGradient>
<linearGradient id="paint6_linear" x1="584.507" y1="320.754" x2="493.55" y2="320.754" gradientUnits="userSpaceOnUse">
<stop stop-color="#808080" stop-opacity="0.25"/>
<stop offset="0.54" stop-color="#808080" stop-opacity="0.12"/>
<stop offset="1" stop-color="#808080" stop-opacity="0.1"/>
</linearGradient>
<linearGradient id="paint7_linear" x1="512.035" y1="194.275" x2="512.035" y2="262.016" gradientUnits="userSpaceOnUse">
<stop stop-color="white"/>
<stop offset="1" stop-color="white" stop-opacity="0"/>
</linearGradient>
<linearGradient id="paint8_linear" x1="566.08" y1="191.838" x2="566.08" y2="261.208" gradientUnits="userSpaceOnUse">
<stop stop-color="white"/>
<stop offset="1" stop-color="white" stop-opacity="0"/>
</linearGradient>
<linearGradient id="paint9_linear" x1="538" y1="229.5" x2="542.5" y2="247.5" gradientUnits="userSpaceOnUse">
<stop stop-color="white"/>
<stop offset="1" stop-color="#CBE4F5"/>
</linearGradient>
</defs>
</svg>