<svg width="316" height="254" viewBox="0 0 316 254" fill="none" xmlns="http://www.w3.org/2000/svg">
<g clip-path="url(#clip0)">
<path opacity="0.1" d="M183.598 29.0366C163.34 28.4532 144.046 23.0043 125.635 17.0422C107.223 11.0802 88.9464 4.48595 69.1733 1.32779C56.4563 -0.703335 41.9135 -0.99044 31.6667 4.68753C21.8046 10.1517 18.62 19.5865 16.9071 28.3432C15.6155 34.9283 14.8583 41.8616 18.391 48.0252C20.8336 52.3013 25.1968 55.9023 28.2073 60.0012C38.6801 74.2679 31.2789 91.8577 19.9268 105.785C14.6018 112.319 8.42505 118.552 4.31533 125.507C0.2056 132.462 -1.68744 140.437 1.90017 147.523C5.46336 154.548 13.9546 159.835 23.1541 163.552C41.8372 171.096 63.8544 173.255 85.3221 174.48C132.843 177.186 180.621 176.007 228.271 174.84C245.904 174.407 263.616 173.967 280.965 171.695C290.598 170.433 300.542 168.433 307.528 163.601C316.407 157.468 318.605 147.08 312.658 139.389C302.68 126.488 275.102 123.284 268.113 109.438C264.272 101.818 268.217 93.3269 273.795 86.2592C285.764 71.0975 305.827 57.796 306.884 40.4658C307.608 28.554 297.965 16.6421 283.053 11.01C267.423 5.10598 245.748 5.84817 234.2 15.622C222.351 25.6829 201.484 29.5649 183.598 29.0366Z" fill="#2B91D9"/>
<path opacity="0.1" d="M249.466 244.678C264.025 244.678 275.828 243.473 275.828 241.987C275.828 240.501 264.025 239.296 249.466 239.296C234.906 239.296 223.104 240.501 223.104 241.987C223.104 243.473 234.906 244.678 249.466 244.678Z" fill="#9BAEC8"/>
<path opacity="0.1" d="M132.955 254C181.984 254 221.73 249.991 221.73 245.045C221.73 240.099 181.984 236.089 132.955 236.089C83.9268 236.089 44.1812 240.099 44.1812 245.045C44.1812 249.991 83.9268 254 132.955 254Z" fill="#9BAEC8"/>
<path d="M51.7442 244.073C51.7442 244.073 47.8054 221.749 33.1863 210.687C27.0522 206.044 22.5639 199.731 20.6037 192.541C19.6812 189.134 19.0902 185.646 18.8389 182.126" stroke="#454D5B" stroke-width="2" stroke-miterlimit="10"/>
<path d="M9.67269 175.101C10.894 177.492 19.0554 182.334 19.0554 182.334C19.0554 182.334 20.0813 173.29 18.8509 170.895C17.6204 168.501 14.5763 167.502 12.0359 168.662C9.4956 169.823 8.44222 172.706 9.67269 175.101Z" fill="#6C63FF"/>
<path d="M8.89411 191.836C11.3062 193.213 20.9363 193.091 20.9363 193.091C20.9363 193.091 16.5914 184.972 14.1885 183.595C11.7856 182.217 8.64373 182.944 7.18426 185.22C5.72479 187.495 6.48506 190.458 8.89411 191.836Z" fill="#6C63FF"/>
<path d="M20.8659 214.352C23.6811 214.392 31.928 209.694 31.928 209.694C31.928 209.694 23.8398 204.758 21.0216 204.716C18.2035 204.673 15.886 206.799 15.8311 209.459C15.7761 212.119 18.0477 214.303 20.8659 214.352Z" fill="#6C63FF"/>
<path d="M33.9831 229.449C36.7494 229.941 45.72 226.624 45.72 226.624C45.72 226.624 38.6302 220.461 35.867 219.978C33.1038 219.495 30.4322 221.2 29.9131 223.826C29.394 226.453 31.2138 228.961 33.9831 229.449Z" fill="#6C63FF"/>
<path d="M30.8108 189.139C29.849 191.64 22.2616 197.248 22.2616 197.248C22.2616 197.248 20.2525 188.354 21.2143 185.852C22.1761 183.351 25.1042 182.059 27.7514 182.966C30.3986 183.873 31.7726 186.64 30.8108 189.139Z" fill="#6C63FF"/>
<path d="M45.9155 206.988C44.2057 209.105 35.1924 212.312 35.1924 212.312C35.1924 212.312 36.1084 203.256 37.806 201.142C38.6635 200.117 39.8763 199.453 41.202 199.283C42.5276 199.113 43.8686 199.45 44.9568 200.226C45.4851 200.59 45.9322 201.06 46.2698 201.605C46.6074 202.151 46.8282 202.761 46.9183 203.397C47.0084 204.032 46.9658 204.679 46.7932 205.297C46.6206 205.916 46.3218 206.491 45.9155 206.988Z" fill="#6C63FF"/>
<path d="M58.0733 226.239C56.7665 228.597 48.4585 233.197 48.4585 233.197C48.4585 233.197 47.7288 224.129 49.0356 221.771C50.3424 219.413 53.4231 218.503 55.9207 219.737C58.4183 220.971 59.3771 223.881 58.0733 226.239Z" fill="#6C63FF"/>
<path d="M9.67269 175.101C10.894 177.492 19.0554 182.334 19.0554 182.334C19.0554 182.334 20.0813 173.29 18.8509 170.895C17.6204 168.501 14.5763 167.502 12.0359 168.662C9.4956 169.823 8.44222 172.706 9.67269 175.101Z" fill="#2172AB"/>
<path d="M8.89411 191.836C11.3062 193.213 20.9363 193.091 20.9363 193.091C20.9363 193.091 16.5914 184.972 14.1885 183.595C11.7856 182.217 8.64373 182.944 7.18426 185.22C5.72479 187.495 6.48506 190.458 8.89411 191.836Z" fill="#2172AB"/>
<path d="M20.8659 214.352C23.6811 214.392 31.928 209.694 31.928 209.694C31.928 209.694 23.8398 204.758 21.0216 204.716C18.2035 204.673 15.886 206.799 15.8311 209.459C15.7761 212.119 18.0477 214.303 20.8659 214.352Z" fill="#2172AB"/>
<path d="M33.9831 229.449C36.7494 229.941 45.72 226.624 45.72 226.624C45.72 226.624 38.6302 220.461 35.867 219.978C33.1038 219.495 30.4322 221.2 29.9131 223.826C29.394 226.453 31.2138 228.961 33.9831 229.449Z" fill="#2172AB"/>
<path d="M30.8108 189.139C29.849 191.64 22.2616 197.248 22.2616 197.248C22.2616 197.248 20.2525 188.354 21.2143 185.852C22.1761 183.351 25.1042 182.059 27.7514 182.966C30.3986 183.873 31.7726 186.64 30.8108 189.139Z" fill="#2172AB"/>
<path d="M45.9155 206.988C44.2057 209.105 35.1924 212.312 35.1924 212.312C35.1924 212.312 36.1084 203.256 37.806 201.142C38.6635 200.117 39.8763 199.453 41.202 199.283C42.5276 199.113 43.8686 199.45 44.9568 200.226C45.4851 200.59 45.9322 201.06 46.2698 201.605C46.6074 202.151 46.8282 202.761 46.9183 203.397C47.0084 204.032 46.9658 204.679 46.7932 205.297C46.6206 205.916 46.3218 206.491 45.9155 206.988Z" fill="#2172AB"/>
<path d="M58.0733 226.239C56.7665 228.597 48.4585 233.197 48.4585 233.197C48.4585 233.197 47.7288 224.129 49.0356 221.771C50.3424 219.413 53.4231 218.503 55.9207 219.737C58.4183 220.971 59.3771 223.881 58.0733 226.239Z" fill="#2172AB"/>
<path d="M51.2495 243.487C51.2495 243.487 57.2247 221.569 48.6084 205.858C44.9933 199.267 43.5979 191.777 44.8925 184.453C45.514 180.971 46.4701 177.557 47.7473 174.258" stroke="#454D5B" stroke-width="2" stroke-miterlimit="10"/>
<path d="M42.3798 164.328C42.4775 166.986 47.8543 174.533 47.8543 174.533C47.8543 174.533 52.6724 166.656 52.5747 163.995C52.477 161.335 50.1168 159.255 47.3017 159.347C44.4865 159.438 42.279 161.668 42.3798 164.328Z" fill="#2B91D9"/>
<path d="M34.49 179.331C36.1022 181.512 44.9567 185.085 44.9567 185.085C44.9567 185.085 44.4682 176.002 42.856 173.818C42.0406 172.76 40.856 172.05 39.5391 171.828C38.2223 171.607 36.8704 171.891 35.7541 172.624C35.2116 172.965 34.7453 173.414 34.3846 173.944C34.0238 174.473 33.7763 175.072 33.6576 175.701C33.539 176.331 33.5516 176.979 33.6949 177.603C33.8381 178.228 34.1088 178.816 34.49 179.331Z" fill="#2B91D9"/>
<path d="M35.7723 204.49C38.331 205.604 47.8877 204.468 47.8877 204.468C47.8877 204.468 42.6086 196.857 40.05 195.742C37.4913 194.627 34.4624 195.681 33.2808 198.097C32.0992 200.513 33.2167 203.375 35.7723 204.49Z" fill="#2B91D9"/>
<path d="M41.2833 223.319C43.6069 224.828 53.2278 225.228 53.2278 225.228C53.2278 225.228 49.3867 216.887 47.0662 215.381C45.9479 214.652 44.5955 214.373 43.2802 214.6C41.9649 214.827 40.7837 215.542 39.9734 216.603C39.5928 217.121 39.3236 217.713 39.183 218.34C39.0423 218.967 39.0333 219.617 39.1564 220.248C39.2794 220.88 39.532 221.478 39.8981 222.007C40.2642 222.535 40.7358 222.982 41.2833 223.319Z" fill="#2B91D9"/>
<path d="M55.6829 185.253C53.7288 187.172 44.3857 189.398 44.3857 189.398C44.3857 189.398 46.3673 180.495 48.3184 178.577C49.2839 177.651 50.5625 177.123 51.8996 177.098C53.2366 177.073 54.534 177.553 55.5333 178.442C56.0135 178.866 56.4008 179.384 56.6707 179.964C56.9406 180.545 57.0872 181.175 57.1012 181.815C57.1153 182.455 56.9965 183.091 56.7524 183.683C56.5083 184.275 56.1441 184.81 55.6829 185.253Z" fill="#2B91D9"/>
<path d="M61.8198 207.351C59.3497 208.631 49.7349 208.115 49.7349 208.115C49.7349 208.115 54.4461 200.174 56.9162 198.903C59.3863 197.633 62.4885 198.479 63.8411 200.812C65.1937 203.146 64.3021 206.072 61.8198 207.351Z" fill="#2B91D9"/>
<path d="M64.6867 229.605C62.4792 231.261 52.9102 232.287 52.9102 232.287C52.9102 232.287 56.1344 223.713 58.3419 222.058C59.415 221.261 60.749 220.899 62.0775 221.043C63.4059 221.188 64.631 221.828 65.508 222.837C65.9227 223.325 66.2319 223.893 66.4161 224.507C66.6004 225.12 66.6556 225.765 66.5785 226.401C66.5013 227.037 66.2934 227.65 65.9678 228.201C65.6422 228.753 65.206 229.231 64.6867 229.605Z" fill="#2B91D9"/>
<path d="M302.95 115.502C303.133 115.001 301.759 112.225 301.759 112.087C301.759 111.95 300.34 110.401 300.34 109.537C300.34 108.673 298.459 106.806 298.459 106.806C298.459 106.806 295.94 105.759 295.665 103.483C295.39 101.208 292.645 101.159 292.639 101.159C292.639 101.159 292.639 100.951 292.658 100.637C292.658 99.9281 292.636 98.6636 292.319 97.9733C291.992 97.345 291.432 96.8701 290.758 96.6508C290.758 96.6508 290.484 94.8762 289.934 94.3295C289.627 94.0087 289.407 93.6148 289.294 93.1852C289.181 92.7555 289.18 92.3042 289.29 91.8738C289.565 91.0095 288.923 88.8195 287.592 88.5141C286.261 88.2087 284.753 87.6955 284.753 87.6955C284.753 87.6955 284.603 87.723 284.386 87.7536L284.203 87.6955C283.884 87.7544 283.562 87.7941 283.238 87.8147C282.957 87.8246 282.682 87.7336 282.463 87.5581C282.002 87.0572 278.289 86.1012 277.602 86.1012C276.915 86.1012 274.942 85.1849 274.942 85.1849L272.976 83.6822C272.423 83.2607 271.401 81.5441 271.251 81.3029L271.233 81.2693C271.064 80.8814 270.925 80.4811 270.817 80.072C271.488 79.371 272.061 78.583 272.521 77.7293C272.57 77.6407 272.613 77.5491 272.656 77.4605C272.759 77.4587 272.862 77.4423 272.961 77.4117C273.001 77.4117 273.04 77.3811 273.08 77.3658C273.545 77.121 273.895 76.703 274.054 76.2021C274.088 76.1044 274.118 76.0036 274.142 75.8967C274.142 75.8631 274.142 75.8265 274.164 75.7929C274.185 75.7593 274.194 75.6554 274.207 75.5852C274.219 75.5149 274.222 75.5058 274.228 75.4691C274.234 75.4325 274.249 75.3317 274.258 75.2614C274.268 75.1912 274.258 75.1851 274.258 75.1484C274.258 75.0598 274.28 74.9743 274.292 74.8888C274.323 74.5658 274.371 74.2446 274.436 73.9267C274.71 72.705 275.452 71.6482 275.981 70.5058C276.057 70.344 276.127 70.176 276.191 70.008C276.255 69.84 276.319 69.6415 276.371 69.4552L276.417 69.2841C276.451 69.1497 276.481 69.0123 276.509 68.8748C276.509 68.8138 276.533 68.7527 276.542 68.6916C276.573 68.5022 276.6 68.3128 276.616 68.1204C276.714 67.0296 276.559 65.9308 276.161 64.9103C275.816 64.0551 275.306 63.2854 274.958 62.4302C274.429 61.1352 274.292 59.6813 273.648 58.4352C272.57 56.3644 270.03 55.3289 267.941 56.1078C266.943 56.4774 266.079 57.1982 265.068 57.5219C263.712 57.9526 262.265 57.6288 260.864 57.4334C259.462 57.2379 257.911 57.2226 256.785 58.1389C255.487 59.1927 255.13 61.1749 253.911 62.3325C253.401 62.8181 252.763 63.1297 252.223 63.5787C251.844 63.8829 251.552 64.2823 251.377 64.7362C251.377 64.7698 251.356 64.8004 251.347 64.834C251.337 64.8676 251.325 64.9103 251.316 64.95C251.307 64.9898 251.298 65.0417 251.292 65.0875C251.286 65.1333 251.292 65.1516 251.292 65.1822C251.286 65.2635 251.286 65.3452 251.292 65.4265C251.3 65.5036 251.314 65.5801 251.331 65.6556C251.331 65.677 251.331 65.6983 251.331 65.7197C251.331 65.7411 251.368 65.845 251.389 65.9091C251.388 65.9213 251.388 65.9336 251.389 65.9458C251.414 66.016 251.441 66.0832 251.469 66.1534L251.515 66.2573L251.551 66.3428C251.73 66.6788 251.872 67.0331 251.976 67.3996C252.033 67.6315 252.019 67.8751 251.936 68.099C251.812 68.3525 251.638 68.5788 251.426 68.7649C250.514 69.7138 249.81 70.8425 249.359 72.0788C249.307 72.2193 249.255 72.3598 249.209 72.5064L249.273 72.5217C249.404 72.5617 249.538 72.5913 249.673 72.6103C249.75 72.6103 249.826 72.6286 249.905 72.6347C250.219 72.6512 250.533 72.6266 250.84 72.5614C250.916 72.5461 250.995 72.5278 251.072 72.5064C251.386 72.4195 251.693 72.3061 251.988 72.1674C251.988 72.259 251.988 72.3537 251.988 72.4453C251.988 72.537 251.988 72.5492 251.988 72.6011C251.991 74.6149 252.555 76.5879 253.617 78.2988C254.679 80.0096 256.197 81.3904 258 82.2863C258 82.3841 258.027 82.4849 258.039 82.5918C258.052 82.6987 258.061 82.7567 258.07 82.8392L257.948 82.7201C257.948 82.7201 257.12 82.3108 256.342 83.4928C255.563 84.6748 254.098 85.2246 254.098 85.2246C254.098 85.2246 245.756 86.5441 245.435 87.6375L241.539 87.8635C241.539 87.8635 240.162 88.0468 240.013 90.9178C239.863 93.7889 239.143 94.0607 239.143 94.0607C239.143 94.0607 237.54 96.8829 237.677 98.3368C237.814 99.7906 236.456 100.524 236.456 100.524L236.273 103.117C236.273 103.117 234.746 102.891 234.346 104.665C233.946 106.44 233.201 107.261 233.201 107.261C233.201 107.261 230.679 109.357 230.542 111.131L228.984 112.087C228.984 112.087 225.363 111.269 224.539 109.812L224.285 109.574C224.277 109.562 224.27 109.55 224.264 109.537C224.263 109.543 224.263 109.549 224.264 109.555C223.72 109.042 222.572 107.973 222.737 108.217C222.844 108.446 222.87 108.705 222.811 108.951L222.542 108.645L221.821 107.845C221.821 107.845 215.968 102.347 212.53 101.926C212.484 101.837 212.265 100.973 211.678 101.513C211.191 101.959 210.802 102.5 210.534 103.103C210.267 103.706 210.127 104.358 210.124 105.018C210.121 105.678 210.254 106.332 210.516 106.938C210.778 107.543 211.162 108.088 211.645 108.538L217.125 113.66L217.266 113.764L218.444 115.291C218.246 115.768 218.078 116.229 217.941 116.65C217.941 116.65 217.941 116.678 217.925 116.69C217.898 116.782 217.867 116.867 217.84 116.953L217.812 117.044C217.788 117.13 217.76 117.216 217.736 117.295C217.712 117.374 217.709 117.396 217.693 117.445C217.678 117.493 217.693 117.503 217.669 117.53C217.541 117.988 217.455 118.34 217.412 118.535L217.107 118.44L217.412 118.569C217.412 118.584 217.412 118.602 217.412 118.617L217.394 118.712L217.675 118.834C219.281 119.534 227.296 123.049 227.708 123.584C228.166 124.173 231.189 125.905 233.94 124.448C236.691 122.991 237.298 120.759 237.298 120.759C237.298 120.759 239.955 117.072 240.046 116.525C240.138 115.979 242.202 115.34 242.202 115.34C242.202 115.34 242.385 121.449 241.332 123.672C240.278 125.896 238.306 135.786 238.306 135.786C238.435 135.76 238.566 135.752 238.697 135.761C238.624 136.119 238.581 136.332 238.581 136.332C238.741 136.303 238.906 136.303 239.066 136.332C238.92 137.456 238.077 142.673 238.077 142.673C238.077 142.673 237.802 145.04 237.344 145.859C236.886 146.677 236.84 150.96 236.84 150.96L236.108 154.054C236.191 154.236 236.284 154.415 236.386 154.588C236.386 154.588 237.173 156.335 238.495 157.316C238.435 157.802 238.311 158.279 238.126 158.733C237.839 159.423 237.714 160.17 237.759 160.917C237.759 160.917 236.981 164.423 237.072 165.425C237.164 166.427 236.569 168.885 236.569 168.885L235.717 176.784C235.717 176.784 235.167 183.659 235.442 185.528C235.717 187.398 235.256 189.942 235.256 189.942C235.256 189.942 235.805 195.36 235.668 195.953C235.531 196.545 234.844 199.093 235.256 200.507C235.668 201.921 235.442 205.788 235.442 205.788C235.442 205.788 235.717 210.885 236.034 212.525C236.352 214.166 235.943 216.261 235.943 216.261C235.943 216.261 235.637 219.764 235.485 219.764C235.332 219.764 234.157 222.177 236.584 224.547C239.011 226.917 237.5 226.548 237.5 226.548C237.5 226.548 235.576 225.592 235.802 227.55C236.022 229.413 236.324 228.927 236.352 228.875L235.894 230.372L236.199 230.418L235.934 230.723C235.659 231.071 235.352 231.392 235.018 231.682C234.465 232.091 234.407 233.002 234.407 233.002C234.407 233.002 231.018 236.691 227.855 238.557C226.191 239.541 224.756 240.372 224.13 241.059C223.565 241.67 223.656 242.177 224.829 242.565C227.305 243.383 231.656 243.786 234.773 242.748C236.632 242.127 238.303 241.046 239.631 239.605C239.631 239.605 241.604 238.603 243.53 238.967C245.457 239.33 249.304 236.829 249.304 236.829L249.234 236.181L249.029 234.321C248.9 234.164 248.804 233.982 248.749 233.787C248.694 233.591 248.68 233.386 248.709 233.185C248.731 232.634 248.677 232.083 248.547 231.548C248.516 231.368 248.48 231.187 248.446 231.019L248.797 230.955C248.797 230.955 248.342 228.631 249.167 228.176C249.991 227.721 249.759 221.762 249.759 221.762C249.759 221.762 248.709 220.396 248.156 220.17C247.603 219.944 248.11 217.116 248.205 216.753C248.299 216.389 249.029 209.331 249.029 209.331C249.029 209.331 248.754 207.101 249.121 206.145C249.487 205.189 248.681 201.524 248.681 201.524C248.681 201.524 248.406 201.069 248.913 200.522C249.42 199.975 249.218 195.104 249.218 195.104C249.218 195.104 249.176 192.645 249.176 192.007C249.176 191.368 249.725 189.047 250.229 188.274C250.733 187.501 250.412 185.085 250.412 185.085L250.44 184.905C250.44 184.835 250.464 184.75 250.483 184.646L250.522 184.404C250.746 183.063 251.049 181.736 251.429 180.431C252.04 178.519 252.711 175.15 252.711 175.15L256.986 164.032L257.035 163.901C257.035 163.901 259.004 167.545 259.004 170.926C259.004 170.926 259.508 174.979 259.371 176.072C259.233 177.166 259.777 182.282 259.777 182.282C259.777 182.282 260.372 189.658 260.372 189.979C260.372 190.299 261.105 195.989 261.566 196.854C262.027 197.718 261.105 200.36 260.83 200.632C260.555 200.904 260.922 207.599 260.922 207.599C260.922 207.599 260.235 212.88 260.097 213.973C259.96 215.067 259.41 219.257 259.868 220.894C260.326 222.531 260.143 222.76 260.143 222.76C260.143 222.76 261.795 224.446 260.83 224.593C260.479 224.67 260.149 224.82 259.861 225.035C259.573 225.249 259.335 225.523 259.161 225.837C258.988 226.152 258.883 226.5 258.855 226.858C258.827 227.216 258.876 227.575 258.998 227.913C259.569 229.582 260.243 231.215 261.016 232.8C261.016 232.8 261.3 232.736 261.774 232.641V233.182L261.829 235.894C261.829 235.894 262.134 238.49 261.966 239.083C261.832 239.516 261.661 241.557 261.56 242.623C261.526 243.011 261.508 243.27 261.508 243.27C261.508 243.27 261.508 245.683 266.595 244.956C271.682 244.229 272.598 242.226 272.598 242.226C272.598 242.226 272.598 242.131 272.634 241.975C272.71 241.514 272.875 240.537 273.01 239.993C273.193 239.263 271.544 235.986 271.544 235.986C271.544 235.986 271.269 233.756 270.808 233.255C270.619 232.966 270.494 232.64 270.442 232.299C270.399 232.116 270.362 231.923 270.332 231.737C270.446 231.752 270.559 231.772 270.671 231.798C270.671 231.798 270.396 230.204 271.453 229.703C272.509 229.202 272.231 228.157 272.094 227.699C271.956 227.241 272.506 224.694 272.506 224.694C272.432 224.441 272.427 224.173 272.492 223.917C272.556 223.662 272.687 223.428 272.872 223.24C273.517 222.599 274.017 218.139 274.017 218.139L274.109 200.928C274.109 200.928 274.433 197.874 274.066 196.652C273.7 195.43 273.33 193.057 273.834 192.419C274.338 191.781 273.88 188.824 273.88 188.824C273.88 188.824 273.88 182.584 274.57 181.039C275.26 179.493 275.028 169.701 275.028 169.701L275.208 163.287C275.208 163.287 276.707 161.87 276.353 154.481C277.95 154.38 279.751 154.322 280.017 154.542C280.521 154.955 283.776 157.047 285.699 155.727C286.111 155.544 287.989 153.953 287.989 153.953L287.183 140.3C287.687 141.061 287.992 141.568 287.992 141.568C287.992 139.656 293.4 133.461 293.4 133.461C293.4 133.461 298.441 126.953 299.54 126.177C300.639 125.401 302.795 121.305 302.795 121.305C303.113 120.524 303.481 119.764 303.897 119.03C304.419 118.19 302.767 116.003 302.95 115.502ZM291.122 120.279C289.748 120.416 286.847 123.559 286.814 124.25C286.792 124.61 286.487 125.093 286.203 125.471C286.182 125.196 286.157 124.915 286.136 124.631C285.812 120.609 285.461 115.707 285.62 115.23C285.898 114.412 285.803 110.725 285.803 110.725L285.852 110.655C286.768 113.511 289.647 116.88 289.647 116.88C289.647 116.88 290.151 118.336 290.746 118.382C291.342 118.428 291.122 120.279 291.122 120.279Z" fill="url(#paint0_linear)"/>
<path d="M217.642 119.244C217.642 119.244 219.312 110.478 224.689 110.432L228.618 118.52L225.998 120.328C225.998 120.328 220.307 120.508 217.642 119.244Z" fill="#65617D"/>
<path opacity="0.1" d="M228.618 118.52L225.998 120.328C225.998 120.328 221.993 120.456 219.129 119.751C218.618 119.629 218.12 119.46 217.642 119.244C217.642 119.244 217.642 119.195 217.672 119.103C217.672 119.103 217.672 119.082 217.672 119.069C217.919 117.969 218.259 116.892 218.689 115.85C218.857 115.456 219.043 115.05 219.245 114.644C220.032 113.117 221.138 111.644 222.652 110.908C223.212 110.633 223.822 110.475 224.444 110.441H224.603H224.682L224.768 110.621L226.096 113.352L228.618 118.52Z" fill="black"/>
<path d="M273.245 154.939C273.245 154.939 278.893 154.399 279.388 154.805C279.883 155.211 283.092 157.288 284.991 155.978C286.89 154.668 285.623 150.104 285.623 149.924C285.623 149.744 285.443 143.281 285.443 143.281L282.054 138.718L277.81 130.722L269.138 129.86L269.364 142.56L269.318 149.066L273.245 154.939Z" fill="#4C4C78"/>
<path opacity="0.1" d="M273.245 154.939C273.245 154.939 278.893 154.399 279.388 154.805C279.883 155.211 283.092 157.288 284.991 155.978C286.89 154.668 285.623 150.104 285.623 149.924C285.623 149.744 285.443 143.281 285.443 143.281L282.054 138.718L277.81 130.722L269.138 129.86L269.364 142.56L269.318 149.066L273.245 154.939Z" fill="black"/>
<path d="M223.559 110.2C223.559 110.2 223.107 115.713 219.675 115.801C219.675 115.801 218.701 115.215 217.391 114.238C214.374 111.98 209.59 107.64 210.912 103.602C212.808 97.8206 222.023 108.489 222.023 108.489L222.728 109.283L223.559 110.2Z" fill="#EAB28B"/>
<path opacity="0.1" d="M223.559 110.2C223.559 110.2 223.107 115.713 219.675 115.801C219.675 115.801 218.701 115.215 217.391 114.238L217.101 113.862C217.684 114.166 218.326 114.339 218.982 114.369C219.498 114.389 220.008 114.252 220.445 113.976C220.881 113.699 221.223 113.296 221.425 112.82C221.786 112.112 222.103 111.381 222.374 110.633C222.541 110.198 222.66 109.745 222.728 109.283L223.559 110.2Z" fill="black"/>
<path d="M222.069 120.193L221.296 119.198L218.695 115.838L217.37 114.125C217.952 114.43 218.594 114.603 219.25 114.632C220.115 114.653 221.082 114.326 221.693 113.086C222.053 112.376 222.371 111.645 222.643 110.896C223.07 109.674 223.064 109.064 222.911 108.841C222.759 108.618 223.87 109.659 224.404 110.166L224.423 110.184L224.673 110.42L224.765 110.603L226.075 113.22C226.075 113.22 226.075 113.257 226.075 113.33C226.203 114.17 226.646 119.445 222.069 120.193Z" fill="#E7EFFD"/>
<path d="M249.127 236.499C249.127 236.499 245.332 238.985 243.435 238.637C241.539 238.289 239.594 239.272 239.594 239.272C238.287 240.7 236.639 241.773 234.804 242.391C231.751 243.429 227.445 243.02 225.006 242.207C223.852 241.822 223.757 241.328 224.313 240.714C224.923 240.03 226.346 239.208 227.977 238.231C231.094 236.38 234.434 232.733 234.434 232.733C234.434 232.733 234.48 231.817 235.024 231.426C235.358 231.137 235.665 230.818 235.94 230.473C236.425 229.898 236.88 229.3 236.88 229.3L248.043 229.624C248.043 229.624 248.232 230.427 248.382 231.248C248.509 231.781 248.562 232.329 248.537 232.876C248.509 233.075 248.521 233.278 248.574 233.471C248.626 233.665 248.718 233.846 248.843 234.003L249.044 235.836L249.127 236.499Z" fill="#282C37"/>
<path d="M272.478 239.617C272.344 240.158 272.173 241.126 272.109 241.581L272.069 241.832C272.069 241.832 271.153 243.82 266.155 244.544C261.157 245.268 261.142 242.87 261.142 242.87C261.142 242.87 261.16 242.614 261.19 242.226C261.279 241.169 261.459 239.144 261.593 238.713C261.771 238.127 261.456 235.549 261.456 235.549L261.404 232.858L261.364 230.989L269.679 230.127C269.73 230.749 269.82 231.368 269.947 231.978C269.998 232.318 270.122 232.642 270.311 232.928C270.763 233.426 271.031 235.64 271.031 235.64C271.031 235.64 272.659 238.893 272.478 239.617Z" fill="#282C37"/>
<path opacity="0.1" d="M248.043 229.624C248.043 229.624 248.232 230.427 248.382 231.248C247.176 231.471 241.906 232.385 240.59 231.746C239.097 231.022 235.891 230.616 235.891 230.616L235.943 230.433C236.428 229.859 236.883 229.26 236.883 229.26L248.043 229.624Z" fill="black"/>
<path opacity="0.1" d="M269.947 231.978C267.84 231.621 263.23 232.485 261.398 232.858L261.358 230.989L269.672 230.127C269.726 230.75 269.817 231.368 269.947 231.978Z" fill="black"/>
<path d="M274.634 163.479L274.454 169.851C274.454 169.851 274.68 179.566 274.002 181.103C273.324 182.639 273.324 188.83 273.324 188.83C273.324 188.83 273.776 191.765 273.279 192.397C272.781 193.03 273.144 195.379 273.504 196.6C273.865 197.822 273.55 200.849 273.55 200.849L273.459 217.929C273.459 217.929 272.964 222.354 272.329 222.99C272.147 223.177 272.017 223.41 271.954 223.663C271.891 223.917 271.896 224.183 271.969 224.434C271.969 224.434 271.428 226.963 271.563 227.418C271.697 227.873 271.969 228.909 270.931 229.404C269.892 229.898 270.161 231.484 270.161 231.484C267.679 230.894 260.632 232.479 260.632 232.479C259.87 230.909 259.207 229.293 258.644 227.641C258.523 227.307 258.474 226.95 258.501 226.596C258.529 226.241 258.631 225.896 258.802 225.584C258.973 225.272 259.209 225 259.493 224.787C259.778 224.573 260.104 224.423 260.452 224.346C261.398 224.208 259.774 222.537 259.774 222.537C259.774 222.537 259.954 222.311 259.502 220.687C259.05 219.062 259.591 214.883 259.728 213.814C259.865 212.745 260.54 207.489 260.54 207.489C260.54 207.489 260.18 200.849 260.452 200.577C260.723 200.305 261.624 197.685 261.175 196.826C260.726 195.968 259.997 190.321 259.997 190.003C259.997 189.685 259.414 182.367 259.414 182.367C259.414 182.367 258.87 177.26 259.007 176.176C259.145 175.092 258.644 171.072 258.644 171.072C258.644 167.713 256.702 164.111 256.702 164.111L256.653 164.243L252.467 175.275C252.467 175.275 251.789 178.616 251.203 180.513C250.833 181.803 250.538 183.114 250.321 184.438L250.281 184.679C250.281 184.78 250.251 184.866 250.241 184.933L250.214 185.116C250.214 185.116 250.519 187.511 250.031 188.28C249.542 189.05 248.993 191.353 248.993 191.985C248.993 192.617 249.038 195.058 249.038 195.058C249.038 195.058 249.219 199.893 248.733 200.436C248.248 200.98 248.504 201.429 248.504 201.429C248.504 201.429 249.316 205.094 248.956 206.038C248.596 206.982 248.867 209.199 248.867 209.199C248.867 209.199 248.144 216.206 248.055 216.566C247.967 216.927 247.466 219.731 248.01 219.957C248.553 220.183 249.588 221.536 249.588 221.536C249.588 221.536 249.817 227.458 249.002 227.907C248.187 228.356 248.638 230.656 248.638 230.656C248.638 230.656 242.092 231.92 240.602 231.196C239.112 230.473 235.903 230.066 235.903 230.066L236.352 228.582C236.325 228.634 236.025 229.116 235.812 227.266C235.589 225.323 237.485 226.27 237.485 226.27C237.485 226.27 238.975 226.633 236.569 224.285C234.163 221.936 235.348 219.538 235.485 219.538C235.622 219.538 235.94 216.062 235.94 216.062C235.94 216.062 236.346 213.982 236.028 212.354C235.711 210.726 235.442 205.665 235.442 205.665C235.442 205.665 235.668 201.826 235.262 200.427C234.856 199.028 235.531 196.493 235.668 195.907C235.806 195.32 235.247 189.957 235.247 189.957C235.247 189.957 235.699 187.428 235.427 185.577C235.155 183.726 235.699 176.9 235.699 176.9L236.511 169.038C236.511 169.038 237.097 166.595 237.009 165.602C236.92 164.609 237.689 161.13 237.689 161.13C237.643 160.39 237.767 159.648 238.05 158.962C238.502 158.046 238.682 155.077 238.682 155.077L243.02 145.135L245.158 136.369L273.837 136.097C273.837 136.097 273.944 136.858 274.118 138.235C274.292 139.613 274.536 141.659 274.808 144.185C275.059 146.479 275.333 149.176 275.599 152.178C276.466 161.763 274.634 163.479 274.634 163.479Z" fill="#4C4C78"/>
<path d="M271.981 84.3602L265.294 91.5012C265.294 91.5012 256.714 88.0651 257.618 86.8922C257.966 86.4372 257.923 85.0016 257.71 83.4195C257.404 80.9149 256.714 78.0347 256.714 78.0347C256.714 78.0347 271.709 75.5913 270.454 78.1233C269.993 79.0396 270.072 80.1269 270.36 81.1257C270.723 82.284 271.27 83.3761 271.981 84.3602Z" fill="#EAB28B"/>
<path opacity="0.1" d="M270.445 78.1294C269.984 79.0457 269.764 79.1434 270.051 80.1422C268.091 82.2405 265.596 84.5435 262.494 84.5435C260.834 84.546 259.196 84.1623 257.71 83.4225C257.404 80.918 256.714 78.0378 256.714 78.0378C256.714 78.0378 271.709 75.5943 270.445 78.1294Z" fill="black"/>
<path d="M273.248 73.5143C273.2 76.3356 272.047 79.0252 270.035 81.0035C268.024 82.9818 265.316 84.0904 262.496 84.0904C259.675 84.0904 256.967 82.9818 254.956 81.0035C252.945 79.0252 251.791 76.3356 251.744 73.5143C251.744 73.4624 251.744 73.4105 251.744 73.3616C251.764 70.5094 252.916 67.7821 254.946 65.7796C255.952 64.788 257.143 64.0043 258.451 63.4731C259.759 62.9419 261.159 62.6737 262.571 62.6837C263.982 62.6938 265.378 62.9819 266.679 63.5316C267.979 64.0813 269.159 64.8819 270.15 65.8876C271.141 66.8933 271.925 68.0845 272.456 69.3931C272.987 70.7017 273.255 72.1021 273.245 73.5143H273.248Z" fill="#EAB28B"/>
<path opacity="0.1" d="M274.802 144.463C273.379 144.463 268.638 144.515 263.337 144.597H263.273L261.523 144.628H261.468C255.185 144.729 248.99 143.501 246.507 143.733C241.225 144.228 248.407 138.846 248.407 138.846C252.345 139.804 256.396 140.215 260.446 140.068L261.972 139.988C266.772 139.717 271.599 139.265 274.121 138.507C274.289 139.906 274.53 141.937 274.802 144.463Z" fill="black"/>
<path d="M274.802 144.191C273.379 144.191 268.638 144.243 263.337 144.326H263.273L261.523 144.356H261.468C255.185 144.457 248.99 143.229 246.507 143.461C241.225 143.959 248.407 138.574 248.407 138.574C252.345 139.532 256.396 139.943 260.446 139.796L261.972 139.717C266.772 139.445 271.599 138.993 274.121 138.238C274.289 139.637 274.53 141.659 274.802 144.191Z" fill="#282C37"/>
<path opacity="0.1" d="M259.606 87.3412L251.295 91.2294L244.883 140.841C244.883 140.841 248.675 139.124 250.846 140.208C253.017 141.293 259.7 140.3 259.7 140.3C259.7 140.3 264.586 140.028 265.303 140.572C266.021 141.116 274.512 138.299 274.512 138.299C274.512 138.299 276.039 134.866 274.872 134.329C273.706 133.791 275.245 128.461 275.245 128.461L274.512 92.6741L273.065 88.0651L269.181 85.7163L265.212 88.8775L263.316 89.1494L259.606 87.3412Z" fill="black"/>
<path d="M259.606 86.8006L251.295 90.6857L244.883 140.3C244.883 140.3 248.675 138.583 250.846 139.668C253.017 140.752 259.7 139.756 259.7 139.756C259.7 139.756 264.586 139.488 265.303 140.028C266.021 140.569 274.518 137.768 274.518 137.768C274.518 137.768 276.045 134.335 274.878 133.797C273.712 133.26 275.245 127.915 275.245 127.915L274.512 92.1304L273.065 87.5245L269.181 85.1727L265.212 88.3369L263.315 88.6088L259.606 86.8006Z" fill="#E7EFFD"/>
<path opacity="0.1" d="M259.469 89.1036C259.469 89.1036 261.862 91.9502 261.82 92.5397C261.777 93.1292 261.682 94.528 261.682 94.528L259.875 98.1932C259.875 98.1932 258.882 102.756 258.882 103.706C258.882 104.656 257.301 112.869 257.301 112.869L255.399 125.523L253.005 142.108L255.447 146.308L258.336 143.864L262.177 114.311L262.989 108.483C262.989 108.483 263.847 98.0008 263.847 96.9165C263.847 95.8322 263.352 92.9856 263.352 92.9856C263.352 92.9856 263.939 90.2734 266.378 89.6259C268.818 88.9784 266.198 89.4884 266.198 89.4884L264.797 88.3614L263.575 88.8562C263.575 88.8562 260.192 87.8391 259.469 89.1036Z" fill="black"/>
<path d="M259.196 88.8348C259.196 88.8348 261.593 91.6814 261.548 92.2678C261.502 92.8543 261.41 94.2562 261.41 94.2562L259.606 97.9214C259.606 97.9214 258.61 102.485 258.61 103.434C258.61 104.384 257.029 112.597 257.029 112.597L255.133 125.248L252.739 141.833L255.181 146.036L258.073 143.593L261.911 114.042L262.726 108.217C262.726 108.217 263.584 97.7351 263.584 96.6508C263.584 95.5665 263.089 92.7199 263.089 92.7199C263.089 92.7199 263.676 90.0077 266.115 89.3754C268.555 88.7432 265.935 89.241 265.935 89.241L264.534 88.1109L263.312 88.6088C263.312 88.6088 259.92 87.5672 259.196 88.8348Z" fill="#F89079"/>
<path opacity="0.1" d="M257.618 84.0884C257.618 84.0884 257.255 84.3602 257.166 86.1684C257.078 87.9765 255.811 92.0418 255.811 92.0418C255.811 92.0418 260.51 88.789 262.857 89.1494L257.618 84.0884Z" fill="black"/>
<path d="M257.618 83.5478C257.618 83.5478 257.255 83.8165 257.166 85.6247C257.078 87.4329 255.811 91.4981 255.811 91.4981C255.811 91.4981 260.51 88.2453 262.857 88.6088L257.618 83.5478Z" fill="#E7EFFD"/>
<path opacity="0.1" d="M270.445 82.6437L263.032 89.1494C263.032 89.1494 269.267 92.8543 270.079 93.7583C270.891 94.6624 271.703 84.9008 271.703 84.9008L270.445 82.6437Z" fill="black"/>
<path d="M270.717 82.1L263.31 88.6088C263.31 88.6088 269.541 92.3137 270.36 93.2177C271.178 94.1218 271.984 84.3602 271.984 84.3602L270.717 82.1Z" fill="#E7EFFD"/>
<path opacity="0.1" d="M257.887 84.0884C257.887 84.0884 257.074 83.6822 256.308 84.8581C255.744 85.6246 254.977 86.2189 254.094 86.5746C254.094 86.5746 245.872 87.8849 245.545 88.9692L241.704 89.1952C241.704 89.1952 240.349 89.3754 240.214 92.222C240.08 95.0687 239.356 95.3405 239.356 95.3405C239.356 95.3405 237.775 98.1413 237.912 99.586C238.049 101.031 236.691 101.758 236.691 101.758L242.336 116.443C242.336 116.443 242.519 122.496 241.478 124.711C240.437 126.925 238.498 136.73 238.498 136.73C238.498 136.73 239.31 136.549 239.265 137.09C239.219 137.631 238.3 143.553 238.3 143.553C238.3 143.553 238.028 145.902 237.576 146.717C237.124 147.533 237.078 151.775 237.078 151.775L236.358 154.848C236.358 154.848 238.074 158.69 240.694 158.146C243.313 157.603 248.055 147.349 248.055 147.349L251.084 136.277L253.432 125.343L254.11 117.933L255.194 101.532L256.775 90.6857C256.775 90.6857 258.522 84.8489 257.887 84.0884Z" fill="black"/>
<path d="M257.618 83.5478C257.618 83.5478 256.803 83.1416 256.036 84.3144C255.473 85.082 254.706 85.6765 253.823 86.0309C253.823 86.0309 245.603 87.3412 245.273 88.4255L241.432 88.6515C241.432 88.6515 240.08 88.8348 239.942 91.6814C239.805 94.528 239.084 94.7968 239.084 94.7968C239.084 94.7968 237.503 97.6007 237.64 99.0454C237.778 100.49 236.419 101.214 236.419 101.214L242.067 115.899C242.067 115.899 242.248 121.953 241.21 124.167C240.171 126.382 238.226 136.189 238.226 136.189C238.226 136.189 239.039 136.006 238.996 136.549C238.953 137.093 238 143.009 238 143.009C238 143.009 237.729 145.361 237.277 146.174C236.825 146.986 236.782 151.234 236.782 151.234L236.059 154.307C236.059 154.307 237.775 158.146 240.394 157.606C243.014 157.065 247.765 146.806 247.765 146.806L250.791 135.737L253.139 124.802L253.817 117.39L254.9 100.988L256.482 90.1451C256.482 90.1451 258.25 84.3144 257.618 83.5478Z" fill="#4C4C78"/>
<path opacity="0.1" d="M228.618 118.52L225.998 120.328C225.998 120.328 221.992 120.456 219.128 119.751L217.672 119.103L217.367 118.975L217.672 119.069C219.183 119.518 220.365 119.509 221.29 119.198C224.997 117.949 224.588 111.825 224.444 110.441C224.444 110.301 224.42 110.212 224.414 110.178C224.413 110.172 224.413 110.166 224.414 110.16L224.435 110.197C224.486 110.28 224.543 110.36 224.606 110.435C224.658 110.493 224.713 110.554 224.771 110.612L226.081 113.23C226.081 113.23 226.081 113.266 226.081 113.34L228.618 118.52Z" fill="black"/>
<path d="M237.689 100.854L236.422 101.214L236.242 103.789C236.242 103.789 234.752 103.563 234.346 105.316C233.94 107.069 233.216 107.894 233.216 107.894C233.216 107.894 230.731 109.971 230.597 111.733L229.07 112.683C229.07 112.683 225.501 111.867 224.689 110.423C224.689 110.423 226.316 122.081 217.642 119.234C217.642 119.234 227.354 123.48 227.806 124.069C228.258 124.659 231.238 126.372 233.949 124.928C236.66 123.483 237.247 121.262 237.247 121.262C237.247 121.262 239.866 117.597 239.955 117.06C240.044 116.522 242.092 115.884 242.092 115.884L245.976 106.486L237.689 100.854Z" fill="#4C4C78"/>
<path opacity="0.1" d="M269.407 88.0651L270.717 82.1C270.717 82.1 271.303 84.0426 271.892 84.4946L273.834 85.9882C273.834 85.9882 275.776 86.8892 276.454 86.8892C277.132 86.8892 280.79 87.8391 281.241 88.3369C281.693 88.8348 283.501 88.4713 283.501 88.4713C283.501 88.4713 284.991 88.9692 286.301 89.2838C287.611 89.5984 288.243 91.77 287.971 92.6435C287.861 93.071 287.861 93.5195 287.971 93.9469C288.082 94.3743 288.299 94.7666 288.603 95.087C289.146 95.6306 289.418 97.393 289.418 97.393C290.08 97.6115 290.628 98.0824 290.945 98.7033C291.397 99.6959 291.25 101.865 291.25 101.865L284.533 111.354C284.533 111.354 284.621 115.019 284.353 115.829C284.084 116.638 285.299 130.468 285.299 130.468L286.701 154.234C286.701 154.234 284.847 155.816 284.441 155.996C284.035 156.176 283.629 147.594 283.629 147.276C283.629 146.958 273.196 131.641 273.196 131.641C273.196 131.641 271.795 129.384 271.795 128.892C271.795 128.4 270.485 123.831 270.485 123.831L268.497 115.019L269.407 88.0651Z" fill="black"/>
<path d="M291.827 101.342C291.827 101.648 291.827 101.861 291.827 101.861L285.11 111.33C285.11 111.33 285.202 114.995 284.933 115.801C284.774 116.275 285.119 121.137 285.44 125.132C285.666 128.013 285.879 130.441 285.879 130.441L286.475 140.52L287.278 154.203C287.278 154.203 285.428 155.785 285.021 155.966C284.615 156.146 284.209 147.563 284.209 147.246C284.209 146.928 273.773 131.614 273.773 131.614C273.773 131.614 272.372 129.35 272.372 128.865C272.372 128.379 271.062 123.804 271.062 123.804L269.077 114.992L269.978 88.062L270.717 82.1C270.717 82.1 271.846 84.0456 272.433 84.4946L274.375 85.9851C274.375 85.9851 276.316 86.9014 276.994 86.9014C277.672 86.9014 281.333 87.8482 281.785 88.3461C282.237 88.844 284.041 88.4805 284.041 88.4805C284.041 88.4805 285.531 88.9783 286.841 89.2929C288.151 89.6075 288.786 91.7791 288.514 92.6527C288.404 93.0801 288.403 93.5288 288.514 93.9563C288.625 94.3838 288.842 94.7761 289.146 95.0961C289.687 95.6367 289.959 97.3991 289.959 97.3991C290.62 97.6195 291.168 98.0912 291.485 98.7125C291.809 99.3691 291.839 100.624 291.827 101.342Z" fill="#4C4C78"/>
<path opacity="0.1" d="M236.615 221.725C236.838 221.725 246.324 222.085 246.144 223.622C245.964 225.158 236.615 221.725 236.615 221.725Z" fill="black"/>
<path opacity="0.1" d="M238.737 224.3C238.737 224.3 245.106 225.338 243.433 226.288C241.76 227.238 238.737 224.3 238.737 224.3Z" fill="black"/>
<path opacity="0.1" d="M262.421 220.729C262.421 220.729 272.991 221.646 271.41 222.809C269.828 223.973 266.079 224.162 265.914 224.208C265.749 224.254 262.421 220.729 262.421 220.729Z" fill="black"/>
<path opacity="0.1" d="M261.142 225.384C261.142 225.384 267.013 226.377 267.193 227.522C267.373 228.668 261.142 225.384 261.142 225.384Z" fill="black"/>
<path opacity="0.1" d="M264.394 198.182C264.394 198.182 269.767 199.447 270.085 200.32L264.394 198.182Z" fill="black"/>
<path opacity="0.1" d="M243.658 202.067C243.658 202.067 240.858 202.88 243.57 204.511C246.281 206.142 243.658 202.067 243.658 202.067Z" fill="black"/>
<path opacity="0.1" d="M256.082 158.644C256.387 158.644 261.322 157.019 263.037 157.728C264.266 158.189 265.564 158.436 266.875 158.458L256.082 158.644Z" fill="black"/>
<path opacity="0.1" d="M256.714 163.794L256.666 164.243L252.467 175.275C252.467 175.275 251.789 178.616 251.203 180.513C250.832 181.803 250.538 183.114 250.321 184.438L254.049 161.311L256.714 163.794Z" fill="black"/>
<path d="M263.273 144.326L261.523 144.356H261.468L260.442 139.802L261.969 139.72L263.273 144.326Z" fill="#3F3D56"/>
<path d="M284.585 138.81L283.458 139.726L279.706 142.82C279.706 142.82 269.541 148.244 266.741 143.092C264.274 138.553 275.797 135.312 278.573 134.607C278.948 134.512 279.162 134.463 279.162 134.463L284.585 138.81Z" fill="#EAB28B"/>
<path opacity="0.1" d="M241.176 94.3906C241.176 94.3906 243.164 95.3069 243.619 96.5592C244.074 97.8114 241.176 94.3906 241.176 94.3906Z" fill="black"/>
<path opacity="0.1" d="M235.033 107.946C235.033 107.946 232.141 111.47 233.317 112.833C234.492 114.195 235.033 107.946 235.033 107.946Z" fill="black"/>
<path opacity="0.1" d="M286.707 96.379C286.707 96.379 283.995 96.6508 283.907 98.9995L286.707 96.379Z" fill="black"/>
<path opacity="0.1" d="M261.593 133.431C261.862 133.159 268.097 123.941 269.532 124.757L261.593 133.431Z" fill="black"/>
<path opacity="0.1" d="M273.248 73.5143C273.251 75.2858 272.813 77.0302 271.975 78.5906L271.895 78.5753C271.215 78.4318 270.86 77.6377 270.338 77.1429C270.018 76.8375 269.61 76.6403 269.172 76.579C268.734 76.5176 268.287 76.5952 267.896 76.8008C267.501 77.038 267.18 77.3805 266.968 77.79C266.757 78.1994 266.664 78.6596 266.699 79.119C266.354 77.6713 266.464 76.1349 266.128 74.6841C265.792 73.2333 264.781 71.7673 263.395 71.7428C262.784 71.7428 262.103 71.9597 261.67 71.5138C261.41 71.245 261.365 70.8204 261.163 70.4906C260.174 68.8901 257.16 69.6995 255.93 70.5211C254.699 71.3427 253.273 72.6591 251.744 73.3616C251.764 70.5094 252.916 67.7821 254.946 65.7796C255.952 64.788 257.143 64.0043 258.451 63.4731C259.759 62.9419 261.159 62.6737 262.571 62.6837C263.982 62.6938 265.378 62.9819 266.679 63.5316C267.979 64.0813 269.159 64.8819 270.15 65.8876C271.141 66.8933 271.925 68.0845 272.456 69.3931C272.987 70.7017 273.255 72.1021 273.245 73.5143H273.248Z" fill="black"/>
<path d="M261.166 70.2218C261.362 70.5486 261.413 70.9732 261.673 71.2419C262.103 71.6909 262.803 71.4588 263.398 71.471C264.784 71.4954 265.795 72.9615 266.131 74.4123C266.467 75.8631 266.357 77.3994 266.702 78.8472C266.666 78.3873 266.76 77.9267 266.972 77.5171C267.184 77.1075 267.506 76.7653 267.902 76.529C268.293 76.3234 268.74 76.2458 269.178 76.3071C269.616 76.3685 270.024 76.5657 270.344 76.871C270.866 77.3658 271.221 78.16 271.901 78.3035C272.582 78.4471 273.239 77.7934 273.486 77.0818C273.733 76.3701 273.715 75.576 273.877 74.8308C274.182 73.4227 275.098 72.2651 275.611 70.9243C276.216 69.2939 276.2 67.4977 275.565 65.8785C275.226 65.0294 274.723 64.2659 274.378 63.4198C273.859 62.1309 273.724 60.6709 273.089 59.4492C272.027 57.3937 269.523 56.3674 267.462 57.1402C266.482 57.5067 265.63 58.2214 264.632 58.5421C263.297 58.9727 261.868 58.649 260.488 58.4566C259.108 58.2641 257.578 58.2458 256.467 59.1529C255.188 60.2006 254.84 62.1676 253.637 63.316C253.133 63.7986 252.507 64.107 251.976 64.5377C251.444 64.9684 250.983 65.6464 251.06 66.3703C251.139 67.3049 252.055 68.154 251.716 69.0214C251.594 69.273 251.424 69.4982 251.215 69.6842C250.21 70.739 249.461 72.0122 249.029 73.4044C251.444 74.1619 254.061 71.4954 255.954 70.234C257.166 69.4307 260.177 68.6183 261.166 70.2218Z" fill="#472727"/>
<path opacity="0.1" d="M284.585 138.81L283.458 139.726C282.466 138.076 278.396 134.778 278.396 134.778L278.573 134.607C278.948 134.512 279.162 134.463 279.162 134.463L284.585 138.81Z" fill="black"/>
<path d="M285.669 137.136C285.669 137.136 285.263 138.144 284.847 139.011C284.432 139.879 283.974 140.673 283.953 140.028C283.907 138.764 278.667 134.515 278.667 134.515L279.379 133.825L280.2 133.025L285.669 137.136Z" fill="#E7EFFD"/>
<path opacity="0.1" d="M285.849 130.447L286.444 140.526C285.04 138.342 281.187 132.747 278.71 132.927L284.71 126.021C284.96 125.743 285.191 125.448 285.4 125.138C285.626 128.019 285.849 130.447 285.849 130.447Z" fill="black"/>
<path opacity="0.1" d="M285.669 137.136C285.669 137.136 285.263 138.144 284.847 139.011C283.272 136.852 281.107 134.301 279.379 133.819L280.2 133.019L285.669 137.136Z" fill="black"/>
<path d="M290.184 100.582L291.812 101.846C291.812 101.846 294.52 101.892 294.792 104.152C295.063 106.412 297.54 107.451 297.54 107.451C297.54 107.451 299.39 109.302 299.39 110.16C299.39 111.018 300.791 112.555 300.791 112.692C300.791 112.829 302.147 115.584 301.964 116.079C301.781 116.574 303.411 118.746 302.913 119.558C302.505 120.288 302.143 121.043 301.829 121.818C301.829 121.818 299.707 125.887 298.624 126.653C297.54 127.42 292.569 133.883 292.569 133.883C292.569 133.883 287.241 140.028 287.241 141.925C287.241 141.925 282.05 133.251 278.973 133.477L284.982 126.562C284.982 126.562 286.02 125.435 286.065 124.757C286.111 124.079 288.957 120.96 290.313 120.826C290.313 120.826 290.535 118.972 289.949 118.926C289.363 118.88 288.865 117.435 288.865 117.435C288.865 117.435 284.896 112.738 284.844 109.754C284.792 106.77 290.184 100.582 290.184 100.582Z" fill="#4C4C78"/>
<path opacity="0.1" d="M292.578 104.873C292.578 104.873 288.786 107.677 289.598 108.578C290.411 109.479 292.578 104.873 292.578 104.873Z" fill="black"/>
<path opacity="0.1" d="M292.758 116.443C292.758 116.443 299.805 114.183 300.529 116.443H292.758Z" fill="black"/>
<path opacity="0.1" d="M249.127 236.499C249.127 236.499 245.332 238.985 243.435 238.637C241.539 238.289 239.594 239.272 239.594 239.272C238.287 240.7 236.639 241.773 234.804 242.391C231.751 243.429 227.445 243.02 225.006 242.207C223.852 241.822 223.757 241.328 224.313 240.714C226.966 241.242 232.892 242.296 234.489 241.529C236.566 240.534 239.549 238.365 239.549 238.365C239.549 238.365 243.435 237.824 243.976 237.824C244.361 237.824 247.362 236.584 249.057 235.876L249.127 236.499Z" fill="black"/>
<path opacity="0.1" d="M272.109 241.581L272.069 241.832C272.069 241.832 271.153 243.82 266.155 244.544C261.157 245.268 261.142 242.87 261.142 242.87C261.142 242.87 261.16 242.614 261.19 242.226C262.778 242.827 266.241 243.499 272.109 241.581Z" fill="black"/>
<path opacity="0.1" d="M243.051 104.332C243.051 104.332 243.051 114.635 242.168 115.652C241.286 116.669 243.051 104.332 243.051 104.332Z" fill="black"/>
<path opacity="0.1" d="M283.77 107.652L285.079 111.336C285.079 111.336 285.602 107.72 283.77 107.652Z" fill="black"/>
<g opacity="0.1">
<path opacity="0.1" d="M251.832 68.1571C252.162 67.308 251.295 66.4772 251.182 65.567C251.067 65.8238 251.018 66.1051 251.038 66.3856C251.096 67.0697 251.6 67.7081 251.734 68.3434C251.772 68.2842 251.805 68.2219 251.832 68.1571Z" fill="black"/>
<path opacity="0.1" d="M266.824 77.8881C266.5 76.4648 266.595 74.956 266.265 73.5296C265.935 72.1032 264.919 70.6127 263.535 70.5883C262.925 70.5883 262.241 70.8082 261.81 70.3623C261.548 70.0935 261.505 69.6659 261.3 69.3391C260.311 67.7356 257.301 68.548 256.067 69.3696C254.235 70.5914 251.682 73.1661 249.313 72.5858C249.2 72.8577 249.096 73.1356 249.008 73.4196C251.423 74.1771 254.04 71.5107 255.933 70.2493C257.154 69.4307 260.177 68.6183 261.166 70.2218C261.361 70.5486 261.413 70.9731 261.673 71.2419C262.103 71.6909 262.803 71.4588 263.398 71.471C264.784 71.4954 265.795 72.9615 266.131 74.4123C266.467 75.8631 266.357 77.3994 266.702 78.8472C266.679 78.5226 266.721 78.1968 266.824 77.8881Z" fill="black"/>
<path opacity="0.1" d="M273.614 76.196C273.37 76.9107 272.726 77.5705 272.03 77.4178C271.334 77.265 270.995 76.4801 270.476 75.9822C270.153 75.6802 269.746 75.4855 269.308 75.4248C268.871 75.3641 268.425 75.4404 268.033 75.6432C267.656 75.8677 267.347 76.1889 267.136 76.5733C266.925 76.9578 266.82 77.3917 266.833 77.8301C267.016 77.2784 267.395 76.8131 267.899 76.5228C268.29 76.3172 268.737 76.2397 269.175 76.301C269.613 76.3624 270.021 76.5596 270.341 76.8649C270.863 77.3597 271.218 78.1538 271.898 78.2974C272.579 78.4409 273.236 77.7873 273.483 77.0757C273.612 76.6531 273.695 76.2179 273.73 75.7776C273.701 75.9194 273.662 76.0592 273.614 76.196Z" fill="black"/>
<path opacity="0.1" d="M275.74 70.0385C275.233 71.3794 274.311 72.5339 274.005 73.945C273.944 74.229 273.908 74.5192 273.874 74.8124C274.179 73.4074 275.095 72.256 275.605 70.9182C275.83 70.3164 275.971 69.6863 276.024 69.0459C275.954 69.3834 275.859 69.7153 275.74 70.0385Z" fill="black"/>
</g>
<path d="M210.464 102.757C210.525 102.757 210.574 102.708 210.574 102.647C210.574 102.586 210.525 102.536 210.464 102.536C210.403 102.536 210.354 102.586 210.354 102.647C210.354 102.708 210.403 102.757 210.464 102.757Z" fill="#E6E8EC"/>
<path d="M152.527 65.4815L72.6807 117.301L124.788 211.313C125.032 211.753 125.363 212.137 125.763 212.442C126.162 212.747 126.62 212.965 127.109 213.084L174.322 224.605C175.131 224.801 175.982 224.713 176.735 224.357C177.487 224.001 178.094 223.397 178.456 222.647L201.874 173.977L227.54 139.656L166.633 67.5737C164.938 65.5688 162.571 64.2504 159.975 63.8653C157.378 63.4802 154.731 64.0548 152.527 65.4815Z" fill="#DCDFED"/>
<path opacity="0.1" d="M228.353 140.062L228.127 140.367L213.092 160.474L212.82 160.837L202.687 174.389L182.657 216.023L182.095 217.186L179.268 223.06C178.906 223.811 178.298 224.415 177.544 224.772C176.791 225.128 175.938 225.215 175.128 225.018L127.915 213.491C127.426 213.372 126.968 213.153 126.569 212.848C126.169 212.544 125.837 212.159 125.594 211.719L121.054 203.543L120.239 202.071L87.4677 142.921L87.1868 142.417L73.4897 117.707L75.1446 116.632L87.6906 108.492L87.9807 108.303L114.401 91.1561L116.068 90.0748L153.333 65.8877C155.537 64.4583 158.186 63.8819 160.784 64.2665C163.382 64.6511 165.75 65.9703 167.446 67.9769L195.23 100.872L196.452 102.338L216.619 126.204L216.729 126.336L226.869 138.333L228.145 139.845L228.353 140.062Z" fill="black"/>
<path opacity="0.1" d="M215.947 125.929L213.486 143.034L212.744 148.195L212.32 159.191L212.286 160.049L210.079 217.501C210.057 218.034 209.919 218.556 209.674 219.03C209.429 219.503 209.083 219.918 208.661 220.243C208.238 220.568 207.75 220.797 207.229 220.913C206.708 221.028 206.169 221.028 205.648 220.913L181.851 215.598L181.594 215.54L120.562 201.915L119.442 201.664L85.8892 194.169L86.6586 142.514L86.683 140.789L86.9151 125.154L87.1715 107.897L113.592 90.7498L115.259 89.6686C139.764 92.1823 172.355 97.0173 194.434 100.466L195.655 101.932L215.807 125.798L215.947 125.929Z" fill="black"/>
<path d="M218.734 105.649L215.837 125.807L213.18 144.268L212.438 149.417L212.014 160.413L209.773 218.723C209.752 219.256 209.614 219.777 209.369 220.251C209.124 220.725 208.778 221.139 208.355 221.465C207.933 221.79 207.444 222.019 206.923 222.134C206.403 222.25 205.863 222.25 205.343 222.134L181.289 216.762L120.257 203.136L85.5835 195.391L86.3774 142.01L86.6094 126.375L86.8811 108.086L87.159 89.2746C92.8931 89.0028 102.328 89.6167 113.591 90.7498C138.811 93.2819 173.191 98.404 195.67 101.932C209.434 104.091 218.734 105.649 218.734 105.649Z" fill="#2B91D9"/>
<path opacity="0.1" d="M226.087 137.927L213.181 144.258L147.312 176.573L86.6096 126.388L74.3385 116.226L72.6836 117.301L86.3806 142.01L85.5868 195.391L120.26 203.136L124.791 211.313C125.034 211.753 125.366 212.137 125.765 212.442C126.165 212.747 126.623 212.966 127.112 213.084L174.325 224.605C175.133 224.8 175.984 224.712 176.736 224.356C177.487 224 178.094 223.397 178.456 222.647L181.283 216.774L205.337 222.147C205.857 222.262 206.397 222.262 206.917 222.147C207.438 222.031 207.927 221.802 208.349 221.477C208.772 221.152 209.118 220.737 209.363 220.264C209.608 219.79 209.746 219.268 209.767 218.735L212.008 160.425L227.314 139.961L227.357 139.445L226.087 137.927Z" fill="black"/>
<path d="M72.6807 117.301L67.2367 210.558C67.1863 211.422 67.4446 212.274 67.9655 212.965C68.4863 213.655 69.2356 214.137 70.0793 214.324L214.659 246.441C215.165 246.552 215.69 246.553 216.198 246.444C216.705 246.336 217.184 246.12 217.601 245.811C218.018 245.503 218.365 245.108 218.617 244.655C218.869 244.201 219.022 243.699 219.064 243.182L227.537 139.656L147.312 179.017L72.6807 117.301Z" fill="#DCDFED"/>
<path opacity="0.1" d="M68.232 212.693L143.343 166.338C144.455 165.663 145.77 165.404 147.055 165.605C148.34 165.806 149.513 166.455 150.365 167.438L217.593 245.869C217.837 246.15 217.956 245.949 217.593 245.869L68.232 212.693C67.8045 212.599 67.8595 212.916 68.232 212.693Z" fill="black"/>
<path d="M68.7691 212.617L143.104 167.697C144.28 166.987 145.668 166.715 147.024 166.928C148.38 167.142 149.617 167.827 150.518 168.864L217.137 245.506C217.248 245.634 217.315 245.793 217.33 245.961C217.345 246.129 217.307 246.297 217.22 246.442C217.134 246.587 217.005 246.701 216.85 246.768C216.695 246.835 216.524 246.852 216.359 246.816L69.0103 214.086C68.8534 214.052 68.7103 213.972 68.5997 213.856C68.4891 213.739 68.416 213.592 68.39 213.434C68.364 213.275 68.3862 213.113 68.4538 212.967C68.5214 212.821 68.6313 212.699 68.7691 212.617Z" fill="#E3E5F1"/>
</g>
<defs>
<linearGradient id="paint0_linear" x1="257.075" y1="245.084" x2="257.075" y2="55.8482" gradientUnits="userSpaceOnUse">
<stop stop-color="#808080" stop-opacity="0.25"/>
<stop offset="0.54" stop-color="#808080" stop-opacity="0.12"/>
<stop offset="1" stop-color="#808080" stop-opacity="0.1"/>
</linearGradient>
<clipPath id="clip0">
<rect width="316" height="254" fill="white"/>
</clipPath>
</defs>
</svg>