<svg width="512" height="245" viewBox="0 0 512 245" fill="none" xmlns="http://www.w3.org/2000/svg">
<g clip-path="url(#clip0)">
<path opacity="0.1" d="M508.103 203.191C505.65 207.931 502.199 212.082 497.987 215.354C497.389 215.834 496.777 216.297 496.157 216.751C495.321 217.339 494.465 217.916 493.588 218.483C486.775 222.815 478.797 225.777 471.007 227.936C468.884 228.524 466.754 229.076 464.616 229.593C462.813 230.031 461.008 230.439 459.202 230.818C458.516 230.968 457.83 231.109 457.144 231.259C456.457 231.409 455.67 231.554 454.944 231.7L453.902 231.898C433.749 235.622 413.332 236.331 392.765 235.397L391.788 235.349L390.227 235.269C386.051 235.052 381.872 234.774 377.687 234.436L376.104 234.309L375.404 234.251C373.059 234.054 370.713 233.839 368.367 233.603C365.277 233.31 362.182 232.985 359.082 232.63L358.682 232.585L358.356 232.546C347.295 231.299 336.206 229.8 325.105 228.262L323.535 228.042L320.715 227.65L318.34 227.319L317.636 227.222C313.889 226.696 310.142 226.176 306.394 225.662L305.787 225.578C298.75 224.613 291.673 223.683 284.618 222.837L283.699 222.727C280.81 222.383 277.924 222.056 275.038 221.744L272.839 221.511L269.914 221.215C261.808 220.409 253.706 219.765 245.622 219.364C241.734 219.17 237.837 219.024 233.931 218.924C230.706 218.85 227.48 218.808 224.255 218.796C219.88 218.775 215.496 218.8 211.104 218.871H210.11C203.921 218.972 197.72 219.148 191.513 219.36L190.396 219.395H190.027C176.832 219.862 163.637 220.484 150.477 220.929L147.262 221.035H146.795C142.221 221.182 137.651 221.295 133.086 221.374H131.876H131.837H130.367L128.327 221.4C126.207 221.421 124.091 221.433 121.98 221.436H119.389C111.639 221.414 103.92 221.242 96.2494 220.841L95.3961 220.792C80.49 219.986 65.7511 218.32 51.2761 215.292C49.7778 214.978 48.2823 214.649 46.7898 214.305C36.7875 212.058 26.9666 209.066 17.4088 205.354C12.9048 203.592 8.37453 201.556 4.9482 198.109C-3.74296 189.295 -0.479373 172.033 10.8288 167.013C19.6739 163.087 30.0365 166.282 39.5501 164.51C40.1347 164.398 40.7119 164.251 41.2787 164.069C42.4881 163.679 43.6647 163.192 44.7973 162.615C45.1844 162.421 45.5715 162.214 45.9629 161.998C46.8426 161.518 47.7223 160.984 48.5667 160.403C49.9473 159.483 51.2693 158.477 52.5253 157.393C53.0824 156.917 53.6249 156.423 54.1527 155.912C55.9792 154.193 57.5919 152.259 58.9557 150.152C59.4522 149.355 59.8931 148.524 60.2752 147.666C60.4819 147.226 60.6666 146.75 60.8206 146.291C61.0504 145.628 61.2255 144.947 61.344 144.255C61.8982 140.985 61.0009 137.795 57.8781 135.098C57.5984 134.858 57.3046 134.636 56.9984 134.432C56.3934 134.012 55.755 133.642 55.0895 133.326C54.8212 133.198 54.5441 133.075 54.2626 132.956C50.2425 131.259 45.0569 130.607 40.6849 129.43C39.3525 129.092 38.0517 128.639 36.7967 128.077C36.0006 127.707 35.2089 127.319 34.4304 126.914L34.2237 126.799C27.576 123.365 21.7298 118.559 17.0701 112.697C15.9117 111.215 14.8453 109.664 13.8769 108.052C13.5822 107.567 13.2963 107.069 13.0236 106.571C5.29567 92.6005 4.49957 74.6992 12.5398 60.9625C13.5165 59.2959 14.6039 57.697 15.7946 56.1764C16.1816 55.674 16.5819 55.1804 16.9953 54.6957C24.6485 45.648 35.6444 39.5178 46.7458 34.9786C61.6475 28.8881 77.2485 25.0408 93.1485 22.5067C96.374 21.9926 99.5995 21.5313 102.825 21.1229C116.328 19.3953 129.989 18.4787 143.554 17.7824C156.242 17.1389 168.985 16.7232 181.784 16.5352C186.121 16.4764 190.462 16.4515 194.808 16.4603C204.599 16.4603 214.389 16.6498 224.18 17.0288C227.406 17.1522 230.631 17.2991 233.856 17.4695C242.128 17.8984 250.384 18.486 258.624 19.2323C262.582 19.5907 266.532 19.9859 270.473 20.4178C300.487 23.7054 330.066 29.2803 358.625 37.949C361.865 38.9303 365.09 39.9586 368.301 41.0339C380.311 44.9958 392.112 49.5658 403.66 54.7265C404.75 55.2172 405.838 55.7108 406.923 56.2073C414.134 59.5214 421.241 63.0925 428.246 66.9208C437.491 71.9057 446.396 77.5002 454.9 83.6675C458.22 86.106 461.445 88.6504 464.577 91.3005C470.113 95.9788 475.276 101.083 480.019 106.566C480.442 107.057 480.86 107.551 481.273 108.047C483.419 110.63 485.457 113.305 487.387 116.072C496.799 129.628 503.115 145.132 507.778 160.971C511.89 174.792 514.626 190.309 508.103 203.191Z" fill="#2B91D9"/>
<path d="M130.715 223.529C130.715 223.577 130.68 223.625 130.667 223.673C130.667 223.625 130.697 223.577 130.719 223.529H130.715Z" fill="#EAECF0"/>
<path d="M133.011 221.418H131.801H131.762H130.293L128.252 221.444L128.027 219.122L127.821 216.918L126.862 206.866L126.831 206.557V206.421L126.563 203.592L130.671 202.049L131.172 206.152L131.207 206.456V206.491L132.223 214.821L132.536 217.377L132.716 218.862L132.87 220.136V220.18L133.011 221.418Z" fill="#EAECF0"/>
<path d="M147.758 223.525L147.806 223.669H147.481L147.433 223.525H147.758Z" fill="#3A3768"/>
<path d="M211.464 165.462C211.464 165.55 211.464 165.599 211.464 165.599V165.651C211.464 165.651 207.629 176.153 206.38 185.117C206.295 185.705 206.224 186.293 206.169 186.88C206.107 187.502 206.059 188.11 206.032 188.7C205.997 189.392 205.988 190.062 206.006 190.701C206.006 190.846 206.006 190.996 206.006 191.142C206.006 191.437 206.037 191.741 206.054 192.054C206.072 192.367 206.098 192.68 206.125 193.006C206.151 193.332 206.178 193.618 206.208 193.931C207.154 203.627 210.747 217.822 210.747 217.822C210.747 217.822 210.866 218.205 211.02 218.858H210.026C203.838 218.959 197.636 219.135 191.43 219.347L190.313 219.382H189.943C176.748 219.849 163.553 220.47 150.393 220.916L147.178 221.021H146.712C142.137 221.168 137.568 221.281 133.002 221.361H131.792C132.103 220.922 132.46 220.519 132.857 220.158C133.191 219.847 133.551 219.567 133.934 219.32C136.025 218.014 138.301 217.035 140.686 216.416C141.189 216.278 141.709 216.214 142.23 216.227L145.309 216.288H145.784L150.507 216.381L191.025 217.187H191.126L191.412 217.13C191.883 217.013 192.341 216.85 192.78 216.645C193.541 216.323 194.207 215.81 194.712 215.156C195.217 214.501 195.546 213.727 195.665 212.908C195.665 212.771 195.701 212.626 195.709 212.467C195.723 212.253 195.723 212.038 195.709 211.824C195.709 211.674 195.709 211.515 195.674 211.352C195.639 211.189 195.63 211.026 195.599 210.859C194.623 205.39 192.96 188.555 192.96 188.555V188.608C192.96 188.608 192.96 187.889 193 186.682C193 186.589 193 186.488 193 186.387V186.127C193 185.858 193.031 185.567 193.048 185.245C193.048 185.056 193.075 184.862 193.088 184.659C193.11 184.364 193.136 184.06 193.163 183.742C193.161 183.723 193.161 183.704 193.163 183.685C193.18 183.485 193.198 183.283 193.216 183.077C193.216 183.077 193.216 183.033 193.216 183.011C193.871 176.51 195.934 166.22 202.452 162.408C205.509 160.614 207.532 160.253 208.865 160.605C210.809 161.117 211.297 163.144 211.403 164.462C211.403 164.55 211.403 164.633 211.403 164.717C211.438 164.964 211.458 165.213 211.464 165.462Z" fill="#144364"/>
<path opacity="0.1" d="M130.715 223.529C130.715 223.577 130.68 223.625 130.667 223.673C130.667 223.625 130.697 223.577 130.719 223.529H130.715Z" fill="black"/>
<path opacity="0.1" d="M147.758 223.525L147.806 223.669H147.481L147.433 223.525H147.758Z" fill="black"/>
<path opacity="0.1" d="M211.464 165.462C211.464 165.55 211.464 165.599 211.464 165.599C211.464 165.599 208.302 174.258 206.793 182.561C206.688 183.149 206.591 183.717 206.503 184.267C206.459 184.549 206.419 184.831 206.38 185.113C206.295 185.701 206.224 186.288 206.169 186.876C206.107 187.497 206.059 188.105 206.032 188.696C205.997 189.388 205.988 190.058 206.006 190.697C206.006 190.842 206.006 190.992 206.006 191.137C206.006 191.433 206.037 191.737 206.054 192.05C206.072 192.362 206.098 192.68 206.125 193.001C206.151 193.323 206.178 193.614 206.208 193.927C206.239 194.24 206.27 194.54 206.305 194.848C206.446 196.095 206.622 197.404 206.824 198.735C208.201 207.712 210.747 217.769 210.747 217.769C210.747 217.769 210.875 218.174 211.029 218.853H210.035C203.846 218.954 197.645 219.131 191.439 219.342L190.321 219.378H189.952C176.757 219.845 163.562 220.466 150.402 220.911L147.187 221.017H146.721C142.146 221.164 137.576 221.277 133.011 221.356H131.801H131.762C132.081 220.901 132.45 220.483 132.861 220.109C133.195 219.794 133.557 219.51 133.943 219.263C136.035 217.961 138.311 216.981 140.695 216.359C141.198 216.225 141.718 216.162 142.239 216.174L145.317 216.235H145.792L150.53 216.328L191.078 217.13H191.148C191.148 217.13 191.267 217.13 191.465 217.064C191.94 216.946 192.401 216.779 192.842 216.566C193.586 216.246 194.237 215.742 194.735 215.102C195.232 214.461 195.56 213.705 195.687 212.904C195.687 212.767 195.723 212.622 195.731 212.463C195.745 212.249 195.745 212.034 195.731 211.819C195.731 211.67 195.731 211.511 195.696 211.348C195.661 211.185 195.652 210.991 195.622 210.806C194.645 205.337 192.982 188.502 192.982 188.502C192.982 188.502 192.982 187.784 193.022 186.576C193.022 186.483 193.022 186.382 193.022 186.281V186.021C193.022 185.752 193.053 185.461 193.07 185.139C193.07 184.95 193.097 184.756 193.11 184.553C193.132 184.258 193.158 183.954 193.185 183.637C193.183 183.617 193.183 183.598 193.185 183.579C193.202 183.379 193.22 183.177 193.238 182.971C193.238 182.971 193.238 182.927 193.238 182.905C193.317 182.094 193.422 181.221 193.554 180.309C194.469 173.928 196.756 165.594 202.457 162.24C205.434 160.478 207.427 160.107 208.764 160.411C210.822 160.883 211.31 163.007 211.403 164.347C211.403 164.435 211.403 164.519 211.403 164.603C211.442 164.887 211.463 165.174 211.464 165.462Z" fill="black"/>
<path d="M130.715 223.529C130.715 223.577 130.68 223.625 130.667 223.673C130.667 223.625 130.697 223.577 130.719 223.529H130.715Z" fill="#3A3768"/>
<path d="M147.758 223.525L147.806 223.669H147.481L147.433 223.525H147.758Z" fill="#3A3768"/>
<path d="M210.338 165.087C210.338 165.087 204.599 180.803 204.876 190.207C205.153 199.612 209.635 217.284 209.635 217.284C209.635 217.284 209.828 217.906 210.035 218.897C203.847 218.999 197.645 219.175 191.439 219.386L190.322 219.422H189.952C176.757 219.889 163.562 220.51 150.402 220.955L147.187 221.061H146.721C142.146 221.208 137.576 221.321 133.011 221.4H131.801H131.762H130.293C130.898 220.383 131.723 219.514 132.707 218.858L132.826 218.774C134.92 217.493 137.195 216.535 139.573 215.931C140.077 215.797 140.596 215.735 141.117 215.746L145.181 215.825H145.656L150.552 215.922L190.027 216.711C190.592 216.605 191.14 216.426 191.659 216.178C191.831 216.099 191.999 216.009 192.16 215.909C192.655 215.623 193.101 215.259 193.48 214.829C194.311 213.882 194.865 212.472 194.496 210.422C193.515 204.953 191.857 188.118 191.857 188.118C191.857 188.118 191.575 167.635 201.375 161.883C205.333 159.561 207.559 159.64 208.803 160.561C208.841 160.585 208.876 160.611 208.909 160.641C210.624 162.024 210.338 165.087 210.338 165.087Z" fill="#144364"/>
<path d="M52.3933 203.649L52.235 205.293L51.2761 215.38C49.7777 215.066 48.2823 214.737 46.7898 214.393L47.9114 205.222L48.2896 202.106L52.3933 203.649Z" fill="#EAECF0"/>
<path d="M24.2437 200.388L48.1971 149.306L144.684 156.846L153.577 200.388H24.2437Z" fill="#F5DDCB"/>
<path d="M24.2437 204.843V200.388H153.577V206.901L24.2437 204.843Z" fill="#EAB28B"/>
<path d="M60.7149 192.927L118.58 194.108C118.708 194.111 118.835 194.083 118.95 194.026C119.065 193.97 119.165 193.886 119.241 193.783C119.318 193.68 119.368 193.56 119.388 193.433C119.409 193.306 119.398 193.176 119.358 193.054L110.337 168.675L71.3634 167.93L59.8353 191.578C59.7708 191.724 59.7438 191.885 59.7569 192.044C59.7699 192.204 59.8225 192.357 59.9099 192.491C59.9973 192.625 60.1167 192.735 60.2573 192.811C60.3979 192.887 60.5552 192.927 60.7149 192.927Z" fill="#D9E1E8"/>
<path opacity="0.15" d="M60.7149 192.927L118.58 194.108C118.708 194.111 118.835 194.083 118.95 194.026C119.065 193.97 119.165 193.886 119.241 193.783C119.318 193.68 119.368 193.56 119.388 193.433C119.409 193.306 119.398 193.176 119.358 193.054L110.337 168.675L71.3634 167.93L59.8353 191.578C59.7708 191.724 59.7438 191.885 59.7569 192.044C59.7699 192.204 59.8225 192.357 59.9099 192.491C59.9973 192.625 60.1167 192.735 60.2573 192.811C60.3979 192.887 60.5552 192.927 60.7149 192.927Z" fill="black"/>
<path d="M60.2488 191.909L118.712 193.142L110.764 169.023C110.636 168.632 110.39 168.291 110.059 168.046C109.729 167.801 109.332 167.665 108.921 167.657L71.3502 166.943L60.2488 191.909Z" fill="#D9E1E8"/>
<path d="M65.0781 186.448L72.0847 171.002C72.2337 170.676 72.4728 170.4 72.7737 170.206C73.0747 170.012 73.4248 169.909 73.7825 169.909H91.1956C91.689 169.909 92.1622 170.105 92.5111 170.455C92.8601 170.804 93.0561 171.278 93.0561 171.773V188.462C93.0558 188.715 93.0043 188.965 92.9049 189.197C92.8055 189.429 92.6601 189.639 92.4775 189.813C92.295 189.987 92.0791 190.122 91.8429 190.211C91.6067 190.299 91.355 190.338 91.1032 190.326L66.6791 189.079C66.3763 189.064 66.0819 188.975 65.8214 188.819C65.5608 188.664 65.3422 188.447 65.1843 188.188C65.0265 187.928 64.9343 187.634 64.9158 187.331C64.8973 187.028 64.953 186.725 65.0781 186.448Z" fill="#454D5B"/>
<path d="M99.4206 184.491L99.7197 175.677C99.7278 175.325 99.873 174.989 100.124 174.742C100.376 174.495 100.714 174.356 101.066 174.355H106.212C106.528 174.357 106.833 174.47 107.075 174.675C107.316 174.879 107.477 175.163 107.531 175.475L109.044 184.24C109.077 184.434 109.068 184.632 109.017 184.821C108.966 185.011 108.875 185.187 108.75 185.337C108.624 185.488 108.467 185.609 108.29 185.693C108.114 185.776 107.92 185.821 107.725 185.822L100.762 185.884C100.582 185.884 100.404 185.847 100.238 185.776C100.072 185.705 99.9225 185.602 99.7974 185.472C99.6723 185.342 99.5745 185.189 99.5098 185.02C99.4451 184.852 99.4148 184.672 99.4206 184.491Z" fill="#D1D9EC"/>
<path d="M31.246 127.165L50.6471 125.543C50.9306 125.506 51.2186 125.561 51.4676 125.702C51.7167 125.843 51.9134 126.061 52.0282 126.323L70.3738 167.93L60.1344 190.961C60.4555 190.238 60.693 195.862 58.3751 190.987L29.2183 130.043C28.8269 129.227 30.3355 127.279 31.246 127.165Z" fill="#4C4C56"/>
<path opacity="0.15" d="M31.246 127.165L50.6471 125.543C50.9306 125.506 51.2186 125.561 51.4676 125.702C51.7167 125.843 51.9134 126.061 52.0282 126.323L70.3738 167.93L60.1344 190.961C60.4555 190.238 60.693 195.862 58.3751 190.987L29.2183 130.043C28.8269 129.227 30.3355 127.279 31.246 127.165Z" fill="black"/>
<path d="M31.246 127.165L51.6324 124.556C51.9159 124.518 52.2038 124.574 52.4529 124.715C52.702 124.856 52.8987 125.074 53.0135 125.336L71.3635 166.943L60.262 191.909L30.2036 129.055C30.1115 128.865 30.0664 128.655 30.072 128.444C30.0777 128.232 30.1339 128.025 30.2361 127.84C30.3382 127.654 30.4833 127.496 30.659 127.379C30.8347 127.262 31.0361 127.188 31.246 127.165Z" fill="#454D5B"/>
<path d="M36.3348 130.091L51.0738 127.791C51.3684 127.744 51.6702 127.799 51.9298 127.946C52.1894 128.093 52.3915 128.324 52.5032 128.602L67.9415 166.44C68.0047 166.595 68.035 166.761 68.0305 166.928C68.026 167.095 67.9866 167.259 67.9151 167.41L60.8469 182.209C60.7509 182.414 60.5983 182.588 60.4071 182.71C60.2158 182.832 59.9938 182.897 59.7671 182.897C59.5404 182.897 59.3184 182.832 59.1272 182.71C58.9359 182.588 58.7833 182.414 58.6873 182.209L35.3364 131.969C35.2475 131.782 35.2035 131.577 35.2081 131.37C35.2127 131.163 35.2657 130.96 35.3628 130.777C35.4599 130.595 35.5985 130.437 35.7673 130.318C35.9361 130.199 36.1305 130.121 36.3348 130.091Z" fill="#8BC3EA"/>
<path d="M36.3348 130.091L51.0738 127.791C51.3684 127.744 51.6702 127.799 51.9298 127.946C52.1894 128.093 52.3915 128.324 52.5032 128.602L67.9415 166.44C68.0047 166.595 68.035 166.761 68.0305 166.928C68.026 167.095 67.9866 167.259 67.9151 167.41L60.8469 182.209C60.7509 182.414 60.5983 182.588 60.4071 182.71C60.2158 182.832 59.9938 182.897 59.7671 182.897C59.5404 182.897 59.3184 182.832 59.1272 182.71C58.9359 182.588 58.7833 182.414 58.6873 182.209L35.3364 131.969C35.2475 131.782 35.2035 131.577 35.2081 131.37C35.2127 131.163 35.2657 130.96 35.3628 130.777C35.4599 130.595 35.5985 130.437 35.7673 130.318C35.9361 130.199 36.1305 130.121 36.3348 130.091Z" fill="url(#paint0_linear)" fill-opacity="0.5"/>
<path d="M193.598 215.35C193.598 215.35 193.295 215.852 192.85 216.672L192.811 216.747C192.415 217.452 191.931 218.377 191.439 219.391L190.321 219.426H189.952C176.757 219.893 163.562 220.515 150.402 220.96L147.187 221.065H146.72C142.146 221.212 137.576 221.325 133.011 221.405H131.801H131.762H130.293L128.252 221.431C126.132 221.452 124.016 221.464 121.905 221.466H119.389C111.639 221.444 103.92 221.273 96.2492 220.872L95.3959 220.823C96.9046 217.535 99.6008 212.146 101.791 210.422C103.485 209.1 115.646 207.633 126.831 206.557L128.01 206.443H128.036L131.159 206.152C135.439 205.76 139.322 205.443 142.093 205.227L142.348 205.205L140.906 200.357L138.817 193.306L139.41 187.382L139.459 186.907H139.393C138.797 186.97 138.195 186.895 137.633 186.686L116.746 185.963H116.367L108.345 185.677C104.043 185.523 100.986 185.408 100.868 185.386C100.741 185.365 100.617 185.331 100.498 185.285C100.311 185.214 100.138 185.109 99.9878 184.976C99.8124 184.826 99.6637 184.647 99.548 184.447H99.46H99.2665L98.1317 184.522L97.5555 184.562C97.5335 184.5 97.516 184.439 97.494 184.381C97.4412 184.209 97.3884 184.046 97.34 183.879H97.0365L93.078 183.795H93.0076C93.0076 183.795 82.7946 184.575 77.4594 182.627C75.5022 181.913 74.2002 180.834 74.3014 179.216C74.3236 178.848 74.4007 178.486 74.5301 178.141C72.8148 174.928 81.1936 169.067 87.5801 170.684C89.3057 171.179 91.124 171.254 92.8845 170.905C93.84 170.698 94.74 170.287 95.5235 169.701C95.6027 169.644 95.673 169.587 95.739 169.53C95.6335 169.464 95.5235 169.406 95.4223 169.353C94.9846 169.122 94.5145 168.959 94.0281 168.869L95.761 168.362H95.7874C95.7874 168.362 101.945 167.798 105.952 167.573H105.978C107.17 167.511 108.178 167.472 108.776 167.489C111.415 167.564 116.556 165.673 116.776 165.092C116.996 164.51 119.345 165.092 119.345 165.092L121.399 164.29C123.453 163.492 124.627 162.403 124.627 161.601C124.627 160.799 126.462 159.931 126.462 159.931C127.288 158.538 128.911 157.044 130.614 155.722C132.087 154.581 133.618 153.563 134.752 152.853C135.192 149.998 135.78 147.168 136.512 144.374C137.29 141.77 139.705 139.839 140.572 139.214L140.888 139.002C140.645 137.904 140.322 136.826 139.921 135.776C139.891 135.688 139.856 135.6 139.815 135.512C139.727 135.305 139.635 135.102 139.542 134.912L139.406 134.648C139.182 134.692 138.966 134.732 138.729 134.763C138 134.87 137.265 134.924 136.529 134.926C133.231 134.938 130.02 133.867 127.387 131.878C124.754 129.888 122.844 127.089 121.949 123.908C121.949 123.908 121.949 123.908 121.949 123.882C121.596 122.589 121.418 121.255 121.421 119.915C121.419 118.629 121.588 117.349 121.922 116.108C121.988 115.843 122.068 115.583 122.151 115.323C122.159 115.293 122.17 115.264 122.182 115.235C122.222 115.116 122.261 114.993 122.305 114.874C121.654 114.973 120.997 115.03 120.339 115.046H119.899C118.643 115.092 117.391 114.884 116.218 114.433C115.934 114.312 115.661 114.164 115.404 113.992C115.391 113.986 115.379 113.977 115.369 113.966C115.035 113.77 114.73 113.528 114.463 113.247C114.952 112.872 115.363 112.403 115.67 111.867C115.977 111.331 116.175 110.74 116.253 110.127C116.372 109.175 116.213 108.113 116.781 107.338C117.071 106.987 117.419 106.689 117.81 106.456C120.15 104.856 122.006 102.662 124.122 100.771C126.237 98.8805 128.797 97.2455 131.643 97.1574C135.461 97.0384 138.821 99.7002 142.604 100.203C143.765 100.357 144.957 100.304 146.091 100.595C147.363 100.993 148.56 101.601 149.632 102.393C150.601 102.945 151.457 103.674 152.157 104.544C152.643 105.297 152.991 106.131 153.186 107.007C153.676 108.853 153.971 110.745 154.066 112.652C154.167 114.649 154.066 116.658 154.277 118.642C154.426 120.364 155.007 122.021 155.966 123.459H156.023C156.19 123.694 156.372 123.917 156.568 124.128C156.194 124.247 155.821 124.353 155.438 124.446C154.802 124.609 154.157 124.737 153.507 124.829C153.209 124.878 152.908 124.903 152.605 124.904C152.396 124.909 152.186 124.89 151.981 124.847L152.368 125.107L153.441 125.83L153.846 126.098L154.659 126.64C154.844 126.098 155.099 125.953 155.394 125.988C155.992 125.424 156.885 126.645 156.885 126.645C157.408 127.65 158.816 128.65 160.061 129.39C160.792 129.822 161.545 130.216 162.317 130.571C178.754 140.386 177.711 155.07 178.679 156.234C179.647 157.397 179.708 161.61 179.708 161.61C179.708 161.61 182.132 175.929 183.227 177.167C184.322 178.405 183.297 178.837 184.252 180.221C185.206 181.605 184.986 185.307 184.986 185.307C184.986 185.307 185.646 194.028 187.995 195.919C190.101 197.616 192.916 211.89 193.475 214.807L193.598 215.35Z" fill="url(#paint1_linear)"/>
<path d="M97.2609 169.411C97.2609 169.411 94.9781 173.011 88.5125 171.354C82.0469 169.697 73.4921 175.964 75.9332 179.058C78.3743 182.151 94.1161 178.176 94.1161 178.176L100.155 176.951L99.7592 171.914L97.2609 169.411Z" fill="#EAB28B"/>
<path opacity="0.1" d="M97.2609 169.411C97.2609 169.411 94.9781 173.011 88.5125 171.354C82.0469 169.697 73.4921 175.964 75.9332 179.058C78.3743 182.151 94.1161 178.176 94.1161 178.176L100.155 176.951L99.7592 171.914L97.2609 169.411Z" fill="black"/>
<path d="M99.3633 169.217L96.5616 169.071L94.8374 169.574C94.8374 169.574 100.3 170.367 98.7959 177.784L104.685 177.427L99.3633 169.217Z" fill="#F8F9FA"/>
<path opacity="0.1" d="M99.3633 169.217L96.5616 169.071L94.8374 169.574C94.8374 169.574 100.3 170.367 98.7959 177.784L104.685 177.427L99.3633 169.217Z" fill="black"/>
<path d="M136.45 152.629C136.45 152.629 128.762 157.036 126.602 160.698C126.602 160.698 124.808 161.579 124.808 162.355C124.808 163.131 123.655 164.224 121.645 164.999L119.631 165.792C119.631 165.792 117.331 165.215 117.115 165.792C116.9 166.37 111.872 168.238 109.282 168.168C106.691 168.097 96.5615 169.049 96.5615 169.049C98.4166 169.893 99.9313 171.342 100.858 173.16C101.785 174.978 102.069 177.057 101.664 179.058L125.6 178.053L134.651 176.034L139.973 170.706L136.45 152.629Z" fill="#4C4C78"/>
<path opacity="0.1" d="M136.45 152.629C136.45 152.629 128.762 157.036 126.602 160.698C126.602 160.698 124.808 161.579 124.808 162.355C124.808 163.131 123.655 164.224 121.645 164.999L119.631 165.792C119.631 165.792 117.331 165.215 117.115 165.792C116.9 166.37 111.872 168.238 109.282 168.168C106.691 168.097 96.5615 169.049 96.5615 169.049C98.4166 169.893 99.9313 171.342 100.858 173.16C101.785 174.978 102.069 177.057 101.664 179.058L125.6 178.053L134.651 176.034L139.973 170.706L136.45 152.629Z" fill="black"/>
<path d="M101.18 184.491L97.7932 184.425L93.8347 184.342C93.8347 184.342 75.1417 185.783 75.5067 179.794C75.8718 173.804 90.25 171.702 92.2513 173.421C93.7687 174.721 97.2786 175.77 98.8796 176.197C99.3898 176.334 99.7021 176.409 99.7021 176.409L101.18 184.491Z" fill="#EAB28B"/>
<path opacity="0.1" d="M101.18 184.491L97.7931 184.425C96.4428 179.776 98.0087 177.215 98.8971 176.211C99.4073 176.347 99.7196 176.422 99.7196 176.422L101.18 184.491Z" fill="black"/>
<path d="M103.463 184.747L99.9438 184.994L98.2725 185.108C95.9721 178.339 99.6887 175.673 99.6887 175.673H100.788L102.587 175.889L103.463 184.747Z" fill="#F8F9FA"/>
<path d="M146.083 139.813L141.913 147.746C141.913 147.746 141.275 139.712 139.419 135.926C138.944 134.956 138.39 134.269 137.743 134.062C135.984 133.507 146.1 122.396 146.1 122.396C146.439 122.467 148.374 123.719 150.745 125.336C153.353 127.099 156.494 129.249 158.605 130.624C162.612 133.185 146.083 139.813 146.083 139.813Z" fill="#EAB28B"/>
<path d="M140.734 139.963C140.734 139.963 137.383 142.118 136.45 145.287C135.518 148.455 134.651 154.145 134.651 154.145C134.651 154.145 136.164 167.754 136.952 168.401C137.739 169.049 140.734 182.658 140.734 182.658L143.637 180.715L139.828 163.576C139.828 163.576 142.362 141.554 140.734 139.963Z" fill="#4C4C78"/>
<path opacity="0.1" d="M140.734 139.963C140.734 139.963 137.383 142.118 136.45 145.287C135.518 148.455 134.651 154.145 134.651 154.145C134.651 154.145 136.164 167.754 136.952 168.401C137.739 169.049 140.734 182.658 140.734 182.658L143.637 180.715L139.828 163.576C139.828 163.576 142.362 141.554 140.734 139.963Z" fill="black"/>
<path d="M155.319 170.323H138.566L141.28 143.841H155.319V170.323Z" fill="#F8F9FA"/>
<path d="M116.503 223.529H116.705L116.328 223.674L116.503 223.529Z" fill="#67647E"/>
<path d="M148.022 211.467L144.746 212.727L144.306 212.89L132.509 217.434L128.01 219.166L121.887 221.524H119.389C111.639 221.502 103.92 221.33 96.2493 220.929C97.7359 217.663 100.335 212.436 102.455 210.749C104.109 209.426 115.941 207.999 126.862 206.923C128.225 206.791 129.571 206.663 130.882 206.544L131.194 206.513C135.531 206.117 139.454 205.795 142.19 205.575L142.63 205.539L146.07 205.275L146.43 204.914L146.87 206.8L147.235 208.307L148.022 211.467Z" fill="#4C4C78"/>
<path opacity="0.1" d="M116.503 223.529H116.705L116.328 223.674L116.503 223.529Z" fill="black"/>
<path opacity="0.1" d="M148.022 211.467L144.746 212.727L144.306 212.89L132.509 217.434L128.01 219.166L121.887 221.524H119.389C111.639 221.502 103.92 221.33 96.2493 220.929C97.7359 217.663 100.335 212.436 102.455 210.749C104.109 209.426 115.941 207.999 126.862 206.923C128.225 206.791 129.571 206.663 130.882 206.544L131.194 206.513C135.531 206.117 139.454 205.795 142.19 205.575L142.63 205.539L146.07 205.275L146.43 204.914L146.87 206.8L147.235 208.307L148.022 211.467Z" fill="black"/>
<path d="M116.503 223.529H116.705L116.328 223.674L116.503 223.529Z" fill="#67647E"/>
<path d="M130.715 223.529C130.715 223.577 130.68 223.625 130.667 223.673C130.667 223.625 130.697 223.577 130.719 223.529H130.715Z" fill="#67647E"/>
<path d="M147.806 223.669H147.481L147.433 223.525H147.758L147.806 223.669Z" fill="#67647E"/>
<path d="M150.824 206.862L150.552 215.931V216.42V216.469L150.415 220.96L147.2 221.065H146.734C142.159 221.212 137.59 221.325 133.024 221.405H131.815H131.775H130.306L128.265 221.431C126.145 221.452 124.029 221.464 121.918 221.466H119.389C121.676 220.047 124.636 218.483 127.821 216.918C129.25 216.213 130.733 215.513 132.219 214.821C136.178 212.979 140.185 211.238 143.453 209.85L143.87 209.673C145.137 209.136 146.285 208.655 147.266 208.25C149.386 207.368 150.732 206.84 150.824 206.804V206.862Z" fill="#4C4C78"/>
<path opacity="0.1" d="M121.448 169.587C122.27 171.306 123.119 173.06 124.478 174.399C124.694 174.611 125.067 174.805 125.261 174.571C125.322 174.474 125.351 174.36 125.345 174.245C125.303 173.435 125.028 172.655 124.553 171.998C124.113 171.319 123.594 170.702 123.203 169.997C122.811 169.292 122.362 167.934 121.483 167.749C120.352 167.511 121.197 169.067 121.448 169.587Z" fill="black"/>
<path opacity="0.1" d="M150.727 125.323C150.666 125.543 150.6 125.763 150.529 125.975C149.718 128.467 148.262 130.699 146.311 132.444C144.359 134.19 141.982 135.386 139.419 135.913C138.944 134.943 138.39 134.256 137.743 134.049C135.984 133.493 146.1 122.383 146.1 122.383C146.421 122.454 148.357 123.727 150.727 125.323Z" fill="black"/>
<path d="M151.255 121.088C151.255 124.021 150.387 126.889 148.76 129.329C147.133 131.768 144.821 133.67 142.116 134.792C139.411 135.915 136.434 136.209 133.562 135.637C130.69 135.064 128.052 133.651 125.982 131.577C123.911 129.502 122.501 126.859 121.93 123.982C121.359 121.104 121.652 118.121 122.772 115.411C123.893 112.7 125.791 110.383 128.225 108.753C130.66 107.123 133.522 106.253 136.45 106.253C138.396 106.249 140.323 106.63 142.121 107.374C143.919 108.118 145.553 109.211 146.928 110.589C148.304 111.967 149.394 113.604 150.137 115.406C150.879 117.208 151.259 119.138 151.255 121.088Z" fill="#EAB28B"/>
<path d="M142.129 143.123C142.129 143.123 139.05 146.869 139.542 149.319H143.277L146.008 146.234L142.129 143.123Z" fill="#F89079"/>
<path opacity="0.1" d="M153.081 127.306L141.337 143.484C141.337 143.484 144.354 147.807 145.792 148.023C147.231 148.239 155.434 128.888 155.434 128.888L153.081 127.306Z" fill="black"/>
<path d="M153.23 127.015L141.482 143.215C141.482 143.215 144.499 147.534 145.938 147.75C147.376 147.966 155.579 128.619 155.579 128.619L153.23 127.015Z" fill="#F8F9FA"/>
<path d="M139.973 147.737C139.973 147.737 139.397 156.807 138.821 158.609C138.245 160.411 138.821 176.969 138.821 176.969L144.213 174.739L143.277 149.319L139.973 147.737Z" fill="#F89079"/>
<path opacity="0.1" d="M147.758 223.525L147.806 223.669H147.481L147.433 223.525H147.758Z" fill="black"/>
<path opacity="0.1" d="M191.936 215.715C191.936 215.715 191.835 215.883 191.667 216.156C191.5 216.429 191.32 216.769 191.087 217.2C191.075 217.217 191.065 217.235 191.056 217.253C190.731 217.857 190.344 218.598 189.952 219.404C176.757 219.871 163.562 220.493 150.402 220.938L147.187 221.043H146.721L145.34 216.372V216.323L145.194 215.83L144.315 212.895L143.435 209.911L142.525 206.729L142.19 205.575L142.102 205.284L140.668 200.392L138.724 193.751L139.353 187.413L139.397 186.933L139.965 181.257L140.044 179.573L140.088 178.692V178.441L140.185 176.396L140.475 170.314L140.624 167.203L140.651 166.731L140.95 160.486L141.799 157.935L142.239 156.666L143.215 153.717L143.426 152.99C143.734 151.884 144.354 149.698 144.935 147.596L144.988 147.415L145.027 147.279L145.441 145.785L145.955 143.867C146.149 143.132 146.276 142.607 146.307 142.426C146.356 142.113 147.187 140.73 148.278 138.901C150.477 135.256 153.784 129.893 154.163 128.095C154.164 128.08 154.164 128.065 154.163 128.051C154.185 127.941 154.216 127.834 154.255 127.729C154.435 127.191 154.695 127.046 154.968 127.081C155.092 127.101 155.21 127.148 155.315 127.218C155.58 127.397 155.812 127.62 156.001 127.879C156.516 128.87 157.892 129.862 159.111 130.598L159.348 130.735L159.489 130.818C160.501 131.396 161.319 131.766 161.319 131.766C177.417 141.488 176.414 156.035 177.346 157.186C178.279 158.336 178.354 162.518 178.354 162.518C178.354 162.518 180.724 176.704 181.802 177.943C182.88 179.181 181.877 179.6 182.809 180.97C183.742 182.341 183.526 185.963 183.526 185.963C183.526 185.963 184.173 194.601 186.473 196.474C188.773 198.347 191.936 215.715 191.936 215.715Z" fill="black"/>
<path d="M192.367 215.574L192.173 215.909C192.019 216.182 191.773 216.614 191.478 217.156L191.447 217.218C191.113 217.839 190.717 218.593 190.326 219.422H189.956C176.761 219.889 163.566 220.51 150.406 220.955L147.191 221.061L145.814 216.372V216.323L145.669 215.83L144.759 212.745L143.879 209.748L142.999 206.756L142.652 205.557L141.148 200.41L139.16 193.627L139.709 188.114L139.784 187.378L140.391 181.116L140.624 176.233L140.91 170.332L140.985 168.785L141.069 166.996L141.104 166.242L141.39 160.345L142.239 157.798L142.604 156.701L143.457 154.123L143.637 153.576C143.637 153.576 144.46 150.681 145.256 147.812C145.287 147.706 145.317 147.6 145.344 147.494C145.414 147.248 145.48 147.001 145.55 146.758C145.621 146.512 145.687 146.269 145.748 146.027C145.973 145.225 146.188 144.476 146.338 143.859C146.553 143.052 146.698 142.466 146.729 142.277C146.778 141.964 147.609 140.54 148.739 138.689C150.82 135.243 153.855 130.316 154.497 128.271C154.531 128.165 154.561 128.058 154.585 127.949C154.624 127.624 154.757 127.318 154.967 127.068C155.557 126.499 156.432 127.72 156.432 127.72C156.947 128.712 158.323 129.708 159.542 130.439C160.253 130.868 160.988 131.257 161.741 131.607C177.839 141.329 176.836 155.877 177.768 157.031C178.701 158.186 178.776 162.359 178.776 162.359C178.776 162.359 181.146 176.546 182.224 177.784C183.302 179.022 182.299 179.441 183.231 180.807C184.164 182.173 183.948 185.849 183.948 185.849C183.948 185.849 184.595 194.491 186.895 196.364C189.195 198.237 192.367 215.574 192.367 215.574Z" fill="#4C4C78"/>
<path opacity="0.1" d="M159.542 130.721C157.963 133.022 155.39 137.067 154.703 139.976C154.703 139.976 152.188 142.572 151.251 142.426C150.314 142.281 152.13 144.37 152.13 144.37L142.247 158.093L143.65 153.876C143.65 153.876 146.597 143.506 146.729 142.572C146.861 141.638 154.017 130.933 154.585 128.24C155.025 126.085 156.432 128.024 156.432 128.024C156.942 128.994 158.319 129.994 159.542 130.721Z" fill="black"/>
<path d="M159.542 130.435C157.963 132.731 155.39 136.781 154.703 139.668C154.703 139.668 152.188 142.259 151.251 142.118C150.314 141.977 152.13 144.061 152.13 144.061L142.247 157.785L143.65 153.567C143.65 153.567 146.597 143.198 146.729 142.259C146.861 141.32 154.017 130.624 154.585 127.932C155.025 125.772 156.432 127.716 156.432 127.716C156.942 128.707 158.319 129.699 159.542 130.435Z" fill="#4C4C78"/>
<path opacity="0.1" d="M172.816 158.869C172.891 162.016 168.29 166.312 168.075 166.564C167.859 166.815 153.771 178.463 153.771 178.463L143.655 186.237C142.515 187.179 141.151 187.81 139.696 188.07L140.387 181.116L141.069 167.013C142.648 165.25 144.178 163.399 144.213 162.809C144.284 161.588 146.852 160.288 146.852 160.288C146.852 160.288 148.651 158.776 148.361 157.913C148.071 157.049 149.316 152.911 149.316 152.911C149.962 141.17 162.036 140.02 162.036 140.02C162.036 140.02 167.859 142.325 171.954 144.771C176.049 147.217 172.746 155.727 172.816 158.869Z" fill="black"/>
<path opacity="0.1" d="M103.463 184.747L99.944 184.994C98.4573 182.46 100.503 175.673 100.503 175.673H100.788L102.587 175.889L103.463 184.747Z" fill="black"/>
<path d="M162.036 139.306C162.036 139.306 149.962 140.461 149.316 152.197C149.316 152.197 148.093 156.304 148.379 157.168C148.665 158.032 146.87 159.543 146.87 159.543C146.87 159.543 144.284 160.839 144.231 162.064C144.178 163.289 137.633 169.97 137.633 169.97C137.633 169.97 134.906 173.082 128.582 173.408C122.257 173.734 119.31 175.673 119.31 175.673C119.31 175.673 116.231 173.514 113.988 174.161C111.745 174.809 100.837 175.673 100.837 175.673C100.837 175.673 97.9382 185.298 101.554 185.902C101.994 185.972 137.576 187.197 137.576 187.197C137.576 187.197 140.009 188.348 143.672 185.54C147.336 182.733 153.789 177.762 153.789 177.762C153.789 177.762 167.863 166.097 168.092 165.863C168.321 165.629 172.93 161.311 172.834 158.168C172.737 155.026 176.071 146.525 171.954 144.066C167.837 141.607 162.036 139.306 162.036 139.306Z" fill="#4C4C78"/>
<path opacity="0.1" d="M151.255 121.088C151.257 122.648 151.012 124.2 150.529 125.684C150.329 125.447 150.147 125.195 149.984 124.93C149.298 123.873 148.61 122.815 147.921 121.757C147.386 120.805 146.674 119.965 145.823 119.281C144.944 118.655 143.694 118.399 142.744 118.955C141.909 119.448 141.5 120.457 141.425 121.427C141.399 122.4 141.424 123.374 141.5 124.344C141.535 124.716 141.44 125.088 141.231 125.398C140.919 125.678 140.516 125.835 140.097 125.838L138.777 126.019C138.658 126.061 138.531 126.079 138.405 126.071C138.279 126.063 138.156 126.03 138.043 125.974C137.93 125.918 137.829 125.839 137.747 125.743C137.664 125.647 137.602 125.536 137.563 125.415C136.468 123.428 135.711 120.96 133.657 120.003C132.391 119.413 130.719 119.453 129.906 118.316C129.351 117.54 129.426 116.487 129.589 115.543C129.768 114.48 130.025 113.431 130.359 112.406C130.592 111.683 131.111 110.242 129.958 110.096C129.175 109.995 128.093 110.828 127.698 111.419C127.302 112.009 127.205 112.798 126.923 113.472C126.384 114.633 125.413 115.536 124.218 115.989C123.62 116.235 122.994 116.405 122.354 116.495C123.435 113.129 125.682 110.261 128.687 108.408C131.693 106.555 135.261 105.839 138.748 106.388C142.234 106.938 145.41 108.718 147.702 111.406C149.995 114.095 151.253 117.516 151.251 121.052L151.255 121.088Z" fill="black"/>
<path d="M127.702 111.044C127.302 111.657 127.209 112.419 126.928 113.093C126.389 114.252 125.42 115.155 124.227 115.61C123.042 116.054 121.785 116.278 120.52 116.271C118.47 116.332 116.183 116.019 114.863 114.446C115.344 114.073 115.747 113.608 116.049 113.079C116.351 112.55 116.546 111.966 116.623 111.361C116.737 110.418 116.583 109.365 117.142 108.594C117.426 108.256 117.765 107.969 118.144 107.743C120.44 106.157 122.253 103.979 124.329 102.111C126.405 100.242 128.907 98.6161 131.696 98.528C135.43 98.4134 138.733 101.049 142.428 101.547C143.563 101.701 144.733 101.648 145.841 101.935C147.088 102.323 148.261 102.919 149.311 103.697C150.261 104.249 151.101 104.972 151.788 105.83C152.262 106.58 152.602 107.406 152.795 108.272C153.281 110.1 153.576 111.975 153.674 113.864C153.776 115.839 153.674 117.831 153.886 119.796C154.097 121.762 154.721 123.763 156.063 125.217C155.084 125.527 154.083 125.758 153.067 125.909C152.433 126.06 151.767 126.007 151.163 125.759C150.674 125.448 150.274 125.015 150.002 124.503L147.939 121.33C147.403 120.378 146.691 119.537 145.841 118.853C144.961 118.227 143.712 117.972 142.762 118.527C141.926 119.021 141.522 120.03 141.443 120.999C141.417 121.973 141.442 122.946 141.517 123.917C141.553 124.289 141.458 124.661 141.249 124.97C140.935 125.251 140.53 125.408 140.11 125.411L138.79 125.592C138.671 125.634 138.545 125.651 138.419 125.643C138.293 125.636 138.169 125.603 138.056 125.546C137.943 125.49 137.842 125.412 137.76 125.316C137.677 125.22 137.615 125.108 137.576 124.988C136.481 122.996 135.725 120.532 133.671 119.576C132.404 118.985 130.733 119.025 129.919 117.888C129.365 117.112 129.439 116.059 129.602 115.116C129.781 114.053 130.039 113.004 130.372 111.978C130.605 111.255 131.124 109.814 129.972 109.665C129.18 109.581 128.098 110.414 127.702 111.044Z" fill="#472727"/>
<path opacity="0.1" d="M161.191 145.89C162.304 145.736 163.474 145.635 164.516 146.062C161.803 144.947 157.387 145.375 154.915 146.908C155.139 147.424 160.329 146.009 161.191 145.89Z" fill="black"/>
<path opacity="0.1" d="M162.489 149.504C165.194 149.685 167.987 150.064 170.551 149.182C168.404 148.442 166.042 148.909 163.782 148.684C161.978 148.504 160.144 147.878 158.385 148.336C157.65 148.526 154.945 149.773 155.13 150.685C157.44 149.661 159.975 149.254 162.489 149.504Z" fill="black"/>
<path opacity="0.1" d="M155.324 155.427C155.89 155.367 156.462 155.427 157.004 155.603C159.033 156.082 161.112 156.311 163.197 156.286C164.789 156.286 166.504 156.044 167.666 154.964L155.324 155.427Z" fill="black"/>
<path opacity="0.1" d="M146.611 169.217C148.502 170.087 150.582 170.466 152.658 170.318C154.726 170.166 156.769 169.773 158.746 169.146C159.625 168.886 160.584 168.56 161.099 167.793L146.611 169.217Z" fill="black"/>
<path opacity="0.1" d="M166.082 171.156C170.198 173.514 174.781 174.936 179.506 175.32C177.122 174.363 174.721 173.456 172.302 172.601C169.827 171.733 167.291 171.052 164.714 170.565C165.204 170.671 165.669 170.872 166.082 171.156Z" fill="black"/>
<path opacity="0.1" d="M172.728 168.631C173.555 168.769 174.394 168.814 175.231 168.767C175.67 168.767 176.194 168.705 176.453 168.326C174.566 168.406 172.706 167.921 170.863 167.502C170.34 167.379 169.398 167.088 168.958 167.401C169.794 168 171.672 168.419 172.728 168.631Z" fill="black"/>
<path opacity="0.1" d="M184.072 207.999C185.061 209.7 186.064 211.418 187.432 212.846C188.222 213.625 189.064 214.349 189.952 215.015C188.32 210.846 186.662 206.641 184.05 202.997C183.39 202.08 182.405 200.767 181.204 200.599C180.861 201.617 181.727 203.42 182.145 204.376C182.719 205.619 183.362 206.828 184.072 207.999Z" fill="black"/>
<path opacity="0.1" d="M135.984 176.823C135.909 177.528 135.852 178.308 136.261 178.886C136.464 179.17 136.759 179.375 137.097 179.463C136.886 179.41 136.657 177.339 136.604 177.057C136.508 176.479 136.604 175.4 136.195 174.972C136.09 175.58 136.05 176.206 135.984 176.823Z" fill="black"/>
<path opacity="0.1" d="M138.271 176.012C138.417 176.633 138.687 177.218 139.065 177.731C139.443 178.244 139.921 178.674 140.471 178.996C139.701 178.044 139.45 176.792 138.782 175.748C138.566 175.413 138.315 174.933 137.902 174.867C138.006 175.254 138.129 175.637 138.271 176.012Z" fill="black"/>
<path opacity="0.1" d="M136.336 163.32C135.687 163.707 134.965 163.955 134.216 164.05C133.467 164.145 132.706 164.084 131.982 163.871C131.652 163.774 130.882 163.43 131.067 162.946C131.252 162.461 132.144 162.796 132.509 162.84L134.423 163.082C134.775 163.126 136.05 163.488 136.336 163.32Z" fill="black"/>
<path opacity="0.1" d="M129.862 166.458C130.763 166.343 131.573 166.969 132.417 167.308C133.351 167.621 134.337 167.752 135.32 167.696C135.813 167.696 136.371 167.657 136.675 167.256C134.383 166.731 132.241 166.154 129.862 166.458Z" fill="black"/>
<path d="M140.734 139.958H140.88L141.957 143.841L140.734 145.146V139.958Z" fill="#F8F9FA"/>
<g opacity="0.1">
<path opacity="0.1" d="M116.904 109.175C116.77 109.806 116.704 110.448 116.706 111.092C116.761 110.89 116.801 110.684 116.825 110.475C116.878 110.052 116.873 109.607 116.904 109.175Z" fill="black"/>
<path opacity="0.1" d="M130.024 109.678C130.131 109.684 130.235 109.712 130.33 109.761C130.426 109.81 130.51 109.877 130.578 109.96C130.645 110.043 130.695 110.139 130.724 110.242C130.753 110.345 130.76 110.453 130.746 110.559C130.952 109.828 131.067 108.929 130.169 108.796C129.387 108.699 128.305 109.532 127.909 110.14C127.513 110.749 127.416 111.52 127.135 112.194C126.597 113.354 125.628 114.257 124.434 114.711C123.249 115.155 121.992 115.379 120.726 115.372C118.861 115.429 116.799 115.169 115.448 113.935C115.287 114.107 115.112 114.266 114.925 114.411C116.244 115.984 118.531 116.297 120.585 116.235C121.85 116.243 123.105 116.019 124.289 115.574C125.483 115.12 126.453 114.217 126.994 113.058C127.275 112.384 127.363 111.621 127.764 111.009C128.164 110.396 129.241 109.581 130.024 109.678Z" fill="black"/>
<path opacity="0.1" d="M153.256 125.041C152.622 125.192 151.956 125.139 151.352 124.891C150.864 124.578 150.465 124.146 150.191 123.635C149.505 122.577 148.817 121.519 148.128 120.462C147.595 119.509 146.884 118.668 146.034 117.985C145.155 117.355 143.901 117.104 142.956 117.659C142.115 118.152 141.711 119.162 141.614 120.131C141.614 120.171 141.614 120.211 141.614 120.25C141.773 119.539 142.204 118.919 142.815 118.523C143.752 117.967 145.014 118.223 145.894 118.849C146.743 119.534 147.455 120.375 147.992 121.326C148.678 122.383 149.365 123.441 150.054 124.499C150.326 125.012 150.726 125.445 151.216 125.755C151.818 126.003 152.482 126.055 153.116 125.904C154.132 125.753 155.135 125.522 156.115 125.213C155.922 125.003 155.743 124.781 155.579 124.547C154.816 124.76 154.04 124.925 153.256 125.041Z" fill="black"/>
<path opacity="0.1" d="M141.429 124.102C141.115 124.379 140.713 124.536 140.295 124.543L138.975 124.723C138.856 124.765 138.73 124.783 138.603 124.775C138.477 124.767 138.354 124.734 138.241 124.678C138.128 124.622 138.027 124.543 137.945 124.448C137.862 124.352 137.8 124.24 137.761 124.12C136.666 122.128 135.909 119.664 133.855 118.708C132.589 118.117 130.922 118.157 130.108 117.02C129.695 116.326 129.555 115.502 129.717 114.711C129.695 114.847 129.664 114.979 129.642 115.112C129.483 116.055 129.404 117.108 129.963 117.884C130.777 119.021 132.448 118.981 133.71 119.572C135.769 120.528 136.525 122.991 137.62 124.983C137.72 125.234 137.897 125.445 138.126 125.587C138.355 125.664 138.6 125.674 138.834 125.618L140.154 125.437C140.573 125.433 140.976 125.277 141.289 124.997C141.499 124.688 141.594 124.315 141.557 123.943C141.518 123.999 141.476 124.052 141.429 124.102Z" fill="black"/>
</g>
<path d="M323.473 228.02L320.654 227.627V185.924L321.23 186.1L322.989 186.642V188.03V189.075V190.657L323.011 192.468L323.051 196.197V196.571V197.069V198.127V198.766V200.313V201.282L323.262 220.061V220.563L323.337 227.174V227.275L323.473 228.02Z" fill="#EAECF0"/>
<path d="M325.057 228.24L323.486 228.02V227.266V227.165L323.412 220.554V220.052L323.2 201.273V200.304V198.757V198.118V197.06V196.562V196.188L323.161 192.459L323.139 190.648V189.066V188.022V186.633H324.832V188.167V189.216V190.423V192.023L324.867 196.051V196.933V197.854V198.497V199.286V200.313L325.03 220.021V220.528L325.083 227.081V227.187L325.057 228.24Z" fill="#D3DAE1"/>
<path d="M496.153 180.754V216.751C495.317 217.339 494.461 217.916 493.584 218.483L493.549 188.515V185.333L496.153 180.754Z" fill="#EAECF0"/>
<path d="M497.983 180.234V215.358C497.384 215.839 496.773 216.301 496.153 216.755V180.754L497.983 180.234Z" fill="#D3DAE1"/>
<path d="M457.139 231.246C456.057 231.466 454.971 231.686 453.885 231.876L453.845 199.304V197.893L456.981 196.571V199.559L457.139 231.246Z" fill="#EAECF0"/>
<path d="M459.207 195.54V230.796C458.52 230.946 457.834 231.087 457.148 231.237L457.003 199.564V196.576L457.21 196.479L459.207 195.54Z" fill="#D3DAE1"/>
<path d="M272.782 221.488L269.857 221.193L269.483 184.465V183.416V182.715H272.355V183.663V184.712L272.782 221.488Z" fill="#EAECF0"/>
<path d="M274.959 221.722L272.76 221.489L272.32 184.712V183.663V182.715H274.541V183.857V184.906L274.959 221.722Z" fill="#D3DAE1"/>
<path opacity="0.1" d="M457.188 196.483L459.198 195.536V199.982L457.24 200.639L457.188 196.483Z" fill="black"/>
<path opacity="0.1" d="M497.978 180.225V187.03L496.153 187.643L493.544 188.511L493.54 185.329L496.153 180.75L497.978 180.225Z" fill="black"/>
<path d="M497.978 167.145V185.985L457.24 199.59L456.977 179.441L497.978 167.145Z" fill="#EAB28B"/>
<path d="M268.942 165.837L322.479 155.63L497.978 167.145L456.976 179.441L268.942 165.837Z" fill="#F5DDCB"/>
<path opacity="0.1" d="M274.559 182.715L274.576 184.901L272.36 184.707L269.479 184.461L269.466 182.715H274.559Z" fill="black"/>
<path opacity="0.1" d="M324.722 189.22L323.029 189.07L320.654 188.868V185.924L323.003 186.638H324.7L324.722 189.22Z" fill="black"/>
<path d="M268.942 165.837V183.368L457.24 199.59L456.976 179.441L268.942 165.837Z" fill="#EAB28B"/>
<path d="M418.24 186.682H393.645V177.74L418.24 179.476V186.682Z" fill="#EAB28B"/>
<path opacity="0.1" d="M418.24 186.682H393.645V177.74L418.24 179.476V186.682Z" fill="black"/>
<path opacity="0.1" d="M360.608 175.779V189.908L455.019 197.104V182.059L418.196 179.965L414.537 183.235L399.521 182.191L394.168 178.264L360.608 175.779Z" fill="black"/>
<path d="M360.085 175.254V189.388L454.496 196.58V181.534L417.673 179.441L414.018 182.715L398.997 181.667L393.645 177.74L360.085 175.254Z" fill="white"/>
<path d="M301.846 171.46L324.177 173.033L323.917 180.142H309.337L299.586 176.303L301.846 171.46Z" fill="#EAB28B"/>
<path opacity="0.1" d="M301.846 171.46L324.177 173.033L323.917 180.142H309.337L299.586 176.303L301.846 171.46Z" fill="black"/>
<path opacity="0.1" d="M272.078 169.499V182.191L357.736 188.995V175.519L324.7 173.553L321.173 176.171L307.854 175.387L302.37 171.984L272.078 169.499Z" fill="black"/>
<path d="M271.555 168.974V181.667L357.213 188.471V174.994L324.177 173.033L320.654 175.647L307.331 174.862L301.846 171.46L271.555 168.974Z" fill="white"/>
<path opacity="0.1" d="M455.028 169.023L467.035 169.812L447.142 175.779L437.008 175.047L455.028 169.023Z" fill="black"/>
<path d="M455.028 168.503L467.035 169.287L447.142 175.254L437.008 174.523L455.028 168.503Z" fill="white"/>
<path d="M453.594 169.856C454.069 169.649 454.575 170.032 455.081 170.129C455.367 170.186 455.666 170.129 455.961 170.186C456.55 170.266 457.131 170.658 457.694 170.46L453.594 169.856Z" fill="#9BAEC8"/>
<path d="M452.974 170.213C453.445 170.01 453.95 170.393 454.456 170.49C454.746 170.543 455.046 170.49 455.336 170.543C455.921 170.623 456.506 171.019 457.069 170.821L452.974 170.213Z" fill="#9BAEC8"/>
<path d="M451.549 170.935C452.02 170.733 452.526 171.112 453.031 171.209C453.322 171.266 453.616 171.209 453.911 171.266C454.5 171.345 455.085 171.742 455.644 171.539L451.549 170.935Z" fill="#9BAEC8"/>
<path d="M448 172.059C448.471 171.856 448.976 172.235 449.482 172.332C449.773 172.389 450.067 172.332 450.362 172.389C450.951 172.469 451.536 172.865 452.095 172.663L448 172.059Z" fill="#9BAEC8"/>
<path d="M445.85 172.724C446.143 172.059 446.899 172.943 447.447 173.072C447.763 173.15 447.998 172.92 448.318 172.998C448.932 173.057 449.775 173.969 450.152 173.28L445.85 172.724Z" fill="#9BAEC8"/>
<path opacity="0.1" d="M374.015 162.421L400.787 164.179L395.083 172.39L365.649 169.239L374.015 162.421Z" fill="black"/>
<path d="M373.491 161.897L400.264 163.651L394.559 171.865L365.121 168.714L373.491 161.897Z" fill="#282C37"/>
<path d="M374.67 162.5L398.021 163.933L393.046 170.623L367.373 168.053L374.67 162.5Z" fill="#454D5B"/>
<path d="M359.012 229.593C359.012 229.716 359.012 229.844 358.99 229.968C358.968 230.091 358.99 230.188 358.955 230.298C358.861 231.075 358.646 231.832 358.317 232.541C347.255 231.294 336.167 229.796 325.065 228.258L323.495 228.037L320.676 227.645L318.301 227.315C315.701 227.249 313.109 227.006 310.542 226.587C308.925 226.348 307.324 226.009 305.748 225.574C298.71 224.609 291.633 223.679 284.578 222.833L283.659 222.722C283.826 221.973 283.967 221.519 283.967 221.519C283.967 221.519 285.48 215.561 286.738 208.902C287.015 207.456 287.279 205.985 287.508 204.526C287.692 203.358 287.86 202.203 288 201.093C288.08 200.48 288.146 199.881 288.203 199.295C288.233 199.004 288.26 198.713 288.282 198.413C288.304 198.114 288.33 197.787 288.352 197.483C288.374 197.179 288.383 196.91 288.396 196.633V196.219C288.396 195.624 288.396 195.002 288.374 194.363C288.152 191.18 287.651 188.023 286.879 184.928C286.756 184.399 286.628 183.87 286.496 183.354C286.457 183.187 286.413 183.024 286.369 182.861C284.948 177.348 283.29 172.844 283.29 172.844C283.288 172.819 283.288 172.794 283.29 172.769C283.292 172.751 283.292 172.733 283.29 172.716C283.292 172.679 283.292 172.642 283.29 172.606C283.29 172.465 283.29 172.249 283.29 171.989C283.29 171.936 283.29 171.879 283.29 171.821C283.322 171.359 283.401 170.901 283.527 170.455C283.575 170.297 283.631 170.141 283.694 169.988C283.851 169.545 284.114 169.146 284.458 168.827C284.803 168.507 285.22 168.277 285.674 168.155C286.918 167.833 288.801 168.155 291.642 169.843C292.105 170.11 292.546 170.414 292.962 170.75C293.173 170.918 293.402 171.094 293.577 171.284C296.832 174.32 298.565 179.331 299.489 183.905C299.524 184.068 299.555 184.231 299.586 184.395C299.696 184.959 299.788 185.51 299.872 186.052C300.021 187.003 300.14 187.92 300.228 188.771C300.228 189 300.276 189.211 300.298 189.445C300.32 189.679 300.342 189.886 300.355 190.097C300.413 190.785 300.452 191.419 300.479 191.957C300.553 193.385 300.54 194.262 300.54 194.262V194.306C300.54 194.306 300.54 194.372 300.518 194.495C300.516 194.507 300.516 194.519 300.518 194.531C300.518 194.584 300.518 194.65 300.518 194.725C300.518 194.8 300.518 194.852 300.518 194.927C300.501 195.112 300.479 195.328 300.452 195.575C300.413 195.954 300.369 196.399 300.316 196.897C300.281 197.267 300.237 197.669 300.193 198.092C300.096 198.973 299.99 199.995 299.876 201.071C299.85 201.273 299.828 201.476 299.806 201.679C299.704 202.6 299.599 203.561 299.489 204.53C299.37 205.632 299.238 206.734 299.111 207.822C299.08 208.06 299.049 208.298 299.023 208.532C298.697 211.176 298.372 213.578 298.108 215.072C298.066 215.293 298.037 215.517 298.02 215.742C298.016 215.818 298.016 215.895 298.02 215.971C298.007 216.17 298.007 216.371 298.02 216.57C298.235 220.334 302.295 220.977 302.295 220.977L320.729 220.611L323.464 220.559L325.057 220.528L339.426 220.241L340.746 220.215L347.893 220.074C348.378 220.062 348.862 220.12 349.331 220.246C351.538 220.84 353.643 221.762 355.577 222.982C356.181 223.371 356.725 223.846 357.191 224.393C357.214 224.414 357.234 224.438 357.253 224.463C358.227 225.634 358.83 227.071 358.981 228.588C358.981 228.69 358.981 228.791 358.981 228.892C359.016 229.104 359.016 229.342 359.012 229.593Z" fill="#144364"/>
<path opacity="0.1" d="M359.012 229.593C359.012 229.716 359.012 229.844 358.99 229.968C358.968 230.091 358.99 230.188 358.955 230.298C358.85 231.075 358.627 231.832 358.295 232.541C347.233 231.294 336.145 229.796 325.043 228.258L323.473 228.037L320.654 227.645L318.279 227.315C315.679 227.249 313.087 227.006 310.52 226.587C308.903 226.348 307.302 226.009 305.726 225.574C298.688 224.609 291.611 223.679 284.556 222.833L283.637 222.722C283.804 221.947 283.954 221.475 283.954 221.475C283.954 221.475 285.19 216.628 286.364 210.753C286.448 210.348 286.527 209.942 286.606 209.532L286.725 208.911C286.997 207.47 287.261 205.989 287.494 204.535C287.679 203.367 287.846 202.212 287.987 201.102C288.066 200.489 288.132 199.89 288.189 199.304C288.22 199.013 288.247 198.722 288.268 198.422C288.29 198.122 288.317 197.796 288.339 197.492C288.361 197.188 288.37 196.919 288.383 196.642V196.227C288.383 195.632 288.383 195.011 288.361 194.372C288.145 191.189 287.649 188.032 286.879 184.937C286.755 184.402 286.628 183.877 286.496 183.363C286.452 183.196 286.412 183.033 286.368 182.87C284.943 177.339 283.29 172.808 283.29 172.808C283.291 172.798 283.291 172.788 283.29 172.778C283.291 172.76 283.291 172.742 283.29 172.725C283.291 172.688 283.291 172.651 283.29 172.615C283.29 172.474 283.29 172.258 283.29 171.998C283.29 171.945 283.29 171.887 283.29 171.83C283.317 171.368 283.393 170.91 283.514 170.464C283.562 170.31 283.615 170.151 283.677 169.997C283.835 169.529 284.109 169.109 284.474 168.777C284.839 168.445 285.282 168.211 285.761 168.097C287.006 167.806 288.867 168.168 291.646 169.798C292.128 170.082 292.587 170.403 293.019 170.759C293.225 170.931 293.423 171.103 293.617 171.288C296.845 174.342 298.565 179.344 299.48 183.905C299.515 184.068 299.546 184.236 299.577 184.399C299.687 184.959 299.779 185.514 299.863 186.052C300.012 187.004 300.126 187.916 300.214 188.762C300.236 188.995 300.263 189.225 300.28 189.445C300.298 189.665 300.324 189.886 300.338 190.097C300.395 190.785 300.434 191.419 300.461 191.957C300.536 193.385 300.522 194.262 300.522 194.262V194.412C300.522 194.438 300.522 194.465 300.522 194.495C300.52 194.507 300.52 194.519 300.522 194.531C300.522 194.584 300.522 194.65 300.522 194.725C300.522 194.8 300.522 194.852 300.522 194.927C300.505 195.112 300.483 195.328 300.456 195.575C300.417 195.954 300.373 196.399 300.32 196.897C300.276 197.263 300.236 197.664 300.192 198.092C300.096 198.973 299.99 199.995 299.876 201.071C299.849 201.273 299.827 201.476 299.805 201.679C299.704 202.6 299.594 203.57 299.489 204.539C299.361 205.641 299.234 206.743 299.102 207.827C299.071 208.065 299.044 208.303 299.014 208.536C298.693 211.18 298.372 213.547 298.108 215.032C298.064 215.27 298.035 215.51 298.02 215.751C298.015 215.827 298.015 215.903 298.02 215.98C298.006 216.179 298.006 216.379 298.02 216.579C298.27 220.299 302.295 220.92 302.295 220.92L320.728 220.559L323.46 220.501L325.056 220.47L339.452 220.188L340.798 220.162L347.919 220.021C348.404 220.005 348.889 220.063 349.357 220.193C351.581 220.77 353.703 221.684 355.651 222.903C356.266 223.297 356.817 223.781 357.288 224.34C357.31 224.361 357.331 224.385 357.349 224.41C358.323 225.586 358.918 227.031 359.056 228.553C359.056 228.654 359.056 228.756 359.056 228.857C359.016 229.104 359.016 229.342 359.012 229.593Z" fill="black"/>
<path d="M359.043 232.607L358.317 232.524C347.255 231.277 336.167 229.778 325.065 228.24L323.495 228.02L320.676 227.627L318.301 227.297C315.701 227.232 313.109 226.989 310.542 226.57C308.925 226.33 307.324 225.992 305.748 225.556C298.71 224.591 291.633 223.661 284.578 222.815C284.693 222.197 284.84 221.585 285.018 220.982C285.018 220.982 289.197 204.495 289.456 195.729C289.549 192.596 288.928 188.718 288.088 185.02C287.965 184.487 287.842 183.958 287.71 183.438L287.591 182.945C286.1 177.149 284.328 172.302 284.328 172.302C284.286 171.702 284.32 171.099 284.429 170.508C284.456 170.349 284.491 170.192 284.534 170.036C284.703 169.298 285.1 168.632 285.669 168.133C285.695 168.11 285.723 168.089 285.753 168.071C286.91 167.189 288.986 167.128 292.68 169.296C293.429 169.739 294.121 170.27 294.743 170.878C294.919 171.046 295.095 171.222 295.262 171.403C298.231 174.624 299.806 179.56 300.632 183.976L300.725 184.465C300.822 185.016 300.905 185.558 300.984 186.082C300.984 186.082 300.984 186.113 300.984 186.126C301.085 186.823 301.169 187.488 301.239 188.123C301.445 189.992 301.551 191.87 301.556 193.751C301.556 193.751 301.385 195.491 301.116 197.999C301.015 198.982 300.896 200.084 300.769 201.247C300.769 201.304 300.769 201.362 300.769 201.423L300.703 202.04C300.478 204.072 300.232 206.24 299.981 208.25C299.955 208.497 299.924 208.739 299.893 208.977C299.612 211.238 299.331 213.247 299.097 214.556C298.183 219.66 303.276 220.444 303.276 220.444L320.667 220.1L323.394 220.047L324.991 220.012H325.659H325.875L339.668 219.739H340.987L348.904 219.58C349.39 219.568 349.875 219.627 350.343 219.757C352.567 220.334 354.691 221.246 356.641 222.462C357.188 222.816 357.686 223.24 358.123 223.723C358.151 223.75 358.176 223.78 358.198 223.811C359.232 225.008 359.869 226.498 360.02 228.074C360.171 229.65 359.83 231.235 359.043 232.607Z" fill="#144364"/>
<path d="M421.218 152.946L426.597 164.492H425.695L419.388 153.083L421.218 152.946Z" fill="#4C4C56"/>
<path opacity="0.1" d="M421.218 152.946L426.597 164.492H425.695L419.388 153.083L421.218 152.946Z" fill="black"/>
<path d="M421.218 164.492H426.597V165.7L421.218 165.837V164.492Z" fill="#4C4C56"/>
<path opacity="0.1" d="M421.218 164.492H426.597V165.7L421.218 165.837V164.492Z" fill="black"/>
<path d="M379.376 110.458V150.778C379.376 151.571 379.691 152.332 380.251 152.894C380.811 153.455 381.571 153.77 382.363 153.77H449.438C449.833 153.77 450.223 153.691 450.587 153.538C450.951 153.385 451.281 153.161 451.558 152.879C451.834 152.596 452.051 152.262 452.197 151.894C452.343 151.526 452.414 151.133 452.407 150.738L451.646 110.383C451.631 109.604 451.311 108.862 450.756 108.316C450.201 107.771 449.454 107.465 448.677 107.465H382.363C381.971 107.465 381.582 107.543 381.22 107.693C380.857 107.844 380.528 108.064 380.251 108.342C379.974 108.62 379.754 108.95 379.604 109.313C379.453 109.676 379.376 110.065 379.376 110.458Z" fill="#4C4C56"/>
<path opacity="0.1" d="M379.376 110.458V150.778C379.376 151.571 379.691 152.332 380.251 152.894C380.811 153.455 381.571 153.77 382.363 153.77H449.438C449.833 153.77 450.223 153.691 450.587 153.538C450.951 153.385 451.281 153.161 451.558 152.879C451.834 152.596 452.051 152.262 452.197 151.894C452.343 151.526 452.414 151.133 452.407 150.738L451.646 110.383C451.631 109.604 451.311 108.862 450.756 108.316C450.201 107.771 449.454 107.465 448.677 107.465H382.363C381.971 107.465 381.582 107.543 381.22 107.693C380.857 107.844 380.528 108.064 380.251 108.342C379.974 108.62 379.754 108.95 379.604 109.313C379.453 109.676 379.376 110.065 379.376 110.458Z" fill="black"/>
<path d="M376.957 110.458V150.778C376.957 151.571 377.272 152.332 377.832 152.894C378.392 153.455 379.151 153.77 379.944 153.77H447.019C447.413 153.77 447.804 153.691 448.167 153.538C448.531 153.385 448.861 153.161 449.137 152.878C449.413 152.596 449.63 152.261 449.775 151.894C449.921 151.526 449.991 151.133 449.983 150.738L449.222 110.383C449.207 109.605 448.888 108.863 448.334 108.318C447.78 107.772 447.034 107.466 446.258 107.465H379.961C379.567 107.463 379.177 107.539 378.813 107.688C378.448 107.837 378.117 108.058 377.838 108.336C377.559 108.614 377.337 108.944 377.186 109.309C377.035 109.673 376.957 110.063 376.957 110.458Z" fill="#4C4C56"/>
<path d="M379.596 112.979V148.477C379.596 149.271 379.911 150.032 380.471 150.593C381.031 151.154 381.791 151.47 382.583 151.47H444.692C445.479 151.47 446.234 151.156 446.791 150.598C447.348 150.04 447.661 149.284 447.661 148.495V112.957C447.66 112.168 447.346 111.413 446.79 110.856C446.233 110.299 445.479 109.986 444.692 109.986H382.583C381.791 109.986 381.031 110.302 380.471 110.863C379.911 111.424 379.596 112.185 379.596 112.979Z" fill="#8BC3EA"/>
<path d="M379.596 112.979V148.477C379.596 149.271 379.911 150.032 380.471 150.593C381.031 151.154 381.791 151.47 382.583 151.47H444.692C445.479 151.47 446.234 151.156 446.791 150.598C447.348 150.04 447.661 149.284 447.661 148.495V112.957C447.66 112.168 447.346 111.413 446.79 110.856C446.233 110.299 445.479 109.986 444.692 109.986H382.583C381.791 109.986 381.031 110.302 380.471 110.863C379.911 111.424 379.596 112.185 379.596 112.979Z" fill="url(#paint2_linear)" fill-opacity="0.5"/>
<path d="M406.47 153.109L412.368 164.492H425.695L419.032 151.47L406.47 153.109Z" fill="#4C4C56"/>
<path d="M401.773 164.492L400.787 165.7H421.218V164.492H401.773Z" fill="#4C4C56"/>
<path d="M314.244 116.929C314.604 118.88 314.965 120.834 315.626 122.696C315.629 122.706 315.632 122.715 315.636 122.725C315.636 122.725 315.636 122.725 315.636 122.725C315.637 122.728 315.638 122.732 315.64 122.735C315.646 122.753 315.654 122.774 315.662 122.802C315.578 122.772 315.502 122.725 315.437 122.665C315.307 122.527 315.212 122.359 315.16 122.176C314.488 120.3 314.122 118.336 313.756 116.377C313.31 113.987 312.866 111.604 311.87 109.396C311.582 108.825 311.331 108.236 311.118 107.633C311.078 107.505 311.044 107.376 311.017 107.245L311.118 107.183L311.228 107.139L311.338 107.108L311.448 107.082C311.472 107.472 311.54 107.858 311.65 108.232C311.861 108.835 312.11 109.423 312.394 109.995C313.368 112.188 313.806 114.556 314.244 116.929Z" fill="url(#paint3_linear)"/>
<path d="M330.335 125.014C329.642 125.796 329.073 126.678 328.646 127.632C328.58 127.777 328.514 127.918 328.452 128.073C326.508 132.48 325.848 138.716 325.848 138.716C325.848 138.716 324.643 138.174 322.937 137.327C319.757 135.75 314.848 133.123 312.864 131.03C311.985 130.082 311.668 129.245 312.398 128.659C312.556 128.531 312.719 128.386 312.882 128.218C313.444 127.655 313.958 127.044 314.417 126.394C315.05 125.512 315.675 124.529 316.264 123.52C316.612 122.93 316.942 122.335 317.25 121.757L317.373 121.528C318.692 119.021 319.655 116.879 319.655 116.879C319.655 116.879 320.095 117.02 320.808 117.271C324.093 118.448 333.141 122.022 330.335 125.014Z" fill="#EAB28B"/>
<path d="M390.539 227.121C390.539 227.121 391.076 231.113 391.758 235.327L390.196 235.247C386.021 235.03 381.841 234.752 377.657 234.414C375.281 228.901 372.818 222.357 372.818 222.255C372.818 222.154 372.744 219.999 372.66 217.593C372.634 216.747 372.603 215.874 372.576 215.054C372.532 213.811 372.493 212.692 372.471 211.996C372.471 211.52 372.444 211.238 372.444 211.238C372.444 211.238 370.184 211.634 368.152 211.912L367.25 212.031C366.784 212.088 366.37 212.132 365.996 212.159C365.674 212.208 365.347 212.208 365.024 212.159C364.33 211.89 365.772 205.108 365.772 205.108L369.361 196.404L370.364 193.98L370.804 193.87C371.019 193.817 371.31 193.755 371.657 193.689C375.084 193.059 384.236 192.257 385.789 201.309C387.711 212.489 387.988 215.001 387.988 215.001L390.539 227.121Z" fill="#EAB28B"/>
<path opacity="0.05" d="M390.539 227.121C390.539 227.121 391.076 231.113 391.758 235.327L390.196 235.247C386.021 235.03 381.841 234.752 377.657 234.414C375.281 228.901 372.818 222.357 372.818 222.255C372.818 222.154 372.744 219.999 372.66 217.593C372.634 216.747 372.603 215.874 372.576 215.054C372.532 213.811 372.493 212.692 372.471 211.996C372.471 211.52 372.444 211.238 372.444 211.238C372.444 211.238 370.184 211.634 368.152 211.912L367.25 212.031C366.784 212.088 366.37 212.132 365.996 212.159C365.674 212.208 365.347 212.208 365.024 212.159C364.33 211.89 365.772 205.108 365.772 205.108L369.361 196.404L370.364 193.98L370.804 193.87C371.019 193.817 371.31 193.755 371.657 193.689C375.084 193.059 384.236 192.257 385.789 201.309C387.711 212.489 387.988 215.001 387.988 215.001L390.539 227.121Z" fill="black"/>
<path d="M390.196 235.247C386.021 235.03 381.841 234.752 377.657 234.414L376.073 234.287L375.374 234.229C373.403 229.465 371.653 224.807 371.653 224.723C371.653 224.64 371.578 222.467 371.494 220.061C371.393 217.055 371.279 213.706 371.279 213.706L370.984 213.754L370.861 213.776H370.808H370.703L369.995 213.895L369.608 213.957C368.908 214.071 368.064 214.199 367.237 214.318L367.052 214.345L366.568 214.406L366.128 214.459C365.79 214.503 365.469 214.539 365.178 214.565L364.822 214.596C364.5 214.647 364.172 214.647 363.85 214.596C363.155 214.327 364.598 207.545 364.598 207.545L369.19 196.417L369.348 196.373C369.59 196.311 370.1 196.192 370.791 196.073C371.05 196.029 371.336 195.985 371.644 195.945C375.629 195.434 383.212 195.58 384.615 203.746C386.537 214.926 386.814 217.438 386.814 217.438L389.378 229.593C389.378 229.593 389.712 232.105 390.196 235.247Z" fill="#EAB28B"/>
<path opacity="0.1" d="M371.494 220.061C371.393 217.055 371.279 213.701 371.279 213.701C371.279 213.701 366.88 214.473 364.831 214.622L365.244 213.221C365.244 213.221 372.774 211.136 372.933 212.313C373.047 213.137 372.079 217.518 371.494 220.061Z" fill="black"/>
<path opacity="0.1" d="M371.653 193.667V196.853C371.653 196.853 371.279 202.582 368.341 211.348C368.279 211.537 368.213 211.723 368.143 211.908C367.835 212.751 367.47 213.572 367.052 214.367C366.225 214.481 365.425 214.578 364.831 214.622C364.509 214.672 364.181 214.672 363.859 214.622C363.164 214.354 364.602 207.571 364.602 207.571L369.194 196.448L369.357 196.404L370.355 193.975C370.355 193.975 370.848 193.817 371.653 193.667Z" fill="black"/>
<path d="M370.799 193.165V196.853C370.799 196.853 370.426 202.582 367.488 211.352C367.413 211.581 367.329 211.793 367.246 212.027C367.162 212.26 367.052 212.538 366.942 212.785C366.7 213.371 366.428 213.939 366.142 214.486C363.841 218.853 360.336 221.978 358.11 223.696C357.785 223.948 357.481 224.168 357.231 224.353H357.209C356.769 224.653 356.452 224.869 356.25 224.996C356.047 225.124 356.03 225.133 356.03 225.133C353.945 223.851 348.02 223.635 348.02 223.635L334.192 226.151C331.169 226.673 328.119 227.02 325.057 227.191L323.486 227.266C322.58 227.301 321.639 227.323 320.676 227.328C319.897 227.328 319.106 227.328 318.301 227.297C315.701 227.231 313.109 226.989 310.542 226.57C309.13 226.338 307.732 226.027 306.355 225.64C305.372 225.367 304.405 225.044 303.456 224.67C293.78 220.863 296.3 211.833 297.932 207.924C298.02 207.717 298.103 207.527 298.183 207.351C298.543 206.553 298.812 206.086 298.812 206.086L299.454 204.53L300.505 201.979L300.738 201.419L300.804 201.256L301.582 199.365L312.578 197.937L320.658 196.888L323.117 196.571L324.784 196.355L327.964 195.941L329.16 195.787C329.898 195.672 330.644 195.613 331.39 195.61C331.794 195.592 332.197 195.651 332.578 195.787C333.457 196.188 340.161 195.09 340.161 195.09C340.161 195.09 345.39 193.486 349.982 194.019C352.253 194.177 354.531 194.191 356.804 194.064L357.367 194.037L358.097 194.006H358.255C364.202 193.729 370.799 193.165 370.799 193.165Z" fill="#282C37"/>
<path opacity="0.1" d="M331.236 204.235C331.236 204.235 325.958 216.271 325.738 216.482C325.518 216.694 325.527 220.448 325.738 220.228C325.949 220.008 333.268 203.755 333.268 203.755L331.236 204.235Z" fill="black"/>
<path opacity="0.1" d="M356.808 194.055C356.808 194.055 354.138 195.782 353.338 197.175C352.537 198.568 345.223 212.419 343.411 214.45C341.906 216.268 340.549 218.203 339.351 220.237C339.14 220.603 339.14 222.903 340.42 220.708C341.7 218.514 341.383 218.144 343.89 215.42C346.397 212.696 349.168 206.54 350.242 205.31C351.315 204.081 352.806 200.388 354.675 198.193L358.255 194.002L356.808 194.055Z" fill="black"/>
<path opacity="0.1" d="M357.45 217.822C357.45 217.822 355.581 216.539 353.822 218.73C352.062 220.92 357.45 217.822 357.45 217.822Z" fill="black"/>
<path opacity="0.1" d="M359.746 218.483C359.746 218.483 358.198 221.189 357.45 221.405C356.703 221.621 359.746 218.483 359.746 218.483Z" fill="black"/>
<path opacity="0.1" d="M357.451 219.157C357.451 219.157 356.223 221.299 355.155 221.083L357.451 219.157Z" fill="black"/>
<path d="M348.808 161.333C348.808 161.333 360.125 160.852 361.246 160.478C362.368 160.103 372.295 158.821 372.295 158.821C372.295 158.821 401.711 160.905 393.332 163.421C384.953 165.938 373.579 164.863 373.579 164.863C373.579 164.863 362.473 167.754 360.767 169.27C359.06 170.786 346.459 170.821 346.459 170.821L348.808 161.333Z" fill="#EAB28B"/>
<path opacity="0.05" d="M348.808 161.333C348.808 161.333 360.125 160.852 361.246 160.478C362.368 160.103 372.295 158.821 372.295 158.821C372.295 158.821 401.711 160.905 393.332 163.421C384.953 165.938 373.579 164.863 373.579 164.863C373.579 164.863 362.473 167.754 360.767 169.27C359.06 170.786 346.459 170.821 346.459 170.821L348.808 161.333Z" fill="black"/>
<path d="M308.55 135.499C308.55 135.499 298.191 139.024 303.21 148.015C308.228 157.005 314.69 161.236 314.69 161.236L331.346 172.791C331.346 172.791 338.34 176.801 341.542 175.144L346.771 174.703L347.651 160.954C347.651 160.954 343.253 164.378 338.467 159.631C333.682 154.885 327.788 151.659 327.309 149.094C326.829 146.529 314.58 133.304 308.55 135.499Z" fill="#A36468"/>
<path d="M341.273 164.598C341.273 164.598 346.666 166.524 346.454 166.63C346.243 166.736 341.273 168.609 341.273 168.609L341.647 175.937L348.962 175.536C348.962 175.536 351.631 162.192 349.335 160.852L341.273 160.478V164.598Z" fill="#F8F9FA"/>
<path opacity="0.1" d="M341.273 164.598C341.273 164.598 346.666 166.524 346.454 166.63C346.243 166.736 341.273 168.609 341.273 168.609L341.647 175.937L348.962 175.536C348.962 175.536 351.631 162.192 349.335 160.852L341.273 160.478V164.598Z" fill="black"/>
<path opacity="0.1" d="M330.335 125.014C329.642 125.796 329.072 126.678 328.646 127.632C328.58 127.777 328.514 127.918 328.452 128.073C324.524 128.073 321.701 125.014 319.29 122.277C318.851 121.771 317.738 122.537 317.373 121.969C317.333 121.903 317.293 121.837 317.25 121.771L317.373 121.541C318.692 119.034 319.655 116.892 319.655 116.892C319.655 116.892 320.095 117.033 320.808 117.284C324.093 118.448 333.141 122.022 330.335 125.014Z" fill="black"/>
<path d="M341.77 114.371C341.769 117.867 340.391 121.222 337.935 123.705C335.479 126.188 332.144 127.599 328.654 127.632H328.527C326.648 127.633 324.79 127.233 323.077 126.458C321.365 125.683 319.837 124.55 318.595 123.137C318.151 122.632 317.746 122.094 317.381 121.528C316.27 119.793 315.577 117.822 315.358 115.771C315.14 113.721 315.401 111.647 316.121 109.716C316.842 107.784 318.002 106.047 319.509 104.643C321.016 103.239 322.829 102.206 324.805 101.626C326.78 101.047 328.862 100.936 330.888 101.304C332.913 101.672 334.825 102.507 336.471 103.744C338.118 104.981 339.454 106.585 340.374 108.43C341.294 110.275 341.772 112.309 341.77 114.371Z" fill="#EAB28B"/>
<path opacity="0.1" d="M328.302 196.637C328.302 196.637 327.295 197.871 326.182 199.021C325.342 199.903 324.445 200.709 323.869 200.916C322.549 201.401 316.501 205.998 316.501 205.998C316.501 205.998 311.699 209.263 310.471 210.224C309.244 211.185 304.811 210.599 304.811 210.599C304.811 210.599 300.544 209.664 297.901 207.955C298.158 207.327 298.452 206.714 298.781 206.121L301.556 199.378L312.552 197.955L328.302 196.637Z" fill="black"/>
<path d="M328.087 195.782C328.087 195.782 327.084 197.016 325.971 198.167C325.131 199.048 324.212 199.854 323.658 200.062C322.338 200.542 316.291 205.143 316.291 205.143C316.291 205.143 311.483 208.408 310.256 209.369C309.029 210.33 304.6 209.744 304.6 209.744C304.6 209.744 298.512 208.422 296.375 205.998C294.879 204.31 296.428 201.181 297.483 199.458C297.923 198.722 298.297 198.241 298.297 198.241L328.087 195.782Z" fill="#F8F9FA"/>
<path d="M335.991 154.325C332.358 154.004 320.399 139.341 320.399 139.341L320.671 138.967L323.178 135.49H329.041L329.688 138.698C334.148 144.965 336.774 149.323 337.486 151.818C338.001 153.633 337.513 154.462 335.991 154.325Z" fill="#F8F9FA"/>
<path opacity="0.1" d="M335.991 154.325C332.358 154.004 320.399 139.341 320.399 139.341L320.671 138.967C322.815 140.938 324.829 143.046 326.702 145.278C335.454 155.599 337.187 152.717 337.486 151.818C338.001 153.633 337.513 154.462 335.991 154.325Z" fill="black"/>
<path opacity="0.1" d="M328.087 195.782C328.087 195.782 327.084 197.016 325.971 198.167C325.385 198.394 324.766 198.528 324.137 198.563C322.747 198.51 319.545 200.705 319.545 200.705C319.545 200.705 313.889 200.383 312.82 200.969C311.751 201.556 307.639 201.666 307.639 201.666C300.113 203.816 298.033 200.551 297.483 199.462C297.923 198.726 298.297 198.246 298.297 198.246L328.087 195.782Z" fill="black"/>
<path d="M341.159 163.928C341.159 164.135 341.119 164.343 341.093 164.541C341.067 164.739 341.04 164.942 341.009 165.131C340.867 166.22 340.541 167.277 340.046 168.256C339.087 169.86 336.149 176.118 336.149 176.118L335.951 177.273L335.85 177.877L335.745 178.471L335.028 182.689L334.707 187.559C334.707 187.559 332.947 190.018 332.199 191.084C331.452 192.151 331.557 193.707 331.826 194.83C332.094 195.954 329.371 196.113 329.371 196.113C329.371 196.113 325.527 197.986 324.137 197.933C322.747 197.88 319.545 200.066 319.545 200.066C319.545 200.066 313.889 199.744 312.82 200.335C311.751 200.925 307.639 201.031 307.639 201.031C299.581 203.327 297.765 199.422 297.391 198.62C297.017 197.818 298.992 194.557 298.992 194.557C298.992 194.557 299.432 190.437 300.272 190.115C301.112 189.793 302.141 184.342 302.141 184.342C302.141 184.342 301.82 182.68 302.515 181.772C303.21 180.864 303.157 178.295 304.063 177.066C304.969 175.836 303.104 171.715 303.425 170.645C303.746 169.574 302.409 165.242 302.515 164.118C302.621 162.994 302.251 162.086 301.393 159.839C300.663 157.921 300.87 149.403 300.954 146.961C300.954 146.547 300.976 146.309 300.976 146.309C300.976 146.309 301.723 143.898 303.698 139.086C305.194 135.441 308.558 134.062 310.102 133.612C310.367 133.532 310.635 133.466 310.907 133.414C311.294 133.47 311.674 133.566 312.042 133.7C313.599 134.225 316.713 135.71 321.155 139.87C323.121 141.716 324.976 143.676 326.71 145.74C336.725 157.534 337.543 152.029 337.543 152.029C337.543 152.029 337.983 153.034 340.046 157.044C341.15 159.177 341.352 161.725 341.159 163.928Z" fill="#8BC3EA"/>
<path opacity="0.1" d="M324.669 134.842L314.624 126.812C314.624 126.812 311.004 127.253 309.508 133.343L319.849 142.418L324.669 134.842Z" fill="black"/>
<path d="M324.669 134.842L322.91 137.305L321.124 139.831L319.778 141.809L311.523 134.842L310.102 133.608L309.306 132.929C310.111 129.637 311.54 127.993 312.679 127.2C313.197 126.804 313.799 126.534 314.439 126.411L324.669 134.842Z" fill="#F8F9FA"/>
<path d="M393.754 166.63C385.371 169.142 374.001 168.075 374.001 168.075C374.001 168.075 362.896 170.962 361.189 172.482C360.089 173.447 354.473 173.804 350.633 173.95C348.5 174.029 346.903 174.034 346.903 174.034L349.247 164.545L350.602 164.484C353.641 164.343 360.806 163.981 361.686 163.686C362.808 163.311 372.735 162.029 372.735 162.029C372.735 162.029 402.133 164.113 393.754 166.63Z" fill="#EAB28B"/>
<path opacity="0.1" d="M341.009 165.109C340.867 166.198 340.541 167.255 340.046 168.234C339.087 169.838 336.149 176.096 336.149 176.096L335.744 178.471C334.381 177.964 333.058 177.354 331.786 176.647L315.116 165.079C315.116 165.079 308.655 160.852 303.636 151.857C298.618 142.863 308.976 139.341 308.976 139.341C315.006 137.138 327.234 150.359 327.713 152.928C328.193 155.498 334.069 158.706 338.872 163.466C339.505 164.11 340.224 164.663 341.009 165.109Z" fill="black"/>
<path opacity="0.1" d="M341.159 163.928C341.119 164.347 341.071 164.748 341.009 165.131C340.867 166.22 340.541 167.277 340.046 168.256C339.087 169.86 336.149 176.118 336.149 176.118L335.951 177.273C334.51 176.752 333.112 176.115 331.773 175.369L315.116 163.796C315.116 163.796 308.655 159.57 303.636 150.575C298.618 141.58 308.976 138.055 308.976 138.055C315.006 135.851 327.234 149.072 327.713 151.641C328.193 154.211 334.069 157.419 338.872 162.183C339.543 162.876 340.314 163.465 341.159 163.928Z" fill="black"/>
<path d="M348.056 164.171L347.202 177.916L341.968 178.357C341.854 178.417 341.734 178.469 341.612 178.511C338.278 179.736 331.773 176.004 331.773 176.004L315.116 164.435C315.116 164.435 308.655 160.209 303.636 151.214C298.618 142.219 308.976 138.698 308.976 138.698C315.006 136.495 327.234 149.716 327.713 152.285C328.193 154.854 334.069 158.063 338.872 162.822C339.576 163.531 340.386 164.126 341.273 164.585C342.334 165.143 343.526 165.4 344.722 165.327C345.918 165.254 347.071 164.854 348.056 164.171Z" fill="#8BC3EA"/>
<path opacity="0.1" d="M348.055 164.171L347.202 177.916L341.968 178.357C341.853 178.417 341.734 178.469 341.612 178.511L341.273 171.83C341.273 171.83 346.239 169.957 346.454 169.851C346.67 169.746 341.273 167.82 341.273 167.82V164.625C342.337 165.177 343.532 165.427 344.728 165.347C345.923 165.267 347.074 164.86 348.055 164.171Z" fill="black"/>
<path opacity="0.1" d="M350.611 173.928C348.478 174.007 346.881 174.012 346.881 174.012L349.247 164.545L350.602 164.484C351.473 165.986 351.099 170.402 350.611 173.928Z" fill="black"/>
<path d="M341.7 167.806C341.7 167.806 347.092 169.732 346.881 169.838C346.67 169.944 341.7 171.817 341.7 171.817L342.074 179.146L349.388 178.745C349.388 178.745 352.058 165.4 349.762 164.06L341.7 163.686V167.806Z" fill="#F8F9FA"/>
<path opacity="0.1" d="M309.724 176.581C309.724 176.581 307.907 178.291 306.412 178.745L309.724 176.581Z" fill="black"/>
<path opacity="0.1" d="M305.4 181.662C305.4 181.662 309.829 181.499 310.362 180.591C310.894 179.683 305.4 181.662 305.4 181.662Z" fill="black"/>
<path opacity="0.1" d="M303.21 188.026C303.478 188.026 308.813 187.277 309.029 186.58L303.21 188.026Z" fill="black"/>
<path opacity="0.1" d="M301.556 192.094C303.478 192.036 306.733 189.952 306.733 189.952L301.556 192.094Z" fill="black"/>
<path opacity="0.1" d="M313.995 193.16C313.995 193.16 325.58 193.16 326.112 191.023C326.644 188.885 313.995 193.16 313.995 193.16Z" fill="black"/>
<path opacity="0.1" d="M322.695 163.258C322.91 163.258 331.826 163.258 332.679 162.029C333.532 160.799 322.695 163.258 322.695 163.258Z" fill="black"/>
<path opacity="0.1" d="M312.877 128.231C312.95 128.668 312.988 129.11 312.992 129.553C312.992 130.046 312.948 130.537 312.86 131.021C312.683 131.94 312.406 132.838 312.033 133.696L311.941 133.912C311.809 134.22 311.668 134.52 311.523 134.82C310.869 136.155 310.098 137.43 309.218 138.628C307.21 141.299 304.889 143.718 302.304 145.833C301.855 146.212 301.402 146.587 300.945 146.957C300.945 146.543 300.967 146.305 300.967 146.305C300.967 146.305 301.714 143.894 303.689 139.081C305.185 135.437 308.549 134.057 310.093 133.608L309.297 132.929C310.102 129.637 311.531 127.993 312.671 127.2C312.741 127.526 312.825 127.87 312.877 128.231Z" fill="black"/>
<path opacity="0.1" d="M339.835 107.483C339.7 107.517 339.569 107.569 339.448 107.637C338.612 108.1 338.37 109.197 337.688 109.889C336.901 110.705 335.67 110.828 334.548 110.969C333.426 111.11 332.173 111.388 331.579 112.353C331.139 113.071 331.179 113.975 331.021 114.803C331.003 114.952 330.944 115.093 330.849 115.209C330.698 115.331 330.507 115.394 330.312 115.385C328.113 115.539 326.512 114.781 324.454 114.248C323.486 114.001 322.36 114.032 321.621 114.689C320.953 115.292 320.768 116.279 320.786 117.183V117.262C320.88 118.14 320.907 119.024 320.865 119.906C320.763 120.589 320.502 121.237 320.102 121.799C319.702 122.36 319.175 122.819 318.564 123.137C318.051 123.413 317.484 123.575 316.902 123.613C316.677 123.636 316.45 123.603 316.242 123.516C316.634 122.846 317.007 122.194 317.35 121.528C316.396 120.05 315.745 118.396 315.435 116.663C315.125 114.93 315.162 113.153 315.544 111.434C315.927 109.716 316.647 108.091 317.662 106.654C318.677 105.217 319.968 103.997 321.459 103.064C322.949 102.132 324.61 101.507 326.345 101.224C328.079 100.941 329.852 101.007 331.561 101.418C333.269 101.829 334.879 102.576 336.297 103.617C337.714 104.657 338.911 105.97 339.817 107.479L339.835 107.483Z" fill="black"/>
<path d="M343.459 105.791C343.298 106.152 343.045 106.463 342.725 106.694C341.722 107.346 340.284 106.628 339.237 107.21C338.397 107.673 338.159 108.77 337.477 109.462C336.694 110.277 335.463 110.401 334.337 110.542C333.211 110.683 331.966 110.96 331.368 111.925C330.928 112.644 330.972 113.543 330.809 114.376C330.794 114.525 330.735 114.666 330.638 114.781C330.486 114.903 330.296 114.965 330.101 114.957C327.902 115.112 326.301 114.349 324.243 113.82C323.279 113.574 322.153 113.604 321.415 114.261C320.676 114.918 320.561 115.856 320.574 116.76C320.666 117.662 320.694 118.569 320.658 119.475C320.506 120.446 320.033 121.339 319.316 122.011C318.599 122.683 317.678 123.094 316.7 123.181C316.557 123.202 316.412 123.195 316.272 123.16C316.132 123.124 316.001 123.061 315.886 122.974C315.759 122.836 315.667 122.67 315.618 122.489C314.153 118.364 314.166 113.785 312.389 109.784C312.103 109.213 311.854 108.624 311.646 108.021C311.611 107.897 311.575 107.77 311.549 107.642C311.497 107.387 311.461 107.13 311.443 106.87C311.262 106.896 311.089 106.968 310.942 107.078C310.89 107.122 310.843 107.172 310.801 107.227C310.55 107.649 310.421 108.133 310.432 108.624C310.103 114.134 310.638 119.661 312.015 125.005C312.436 126.34 312.691 127.721 312.776 129.117C312.727 130.627 312.368 132.111 311.721 133.476C308.963 139.848 303.421 144.515 297.91 148.733C298.476 148.125 298.913 147.408 299.194 146.625C299.476 145.842 299.595 145.011 299.546 144.18C299.451 144.497 299.271 144.782 299.025 145.003C298.779 145.224 298.476 145.372 298.152 145.432C297.5 145.543 296.833 145.532 296.186 145.401C297.03 145.124 297.36 144.128 297.571 143.264C298.002 141.501 298.402 139.722 298.772 137.927C299.165 136.213 299.424 134.472 299.546 132.718C299.612 131.228 299.498 129.734 299.436 128.24C299.305 124.144 299.452 120.043 299.876 115.967C300.201 112.441 300.791 108.629 303.372 106.223C304.487 105.279 305.731 104.501 307.067 103.913C307.067 103.473 310.291 102.591 310.718 102.53C310.895 102.495 311.074 102.474 311.254 102.468C311.485 102.434 311.72 102.475 311.926 102.583C312.132 102.692 312.299 102.863 312.402 103.072C312.561 102.785 312.737 102.503 312.921 102.234C313.175 101.864 313.455 101.512 313.757 101.181C315.433 99.3301 317.606 98.0256 319.545 96.4567C320.257 95.8168 321.029 95.2471 321.85 94.7556C322.924 94.2147 324.102 93.9139 325.303 93.8742C327.288 93.7618 329.275 94.0742 331.131 94.7908C333.805 95.8221 336.14 97.673 338.907 98.4222C339.59 98.5704 340.264 98.7573 340.926 98.9819C341.56 99.2335 342.135 99.6155 342.614 100.103C343.092 100.591 343.464 101.173 343.704 101.813C343.944 102.453 344.048 103.137 344.009 103.82C343.97 104.502 343.789 105.169 343.477 105.778L343.459 105.791Z" fill="#F4F0C3"/>
<g opacity="0.1">
<path opacity="0.1" d="M298.917 145.265C299.238 144.437 299.374 143.55 299.317 142.664C299.221 142.981 299.04 143.266 298.793 143.487C298.546 143.707 298.244 143.856 297.919 143.916C297.751 143.956 297.58 143.981 297.408 143.991C297.188 144.696 296.841 145.375 296.168 145.595C296.816 145.728 297.482 145.74 298.134 145.63C298.417 145.561 298.683 145.437 298.917 145.265Z" fill="black"/>
<path opacity="0.1" d="M343.776 102.278C343.743 102.975 343.563 103.657 343.248 104.279C343.081 104.632 342.827 104.935 342.509 105.161C341.511 105.813 340.068 105.099 339.021 105.676C338.186 106.139 337.944 107.241 337.262 107.928C336.475 108.743 335.243 108.871 334.121 109.008C333 109.145 331.746 109.449 331.153 110.392C330.713 111.11 330.752 112.013 330.594 112.842C330.591 112.929 330.569 113.014 330.531 113.092C330.492 113.17 330.438 113.239 330.371 113.294C330.304 113.349 330.226 113.39 330.143 113.413C330.059 113.436 329.972 113.441 329.886 113.428C327.687 113.582 326.086 112.82 324.027 112.287C323.06 112.04 321.934 112.071 321.195 112.727C320.526 113.336 320.341 114.318 320.359 115.226C320.451 116.127 320.478 117.032 320.438 117.937C320.291 118.911 319.82 119.807 319.102 120.481C318.384 121.154 317.46 121.565 316.48 121.647C316.337 121.668 316.192 121.66 316.052 121.625C315.913 121.589 315.781 121.527 315.666 121.44C315.539 121.301 315.447 121.133 315.398 120.951C313.933 116.826 313.942 112.247 312.165 108.25C311.882 107.678 311.636 107.089 311.426 106.487C311.314 106.113 311.244 105.727 311.219 105.337C310.967 105.367 310.736 105.495 310.577 105.694C310.33 106.117 310.202 106.6 310.208 107.091C310.003 110.622 310.15 114.166 310.647 117.668C310.329 114.72 310.257 111.751 310.432 108.792C310.422 108.301 310.55 107.817 310.801 107.395C310.878 107.295 310.975 107.211 311.085 107.15C311.196 107.088 311.318 107.05 311.443 107.038C311.468 107.428 311.536 107.814 311.646 108.188C311.856 108.791 312.104 109.38 312.389 109.951C314.148 113.953 314.148 118.527 315.618 122.652C315.669 122.834 315.763 123.002 315.89 123.141C316.001 123.235 316.131 123.305 316.27 123.346C316.409 123.388 316.555 123.401 316.7 123.384C317.678 123.297 318.599 122.885 319.316 122.214C320.033 121.542 320.506 120.649 320.658 119.677C320.694 118.772 320.666 117.864 320.574 116.963C320.574 116.055 320.746 115.072 321.415 114.464C322.153 113.794 323.279 113.767 324.243 114.023C326.301 114.552 327.893 115.314 330.101 115.16C330.296 115.168 330.486 115.106 330.638 114.984C330.734 114.867 330.794 114.725 330.809 114.574C330.972 113.745 330.924 112.842 331.368 112.128C331.966 111.163 333.215 110.881 334.337 110.74C335.459 110.599 336.694 110.48 337.482 109.665C338.146 108.973 338.383 107.875 339.241 107.408C340.284 106.831 341.726 107.549 342.729 106.897C343.049 106.666 343.303 106.354 343.464 105.993C344.042 104.842 344.154 103.511 343.776 102.278Z" fill="black"/>
<path opacity="0.1" d="M312.565 127.614C312.517 129.124 312.159 130.608 311.514 131.973C309.046 137.671 304.349 142.008 299.445 145.873C299.237 147.026 298.706 148.096 297.914 148.958C303.421 144.744 308.972 140.077 311.725 133.705C312.372 132.34 312.732 130.856 312.781 129.346C312.77 128.701 312.695 128.059 312.556 127.429C312.561 127.473 312.565 127.544 312.565 127.614Z" fill="black"/>
</g>
<path opacity="0.1" d="M313.115 102.23C312.719 104.054 312.174 106.425 311.765 107.646C311.714 107.391 311.679 107.134 311.659 106.875C311.479 106.901 311.308 106.972 311.162 107.082C311.162 105.8 311.316 103.891 311.448 102.463C311.679 102.43 311.915 102.47 312.122 102.578C312.329 102.687 312.496 102.858 312.6 103.067C312.741 102.785 312.93 102.503 313.115 102.23Z" fill="black"/>
<path d="M312.904 102.23C312.508 104.054 311.963 106.425 311.554 107.646C311.501 107.392 311.466 107.134 311.448 106.875C311.266 106.901 311.094 106.972 310.947 107.082C310.947 105.8 311.1 103.891 311.237 102.463C311.467 102.43 311.702 102.47 311.909 102.579C312.115 102.687 312.281 102.858 312.385 103.067C312.543 102.785 312.741 102.503 312.904 102.23Z" fill="#F89079"/>
</g>
<defs>
<linearGradient id="paint0_linear" x1="51.6194" y1="127.774" x2="51.6194" y2="182.897" gradientUnits="userSpaceOnUse">
<stop stop-color="white"/>
<stop offset="1" stop-color="white" stop-opacity="0"/>
</linearGradient>
<linearGradient id="paint1_linear" x1="22362.3" y1="66433" x2="54729" y2="66433" gradientUnits="userSpaceOnUse">
<stop stop-color="#808080" stop-opacity="0.25"/>
<stop offset="0.54" stop-color="#808080" stop-opacity="0.12"/>
<stop offset="1" stop-color="#808080" stop-opacity="0.1"/>
</linearGradient>
<linearGradient id="paint2_linear" x1="413.628" y1="109.986" x2="413.628" y2="151.47" gradientUnits="userSpaceOnUse">
<stop stop-color="white"/>
<stop offset="1" stop-color="white" stop-opacity="0"/>
</linearGradient>
<linearGradient id="paint3_linear" x1="-100035" y1="42264" x2="-100035" y2="23002.7" gradientUnits="userSpaceOnUse">
<stop stop-color="#808080" stop-opacity="0.25"/>
<stop offset="0.54" stop-color="#808080" stop-opacity="0.12"/>
<stop offset="1" stop-color="#808080" stop-opacity="0.1"/>
</linearGradient>
<clipPath id="clip0">
<rect width="512" height="245" fill="white"/>
</clipPath>
</defs>
</svg>