<svg width="517" height="371" viewBox="0 0 517 371" fill="none" xmlns="http://www.w3.org/2000/svg">
<path opacity="0.3" d="M352.04 23.4178H315.104V37.1631H352.04V23.4178Z" fill="#8BC3EA"/>
<path opacity="0.3" d="M413.43 0H376.494V13.7453H413.43V0Z" fill="#8BC3EA"/>
<path opacity="0.3" d="M415.977 42.5085H379.041V56.2538H415.977V42.5085Z" fill="#8BC3EA"/>
<path opacity="0.3" d="M297.782 58.29H260.847V72.0353H297.782V58.29Z" fill="#8BC3EA"/>
<path opacity="0.3" d="M286.065 114.798H249.129V128.544H286.065V114.798Z" fill="#8BC3EA"/>
<path opacity="0.3" d="M341.851 113.526H304.915V127.271H341.851V113.526Z" fill="#8BC3EA"/>
<path d="M376.494 6.78589L352.04 29.9721L379.041 49.3811" stroke="#3F3D56" stroke-miterlimit="10"/>
<path d="M315.104 29.9723L279.315 58.2901" stroke="#3F3D56" stroke-miterlimit="10"/>
<path d="M267.597 114.788L279.314 72.0352L323.383 113.525" stroke="#3F3D56" stroke-miterlimit="10"/>
<path opacity="0.3" d="M102.911 37.578H65.975V51.3233H102.911V37.578Z" fill="#8BC3EA"/>
<path opacity="0.3" d="M164.301 14.1602H127.365V27.9054H164.301V14.1602Z" fill="#8BC3EA"/>
<path opacity="0.3" d="M166.848 56.6687H129.912V70.414H166.848V56.6687Z" fill="#8BC3EA"/>
<path opacity="0.3" d="M48.6534 72.4503H11.7176V86.1956H48.6534V72.4503Z" fill="#8BC3EA"/>
<path opacity="0.3" d="M36.9358 128.959H0V142.704H36.9358V128.959Z" fill="#8BC3EA"/>
<path opacity="0.3" d="M92.7216 127.686H55.7858V141.431H92.7216V127.686Z" fill="#8BC3EA"/>
<path d="M127.365 20.9462L102.911 44.1324L129.912 63.5414" stroke="#3F3D56" stroke-miterlimit="10"/>
<path d="M65.975 44.1324L30.1855 72.4502" stroke="#3F3D56" stroke-miterlimit="10"/>
<path d="M18.468 128.948L30.1853 86.1954L74.2537 127.686" stroke="#3F3D56" stroke-miterlimit="10"/>
<path d="M166.848 63.5414H208.735" stroke="#3F3D56" stroke-miterlimit="10"/>
<path d="M233.359 56.5066H189.932V70.21H233.359V56.5066Z" fill="#2B91D9"/>
<path d="M233.415 63.3583H260.847" stroke="#3F3D56" stroke-miterlimit="10"/>
<path d="M189.724 63.3582L164.301 20.9463" stroke="#3F3D56" stroke-miterlimit="10"/>
<path d="M315.868 371C426.95 371 517 350.958 517 326.235C517 301.513 426.95 281.471 315.868 281.471C204.786 281.471 114.737 301.513 114.737 326.235C114.737 350.958 204.786 371 315.868 371Z" fill="#F2F2F2"/>
<path d="M409.113 178.88L389.5 277.075H385.254L384.787 276.349L383.434 274.246L400.419 182.517L402.997 181.438L409.113 178.88Z" fill="#47465A"/>
<path opacity="0.1" d="M402.997 181.438L384.787 276.35L383.434 274.247L400.419 182.517L402.997 181.438Z" fill="black"/>
<path d="M438.634 312.635L433.591 314.26L432.366 314.656L430.748 311.019L402.997 184.521L405.882 183.875L411.944 182.517L438.634 312.635Z" fill="#47465A"/>
<path opacity="0.1" d="M433.591 314.26L432.366 314.656L430.748 311.019L402.997 184.521L405.882 183.875L433.591 314.26Z" fill="black"/>
<path d="M198.223 178.88L193.774 306.17L188.677 307.301L188.315 307.382L186.899 304.755L189.73 180.092L192.454 179.704L198.223 178.88Z" fill="#47465A"/>
<path opacity="0.1" d="M192.454 179.704L188.677 307.301L188.315 307.382L186.899 304.755L189.73 180.092L192.454 179.704Z" fill="black"/>
<path d="M224.71 351.226L219.437 352.135L218.846 352.236L217.229 348.802L191.55 182.517L192.29 182.292L196.201 181.103L224.71 351.226Z" fill="#47465A"/>
<path opacity="0.1" d="M219.437 352.135L218.846 352.236L217.229 348.802L191.55 182.517L192.29 182.292L219.437 352.135Z" fill="black"/>
<path d="M336.323 168.576L355.956 193.645C356.629 194.504 357.512 195.176 358.52 195.596C359.527 196.016 360.626 196.169 361.711 196.043L442.309 186.61C443.858 186.429 445.288 185.685 446.325 184.52C447.362 183.355 447.935 181.85 447.935 180.291V161.706L336.323 168.576Z" fill="#7A799C"/>
<path d="M402.441 172.617H407.9V180.49C407.9 181.028 407.686 181.543 407.306 181.923C406.925 182.303 406.409 182.517 405.871 182.517H404.469C403.931 182.517 403.415 182.303 403.035 181.923C402.654 181.543 402.441 181.028 402.441 180.49V172.617Z" fill="#47465A"/>
<path d="M191.55 184.537L211.184 209.606C211.857 210.466 212.739 211.138 213.747 211.557C214.755 211.977 215.854 212.131 216.938 212.004L297.536 202.572C299.086 202.391 300.515 201.647 301.552 200.482C302.589 199.317 303.162 197.812 303.162 196.253V177.668L191.55 184.537Z" fill="#7A799C"/>
<path d="M257.668 188.578H263.128V196.452C263.128 196.989 262.914 197.505 262.533 197.885C262.153 198.265 261.637 198.479 261.099 198.479H259.697C259.159 198.479 258.643 198.265 258.262 197.885C257.882 197.505 257.668 196.989 257.668 196.452V188.578H257.668Z" fill="#47465A"/>
<path d="M214.107 197.234L453.847 169.329C454.6 169.241 455.305 168.913 455.856 168.394C456.408 167.874 456.778 167.19 456.91 166.444C457.042 165.698 456.93 164.929 456.591 164.252C456.251 163.574 455.702 163.024 455.025 162.683L412.139 141.132C403.693 136.887 394.209 135.141 384.803 136.099L171.812 157.801C171.051 157.88 170.327 158.173 169.724 158.644C169.121 159.116 168.663 159.747 168.403 160.467C168.142 161.187 168.09 161.965 168.252 162.713C168.414 163.461 168.783 164.148 169.317 164.696L194.12 190.124C196.687 192.756 199.823 194.765 203.288 195.997C206.752 197.23 210.453 197.653 214.107 197.234Z" fill="#47465A"/>
<path d="M480.222 165.547L477.658 164.131C477.658 164.131 474.889 166.167 472.634 174.746C470.379 183.325 476.849 174.839 476.849 174.839L479.68 168.98L480.222 165.547Z" fill="#47465A"/>
<path d="M452.787 244.141C452.787 244.141 450.159 256.466 448.946 259.901C448.351 261.582 445.48 263.12 442.297 264.296C439.476 265.346 436.554 266.108 433.579 266.569C430.141 266.973 386.063 260.103 364.63 255.456C350.191 252.326 348.325 248.736 348.644 246.728C348.747 246.13 349.034 245.579 349.465 245.152C349.465 245.152 370.696 230.806 378.177 223.937C385.658 217.067 400.419 222.522 416.594 225.351C432.77 228.18 452.787 244.141 452.787 244.141Z" fill="#47465A"/>
<path d="M477.658 164.131C477.658 164.131 487.565 170.596 454.203 183.931C454.203 183.931 436.069 194.148 438.43 236.234C438.542 238.127 439.119 239.962 440.109 241.579C443.551 247.237 450.927 261.558 438.634 263.336V266.568C438.634 266.568 460.875 255.456 463.302 245.96C465.728 236.463 473.816 183.729 477.86 178.88C481.904 174.031 484.532 166.353 477.658 164.131Z" fill="#47465A"/>
<path opacity="0.1" d="M442.297 264.296C439.476 265.346 436.554 266.108 433.579 266.569C430.141 266.973 386.063 260.103 364.63 255.456C350.191 252.326 348.325 248.736 348.644 246.728C358.135 249.97 388.954 260.263 400.014 261.113C413.157 262.124 438.266 264.932 440.168 263.023C440.9 262.287 441.65 263.063 442.297 264.296Z" fill="black"/>
<path d="M326.819 348.398L346.028 260.709C346.028 260.709 349.465 251.415 357.351 251.819L364.63 255.456C364.63 255.456 352.498 252.627 349.87 261.921C347.241 271.216 330.459 348.398 330.459 348.398H326.819Z" fill="#47465A"/>
<path d="M372.92 308.392L380.603 254.85H384.041L376.155 308.392H372.92Z" fill="#47465A"/>
<path d="M446.519 360.722L439.24 277.075C439.24 277.075 439.24 270.003 442.88 266.568C446.519 263.134 458.269 253.336 458.269 253.336C458.269 253.336 461.28 252.627 463.706 259.497C466.132 266.366 482.915 335.062 482.915 335.062L479.68 336.477L458.853 257.274L444.497 270.812C444.497 270.812 441.667 275.863 443.082 280.51C444.497 285.157 449.755 360.722 449.755 360.722H446.519Z" fill="#47465A"/>
<path d="M424.076 264.548L442.273 269.801L446.317 265.962L435.803 264.548H424.076Z" fill="#47465A"/>
<path d="M262.3 117.075L265.251 161.302L329.751 155.038L327.185 111.804C327.15 111.225 327 110.659 326.743 110.139C326.487 109.619 326.128 109.155 325.69 108.775C325.251 108.395 324.741 108.107 324.189 107.928C323.637 107.748 323.054 107.68 322.476 107.729L266.277 112.452C265.14 112.548 264.086 113.086 263.342 113.951C262.598 114.815 262.224 115.937 262.3 117.075Z" fill="#7A799C"/>
<path d="M351.386 167.767L287.088 174.777L284.661 175.041L265.857 162.919V160.292L329.751 154.542L351.386 167.767Z" fill="#7A799C"/>
<path opacity="0.1" d="M287.088 174.777L284.661 175.041L265.857 162.918V160.567L287.088 174.777Z" fill="black"/>
<path d="M266.666 116.649L268.89 156.049L325.505 150.796L323.483 112.406L266.666 116.649Z" fill="#9493B6"/>
<path opacity="0.1" d="M300.433 166.959L307.307 171.607L328.134 169.586L321.056 165.141L300.433 166.959Z" fill="black"/>
<path d="M272.327 161.302L281.022 167.767L336.626 162.514L326.718 156.049L272.327 161.302Z" fill="#9493B6"/>
<path d="M412.045 101.597H370.999V142.613H412.045V101.597Z" fill="#F4F0C3"/>
<path opacity="0.1" d="M412.045 101.597H370.999V142.613H412.045V101.597Z" fill="black"/>
<path d="M385.135 120.578C385.135 120.578 390.925 136.248 385.135 139.141C379.345 142.034 405.883 139.141 405.883 139.141L413.362 133.114C413.362 133.114 396.474 128.293 398.887 117.203C401.299 106.113 385.135 120.578 385.135 120.578Z" fill="#EAB28B"/>
<path opacity="0.1" d="M385.135 120.578C385.135 120.578 390.925 136.248 385.135 139.141C379.345 142.034 405.883 139.141 405.883 139.141L413.362 133.114C413.362 133.114 396.474 128.293 398.887 117.203C401.299 106.113 385.135 120.578 385.135 120.578Z" fill="black"/>
<mask id="mask0" mask-type="alpha" maskUnits="userSpaceOnUse" x="337" y="274" width="39" height="68">
<path d="M337.607 277.763C337.607 277.763 359.32 308.381 355.701 316.818C352.082 325.256 354.012 330.56 346.775 333.453C339.537 336.346 337.607 341.65 343.88 341.409C350.152 341.168 358.355 339.48 359.561 337.31C360.768 335.141 363.663 324.774 367.764 323.328C371.866 321.881 379.586 316.336 374.037 309.586C368.488 302.836 354.506 277.972 355.586 275.457C356.666 272.942 337.607 277.763 337.607 277.763Z" fill="#EAB28B"/>
</mask>
<g mask="url(#mask0)">
<rect width="54.4706" height="36.368" transform="matrix(0.941356 -0.337414 0.337856 0.941198 317.596 289.525)" fill="#EAB28B"/>
<rect width="53.0517" height="32.971" transform="matrix(0.908902 -0.41701 0.417518 0.908669 326.492 322.928)" fill="#454D5B"/>
</g>
<path d="M382.963 217.252C382.963 217.252 338.089 220.145 326.509 230.993C314.928 241.842 336.642 282.344 339.054 282.826C341.467 283.308 360.285 281.379 359.561 276.076C358.838 270.772 346.051 249.074 346.051 249.074C346.051 249.074 362.698 243.047 371.866 241.601C381.033 240.154 391.166 233.404 391.166 233.404L382.963 217.252Z" fill="#9493B6"/>
<path d="M362.457 210.501C362.457 210.501 363.18 237.261 369.936 238.226C376.691 239.19 369.936 217.734 369.936 217.734L369.694 209.537L362.457 210.501Z" fill="#EAB28B"/>
<path d="M382.964 140.347C382.964 140.347 370.418 136.731 368.005 146.374C365.593 156.017 364.869 189.286 364.869 189.286L360.526 215.805C360.526 215.805 368.488 213.394 370.177 214.6L380.31 201.823L382.964 140.347Z" fill="#2B91D9"/>
<path opacity="0.1" d="M382.964 140.347C382.964 140.347 370.418 136.731 368.005 146.374C365.593 156.017 364.869 189.286 364.869 189.286L360.526 215.805C360.526 215.805 368.488 213.394 370.177 214.6L380.31 201.823L382.964 140.347Z" fill="black"/>
<mask id="mask1" mask-type="alpha" maskUnits="userSpaceOnUse" x="390" y="282" width="41" height="57">
<path d="M400.106 282.897C400.106 282.897 408.537 299.46 413.603 299.219C418.67 298.978 423.495 295.844 425.908 305.729C428.32 315.613 425.425 312.961 428.32 318.747C431.215 324.533 431.698 334.658 426.149 337.069C420.6 339.48 415.534 339.721 415.292 337.069C415.051 334.417 420.117 334.417 414.327 325.015C408.537 315.613 396.233 298.496 391.166 296.809C386.1 295.121 400.106 282.897 400.106 282.897Z" fill="#EAB28B"/>
</mask>
<g mask="url(#mask1)">
<rect width="44.8267" height="37.7899" transform="matrix(0.631006 -0.775778 0.776233 0.630446 372.094 307.017)" fill="#EAB28B"/>
<rect width="43.5333" height="36.2684" transform="matrix(0.564544 -0.825403 0.82579 0.563977 395.186 326.089)" fill="#454D5B"/>
</g>
<path d="M422.048 207.367C422.048 207.367 439.418 236.297 428.079 244.735C416.74 253.173 382.964 269.325 382.964 269.325C382.964 269.325 401.058 281.621 402.023 285.719C402.988 289.817 393.338 300.907 389.96 301.148C386.582 301.389 376.691 290.058 366.075 287.165C355.46 284.272 348.946 263.539 360.526 255.825C372.107 248.11 382.964 235.333 382.964 235.333L379.588 216.772L422.048 207.367Z" fill="#9493B6"/>
<path d="M406.99 110.891C406.99 121.144 396.48 129.619 386.221 129.619C381.294 129.619 376.568 127.663 373.085 124.182C369.601 120.7 367.644 115.979 367.644 111.055C367.644 106.132 369.601 101.411 373.085 97.9292C376.568 94.448 381.294 92.4922 386.221 92.4922C396.48 92.4922 406.99 100.639 406.99 110.891Z" fill="#EAB28B"/>
<path d="M390.925 137.695C390.925 137.695 407.572 130.462 407.572 129.498C407.572 128.534 417.222 131.668 419.394 133.596C421.565 135.525 422.771 135.284 424.219 139.141C425.666 142.999 416.981 178.92 416.981 178.92C416.981 178.92 421.806 206.644 424.46 209.296C427.114 211.948 402.988 215.805 402.988 215.805C402.988 215.805 387.065 218.698 384.411 219.904C381.757 221.109 376.932 222.797 377.897 219.904C378.862 217.011 382.963 214.841 375.967 211.225C375.967 211.225 378.38 199.412 375.967 194.108C373.554 188.804 362.456 169.518 371.383 155.535C380.31 141.552 384.411 136.489 384.411 136.489C384.411 136.489 387.547 139.141 390.925 137.695Z" fill="#2B91D9"/>
<path d="M396.233 203.51C396.233 203.51 377.415 211.85 371.745 212.622C366.075 213.394 348.946 217.734 358.355 221.591C367.764 225.449 381.998 219.663 381.998 219.663L402.023 211.225L396.233 203.51Z" fill="#EAB28B"/>
<path opacity="0.1" d="M416.493 136.955C416.493 136.955 423.442 133.596 425.372 145.409C427.302 157.222 434.058 194.59 425.372 200.135C416.687 205.68 396.662 214.6 396.662 214.6C396.662 214.6 384.841 206.644 390.39 203.751C395.939 200.858 409.208 192.661 411.138 189.768C413.068 186.875 415.018 154.584 411.641 149.28C408.263 143.976 416.493 136.955 416.493 136.955Z" fill="black"/>
<path d="M416.016 134.079C416.016 134.079 425.666 133.596 427.596 145.409C429.527 157.222 436.282 194.59 427.596 200.135C418.911 205.68 398.887 214.6 398.887 214.6C398.887 214.6 387.065 206.644 392.614 203.751C398.163 200.858 411.432 192.661 413.362 189.768C415.292 186.875 411.915 156.74 408.537 151.437C405.159 146.133 416.016 134.079 416.016 134.079Z" fill="#2B91D9"/>
<path d="M381.645 79.8064C378.683 80.2092 375.506 81.2918 374.016 83.881C373.286 85.148 373.051 86.6342 372.489 87.9837C370.938 91.7077 367.173 93.9315 364.455 96.9131C360.913 100.799 359.153 106.654 361.243 111.478C362.052 113.346 363.366 114.947 364.362 116.722C367.142 121.675 367.29 127.623 367.369 133.301L367.524 144.466C367.548 146.17 367.567 147.909 367.054 149.535C366.54 151.161 365.393 152.684 363.766 153.197C365.561 153.819 367.512 153.823 369.31 153.21C371.108 152.596 372.649 151.4 373.689 149.811C373.911 151.217 373.784 152.656 373.32 154.002C372.856 155.348 372.069 156.559 371.027 157.53C375.45 156.49 379.16 153.275 381.496 149.381C383.833 145.486 384.917 140.956 385.402 136.442C385.659 134.054 385.75 131.585 384.995 129.305C384.463 127.699 383.535 126.259 382.655 124.814C380.385 121.09 378.341 117.128 377.61 112.829C376.878 108.53 377.613 103.814 380.406 100.463C381.479 99.1689 382.829 98.1328 384.358 97.4324C385.887 96.7319 387.554 96.3852 389.235 96.418C390.917 96.4829 392.553 96.978 393.988 97.8558C395.423 98.7335 396.608 99.9647 397.431 101.431C398.076 102.645 398.995 104.291 400.302 103.864C400.545 103.761 400.781 103.645 401.011 103.517C402.469 102.853 404.126 104.162 404.769 105.628C406.797 110.254 403.06 115.304 402.674 120.339C402.314 125.023 404.928 129.441 408.052 132.952C413.448 138.991 420.496 143.318 428.326 145.399C427.18 145.11 426.152 144.472 425.385 143.573C428.569 143.7 431.756 143.434 434.874 142.778C431.479 140.222 428.06 137.644 425.226 134.478C422.392 131.313 420.147 127.482 419.536 123.279C418.716 117.638 420.819 111.529 418.415 106.359C416.217 101.633 410.766 98.9922 408.776 94.1752C406.754 89.2824 405.443 85.0317 400.089 82.9017C394.247 80.5769 387.957 78.9479 381.645 79.8064Z" fill="#F4F0C3"/>
</svg>