<svg width="260" height="39" viewBox="0 0 260 39" fill="none" xmlns="http://www.w3.org/2000/svg">
<path d="M56.3308 25.2C56.3308 23.8931 55.8717 22.8616 54.9537 22.1056C54.0356 21.3387 52.3561 20.615 49.9151 19.9346C47.4741 19.2433 45.692 18.4927 44.5687 17.6826C42.9702 16.5378 42.171 15.0364 42.171 13.1787C42.171 11.375 42.9108 9.91147 44.3905 8.78819C45.881 7.65411 47.782 7.08707 50.0933 7.08707C51.6594 7.08707 53.0581 7.38949 54.2894 7.99434C55.5315 8.59918 56.4928 9.44164 57.1732 10.5217C57.8537 11.6018 58.1939 12.8061 58.1939 14.1346H56.185C56.185 12.5253 55.6341 11.2346 54.5325 10.2625C53.4308 9.27963 51.9511 8.78819 50.0933 8.78819C48.2896 8.78819 46.8531 9.19322 45.7838 10.0033C44.7145 10.8025 44.1799 11.8502 44.1799 13.1463C44.1799 14.3452 44.6605 15.3227 45.6218 16.0787C46.5831 16.8348 48.1222 17.5044 50.2391 18.0877C52.3561 18.6601 53.96 19.2596 55.0509 19.886C56.1418 20.5016 56.9626 21.2415 57.5135 22.1056C58.0643 22.9696 58.3397 23.9903 58.3397 25.1676C58.3397 27.0253 57.5945 28.5158 56.104 29.6391C54.6243 30.7624 52.6693 31.324 50.2391 31.324C48.5758 31.324 47.0475 31.027 45.6542 30.433C44.2717 29.8389 43.2186 29.0073 42.495 27.938C41.7821 26.8687 41.4257 25.6428 41.4257 24.2603H43.4184C43.4184 25.9236 44.0395 27.2359 45.2816 28.1972C46.5237 29.1585 48.1762 29.6391 50.2391 29.6391C52.0753 29.6391 53.5496 29.2341 54.6621 28.424C55.7745 27.614 56.3308 26.5393 56.3308 25.2ZM65.0794 31H63.0867V7.41109H65.0794V31ZM80.3085 21.1821H73.4554V31H71.4465V7.41109H79.1096C81.6262 7.41109 83.592 8.02134 85.0069 9.24183C86.4218 10.4623 87.1292 12.1688 87.1292 14.3614C87.1292 15.8735 86.6864 17.2074 85.8007 18.3631C84.915 19.5188 83.727 20.318 82.2365 20.7609L88.1337 30.7894V31H86.0113L80.3085 21.1821ZM73.4554 19.481H79.5633C81.2374 19.481 82.5821 19.0057 83.5974 18.0553C84.6126 17.1048 85.1203 15.8735 85.1203 14.3614C85.1203 12.6981 84.591 11.4074 83.5325 10.4893C82.4741 9.57125 80.989 9.11222 79.0772 9.11222H73.4554V19.481ZM97.8706 19.2866L94.5493 22.5592V31H92.5566V7.41109H94.5493V20.129L106.635 7.41109H109.147L99.2639 17.9095L109.908 31H107.478L97.8706 19.2866ZM129.738 7.41109V23.5151C129.727 25.1028 129.376 26.4853 128.685 27.6626C127.994 28.8398 127.016 29.7471 125.753 30.3844C124.5 31.0108 123.058 31.324 121.427 31.324C118.943 31.324 116.95 30.649 115.449 29.2989C113.958 27.938 113.186 26.0586 113.132 23.6609V7.41109H115.109V23.3692C115.109 25.3566 115.676 26.9011 116.81 28.0028C117.944 29.0937 119.483 29.6391 121.427 29.6391C123.371 29.6391 124.905 29.0883 126.028 27.9866C127.162 26.8849 127.729 25.3512 127.729 23.3854V7.41109H129.738ZM148.645 25.2C148.645 23.8931 148.186 22.8616 147.268 22.1056C146.35 21.3387 144.67 20.615 142.229 19.9346C139.788 19.2433 138.006 18.4927 136.883 17.6826C135.284 16.5378 134.485 15.0364 134.485 13.1787C134.485 11.375 135.225 9.91147 136.705 8.78819C138.195 7.65411 140.096 7.08707 142.408 7.08707C143.974 7.08707 145.372 7.38949 146.604 7.99434C147.846 8.59918 148.807 9.44164 149.488 10.5217C150.168 11.6018 150.508 12.8061 150.508 14.1346H148.499C148.499 12.5253 147.948 11.2346 146.847 10.2625C145.745 9.27963 144.265 8.78819 142.408 8.78819C140.604 8.78819 139.167 9.19322 138.098 10.0033C137.029 10.8025 136.494 11.8502 136.494 13.1463C136.494 14.3452 136.975 15.3227 137.936 16.0787C138.897 16.8348 140.436 17.5044 142.553 18.0877C144.67 18.6601 146.274 19.2596 147.365 19.886C148.456 20.5016 149.277 21.2415 149.828 22.1056C150.379 22.9696 150.654 23.9903 150.654 25.1676C150.654 27.0253 149.909 28.5158 148.418 29.6391C146.939 30.7624 144.984 31.324 142.553 31.324C140.89 31.324 139.362 31.027 137.968 30.433C136.586 29.8389 135.533 29.0073 134.809 27.938C134.096 26.8687 133.74 25.6428 133.74 24.2603H135.733C135.733 25.9236 136.354 27.2359 137.596 28.1972C138.838 29.1585 140.49 29.6391 142.553 29.6391C144.39 29.6391 145.864 29.2341 146.976 28.424C148.089 27.614 148.645 26.5393 148.645 25.2ZM165.672 7.41109L174.373 28.2296L183.105 7.41109H185.762V31H183.769V20.7285L183.931 10.1977L175.15 31H173.611L164.862 10.2787L165.024 20.6637V31H163.032V7.41109H165.672ZM204.766 19.6916H193.733V29.3151H206.418V31H191.74V7.41109H206.337V9.11222H193.733V18.0067H204.766V19.6916ZM210.631 31V7.41109H217.225C219.158 7.41109 220.891 7.85393 222.425 8.73959C223.959 9.61445 225.152 10.8727 226.006 12.5145C226.87 14.1562 227.302 16.0247 227.302 18.1201V20.291C227.302 22.3972 226.875 24.2657 226.022 25.8966C225.169 27.5275 223.964 28.7858 222.409 29.6715C220.864 30.5572 219.088 31 217.079 31H210.631ZM212.623 9.11222V29.3151H217.095C219.579 29.3151 221.572 28.4942 223.073 26.8525C224.575 25.2 225.325 22.9696 225.325 20.1614V18.0877C225.325 15.3767 224.585 13.2057 223.106 11.5748C221.626 9.94388 219.676 9.12302 217.257 9.11222H212.623ZM234.803 31H232.81V7.41109H234.803V31ZM254.244 24.3899H243.535L241.105 31H239.015L247.942 7.41109H249.838L258.764 31H256.691L254.244 24.3899ZM244.151 22.6888H253.612L248.882 9.84127L244.151 22.6888Z" fill="#CBE4F5"/>
<g clip-path="url(#clip0)">
<path d="M3.00046 31C1.34554 31 0 29.6547 0 28V10C0 8.34533 1.34554 7 3.00046 7H29.0044C30.6594 7 32.0049 8.34533 32.0049 10V28C32.0049 29.6547 30.6594 31 29.0044 31H3.00046ZM3.00046 9C2.44837 9 2.00031 9.448 2.00031 10V28C2.00031 28.552 2.44837 29 3.00046 29H29.0044C29.5565 29 30.0046 28.552 30.0046 28V10C30.0046 9.448 29.5565 9 29.0044 9H3.00046Z" fill="#F8F9FA"/>
<path d="M13.0027 24C12.9534 24 12.904 23.996 12.8547 23.9893C12.548 23.9453 12.2719 23.7533 12.1226 23.4773L9.15678 18.016L5.85761 23.5147C5.67758 23.8133 5.34953 24 5.00014 24C4.81878 24 4.64009 23.9507 4.4854 23.8573C4.25736 23.72 4.09467 23.5013 4.03066 23.2427C3.96665 22.984 4.00532 22.7147 4.14268 22.4853L8.34332 15.4853C8.52335 15.1853 8.84473 14.9987 9.18345 14.9987C9.19412 14.9987 9.23279 15 9.24346 15C9.57951 15.0067 9.90889 15.2067 10.0796 15.5213L13.2414 21.344L16.2952 18.2907C16.4846 18.1013 16.7353 17.9973 17.002 17.9973C17.2687 17.9973 17.5207 18.1013 17.7088 18.2907L20.8466 21.428L26.1714 13.4427C26.3581 13.1667 26.6688 13 27.0035 13C27.2009 13 27.3929 13.0587 27.5583 13.168C27.781 13.316 27.933 13.5427 27.985 13.804C28.037 14.0653 27.985 14.332 27.8356 14.5547L21.8347 23.5547C21.668 23.804 21.4013 23.9653 21.1013 23.9947C21.0693 23.9987 21.0346 24 21.0013 24C20.7385 24 20.4812 23.8933 20.2945 23.7067L17.002 20.4147L13.7081 23.708C13.5188 23.896 13.2681 24 13.0027 24Z" fill="#F8F9FA"/>
</g>
<defs>
<clipPath id="clip0">
<rect width="32.0049" height="32" fill="white" transform="translate(0 3)"/>
</clipPath>
</defs>
</svg>
