<svg width="266" height="32" viewBox="0 0 266 32" fill="none" 
	xmlns="http://www.w3.org/2000/svg">
	<path d="M58.0956 27.8896C56.37 27.8896 54.8656 27.6131 53.5825 27.0601C52.3214 26.485 51.348 25.744 50.6622 24.837C49.9985 23.9301 49.6445 22.9568 49.6002 21.9172C49.6002 21.7402 49.6666 21.5854 49.7994 21.4527C49.9321 21.32 50.098 21.2536 50.2971 21.2536H50.9608C51.3591 21.2536 51.6024 21.4748 51.6909 21.9172C51.8458 22.979 52.4542 23.908 53.5161 24.7043C54.578 25.5006 56.1045 25.8988 58.0956 25.8988C60.1973 25.8988 61.757 25.5228 62.7747 24.7707C63.8145 23.9965 64.3344 22.9237 64.3344 21.5522C64.3344 20.7117 64.08 20.0259 63.5712 19.4951C63.0844 18.9421 62.3654 18.4665 61.4141 18.0683C60.4628 17.648 59.0248 17.1282 57.1001 16.5089C55.3966 15.9559 54.0581 15.4139 53.0847 14.883C52.1334 14.3522 51.4254 13.6996 50.9608 12.9254C50.4962 12.1512 50.2639 11.1669 50.2639 9.9724C50.2639 8.84428 50.5626 7.82676 51.1599 6.91984C51.7794 6.01292 52.6643 5.30508 53.8147 4.79632C54.9652 4.26544 56.3368 4 57.9297 4C59.5668 4 60.9717 4.29862 62.1442 4.89586C63.3167 5.47098 64.2017 6.212 64.799 7.11892C65.3963 8.00372 65.7171 8.89958 65.7614 9.8065C65.7614 9.98346 65.695 10.1383 65.5623 10.271C65.4516 10.4037 65.2857 10.4701 65.0645 10.4701H64.4008C64.2459 10.4701 64.0911 10.4259 63.9362 10.3374C63.7813 10.2268 63.6928 10.0498 63.6707 9.8065C63.538 8.7005 62.9406 7.79358 61.8787 7.08574C60.8389 6.35578 59.5226 5.9908 57.9297 5.9908C56.2262 5.9908 54.8656 6.3226 53.8479 6.9862C52.8524 7.6498 52.3546 8.6452 52.3546 9.9724C52.3546 10.8351 52.5758 11.554 53.0183 12.1291C53.4829 12.6821 54.1687 13.1687 55.0758 13.589C55.9828 13.9872 57.3213 14.4738 59.0912 15.0489C60.9053 15.6241 62.3212 16.1771 63.3389 16.7079C64.3565 17.2388 65.1198 17.8803 65.6286 18.6324C66.1596 19.3845 66.4251 20.3577 66.4251 21.5522C66.4251 23.543 65.6839 25.1025 64.2017 26.2306C62.7194 27.3366 60.6841 27.8896 58.0956 27.8896Z" fill="#CBE4F5"/>
	<path d="M71.9494 27.5578C71.7281 27.5578 71.5511 27.4914 71.4184 27.3587C71.2857 27.226 71.2193 27.049 71.2193 26.8278V5.06176C71.2193 4.84056 71.2857 4.6636 71.4184 4.53088C71.5511 4.39816 71.7281 4.3318 71.9494 4.3318H72.5799C72.8011 4.3318 72.9781 4.39816 73.1108 4.53088C73.2436 4.6636 73.3099 4.84056 73.3099 5.06176V26.8278C73.3099 27.049 73.2436 27.226 73.1108 27.3587C72.9781 27.4914 72.8011 27.5578 72.5799 27.5578H71.9494Z" fill="#CBE4F5"/>
	<path d="M80.278 27.5578C80.0568 27.5578 79.8798 27.4914 79.7471 27.3587C79.6143 27.226 79.548 27.049 79.548 26.8278V5.09494C79.548 4.87374 79.6143 4.69678 79.7471 4.56406C79.8798 4.40922 80.0568 4.3318 80.278 4.3318H88.0102C90.3995 4.3318 92.2689 4.89586 93.6184 6.02398C94.968 7.1521 95.6427 8.82216 95.6427 11.0342C95.6427 12.7816 95.2113 14.1973 94.3485 15.2812C93.4857 16.343 92.2468 17.0619 90.6318 17.4379L95.9746 26.5292C96.0409 26.6619 96.0741 26.7836 96.0741 26.8942C96.0741 27.0712 96.0078 27.226 95.875 27.3587C95.7423 27.4914 95.5874 27.5578 95.4104 27.5578H95.0122C94.6804 27.5578 94.4259 27.4914 94.249 27.3587C94.0941 27.2039 93.9282 26.9716 93.7512 26.6619L88.4748 17.7365H81.6386V26.8278C81.6386 27.049 81.5612 27.226 81.4063 27.3587C81.2736 27.4914 81.0966 27.5578 80.8754 27.5578H80.278ZM87.8442 15.7457C89.769 15.7457 91.1959 15.3586 92.1251 14.5844C93.0764 13.7881 93.5521 12.6047 93.5521 11.0342C93.5521 9.46364 93.0764 8.29128 92.1251 7.51708C91.1959 6.72076 89.769 6.3226 87.8442 6.3226H81.6386V15.7457H87.8442Z" fill="#CBE4F5"/>
	<path d="M101.505 27.5578C101.284 27.5578 101.107 27.4914 100.974 27.3587C100.841 27.226 100.775 27.049 100.775 26.8278V5.09494C100.775 4.87374 100.841 4.69678 100.974 4.56406C101.107 4.40922 101.284 4.3318 101.505 4.3318H102.102C102.346 4.3318 102.534 4.39816 102.666 4.53088C102.799 4.6636 102.865 4.85162 102.865 5.09494V13.7217L112.92 4.8295C113.097 4.69678 113.274 4.58618 113.451 4.4977C113.651 4.3871 113.894 4.3318 114.182 4.3318H114.712C114.889 4.3318 115.044 4.39816 115.177 4.53088C115.31 4.6636 115.376 4.81844 115.376 4.9954C115.376 5.17236 115.321 5.31614 115.21 5.42674L103.961 15.4471L115.907 26.4297C116.04 26.5624 116.106 26.7172 116.106 26.8942C116.106 27.0712 116.04 27.226 115.907 27.3587C115.774 27.4914 115.62 27.5578 115.443 27.5578H114.878C114.591 27.5578 114.347 27.5136 114.148 27.4251C113.971 27.3145 113.794 27.1928 113.617 27.0601L102.865 17.2388V26.8278C102.865 27.049 102.788 27.226 102.633 27.3587C102.5 27.4914 102.323 27.5578 102.102 27.5578H101.505Z" fill="#CBE4F5"/>
	<path d="M128.225 27.8896C125.46 27.8896 123.336 27.1265 121.854 25.6002C120.394 24.0518 119.664 21.7071 119.664 18.566V5.09494C119.664 4.87374 119.73 4.69678 119.863 4.56406C119.995 4.40922 120.172 4.3318 120.394 4.3318H120.991C121.234 4.3318 121.422 4.39816 121.555 4.53088C121.688 4.6636 121.754 4.85162 121.754 5.09494V18.6656C121.754 21.0988 122.318 22.9126 123.447 24.1071C124.575 25.3016 126.168 25.8988 128.225 25.8988C130.261 25.8988 131.842 25.3016 132.971 24.1071C134.099 22.9126 134.663 21.0988 134.663 18.6656V5.09494C134.663 4.85162 134.73 4.6636 134.862 4.53088C135.017 4.39816 135.205 4.3318 135.426 4.3318H136.024C136.245 4.3318 136.422 4.40922 136.555 4.56406C136.687 4.69678 136.754 4.87374 136.754 5.09494V18.566C136.754 21.7292 136.024 24.0739 134.564 25.6002C133.103 27.1265 130.991 27.8896 128.225 27.8896Z" fill="#CBE4F5"/>
	<path d="M149.776 27.8896C148.05 27.8896 146.546 27.6131 145.263 27.0601C144.002 26.485 143.028 25.744 142.342 24.837C141.679 23.9301 141.325 22.9568 141.281 21.9172C141.281 21.7402 141.347 21.5854 141.48 21.4527C141.612 21.32 141.778 21.2536 141.977 21.2536H142.641C143.039 21.2536 143.283 21.4748 143.371 21.9172C143.526 22.979 144.134 23.908 145.196 24.7043C146.258 25.5006 147.785 25.8988 149.776 25.8988C151.878 25.8988 153.437 25.5228 154.455 24.7707C155.495 23.9965 156.015 22.9237 156.015 21.5522C156.015 20.7117 155.76 20.0259 155.251 19.4951C154.765 18.9421 154.046 18.4665 153.094 18.0683C152.143 17.648 150.705 17.1282 148.78 16.5089C147.077 15.9559 145.738 15.4139 144.765 14.883C143.814 14.3522 143.106 13.6996 142.641 12.9254C142.176 12.1512 141.944 11.1669 141.944 9.9724C141.944 8.84428 142.243 7.82676 142.84 6.91984C143.46 6.01292 144.345 5.30508 145.495 4.79632C146.645 4.26544 148.017 4 149.61 4C151.247 4 152.652 4.29862 153.824 4.89586C154.997 5.47098 155.882 6.212 156.479 7.11892C157.077 8.00372 157.397 8.89958 157.442 9.8065C157.442 9.98346 157.375 10.1383 157.243 10.271C157.132 10.4037 156.966 10.4701 156.745 10.4701H156.081C155.926 10.4701 155.771 10.4259 155.616 10.3374C155.462 10.2268 155.373 10.0498 155.351 9.8065C155.218 8.7005 154.621 7.79358 153.559 7.08574C152.519 6.35578 151.203 5.9908 149.61 5.9908C147.906 5.9908 146.546 6.3226 145.528 6.9862C144.533 7.6498 144.035 8.6452 144.035 9.9724C144.035 10.8351 144.256 11.554 144.699 12.1291C145.163 12.6821 145.849 13.1687 146.756 13.589C147.663 13.9872 149.002 14.4738 150.771 15.0489C152.586 15.6241 154.001 16.1771 155.019 16.7079C156.037 17.2388 156.8 17.8803 157.309 18.6324C157.84 19.3845 158.105 20.3577 158.105 21.5522C158.105 23.543 157.364 25.1025 155.882 26.2306C154.4 27.3366 152.364 27.8896 149.776 27.8896Z" fill="#CBE4F5"/>
	<path d="M172.79 27.226C172.568 27.226 172.38 27.1596 172.225 27.0269C172.093 26.8942 172.026 26.7172 172.026 26.496V4.76314C172.026 4.51982 172.093 4.3318 172.225 4.19908C172.38 4.06636 172.568 4 172.79 4H173.619C173.951 4 174.183 4.14378 174.316 4.43134L181.849 19.0969L189.415 4.43134C189.57 4.14378 189.802 4 190.112 4H190.909C191.152 4 191.34 4.06636 191.473 4.19908C191.606 4.3318 191.672 4.51982 191.672 4.76314V26.496C191.672 26.7172 191.594 26.8942 191.44 27.0269C191.307 27.1596 191.13 27.226 190.909 27.226H190.311C190.09 27.226 189.913 27.1596 189.78 27.0269C189.648 26.8942 189.581 26.7172 189.581 26.496V8.51248L183.243 20.9882C183.044 21.4306 182.701 21.6518 182.214 21.6518H181.484C180.997 21.6518 180.654 21.4306 180.455 20.9882L174.117 8.51248V26.496C174.117 26.7172 174.051 26.8942 173.918 27.0269C173.785 27.1596 173.608 27.226 173.387 27.226H172.79Z" fill="#F8F9FA"/>
	<path d="M198.65 27.226C198.429 27.226 198.252 27.1596 198.119 27.0269C197.986 26.8942 197.92 26.7172 197.92 26.496V4.76314C197.92 4.54194 197.986 4.36498 198.119 4.23226C198.252 4.07742 198.429 4 198.65 4H211.592C211.835 4 212.023 4.06636 212.156 4.19908C212.289 4.3318 212.355 4.51982 212.355 4.76314V5.26084C212.355 5.48204 212.278 5.659 212.123 5.79172C211.99 5.92444 211.813 5.9908 211.592 5.9908H200.01V14.4517H210.862C211.105 14.4517 211.293 14.5181 211.426 14.6508C211.559 14.7835 211.625 14.9715 211.625 15.2148V15.7125C211.625 15.9337 211.548 16.1107 211.393 16.2434C211.26 16.3761 211.083 16.4425 210.862 16.4425H200.01V25.2352H211.857C212.101 25.2352 212.289 25.3016 212.422 25.4343C212.554 25.567 212.621 25.755 212.621 25.9983V26.496C212.621 26.7172 212.543 26.8942 212.388 27.0269C212.256 27.1596 212.079 27.226 211.857 27.226H198.65Z" fill="#F8F9FA"/>
	<path d="M218.289 27.226C218.067 27.226 217.89 27.1596 217.758 27.0269C217.625 26.8942 217.559 26.7172 217.559 26.496V4.76314C217.559 4.54194 217.625 4.36498 217.758 4.23226C217.89 4.07742 218.067 4 218.289 4H225.357C227.658 4 229.472 4.34286 230.799 5.02858C232.149 5.69218 233.1 6.67652 233.653 7.9816C234.229 9.28668 234.538 10.9457 234.583 12.9586C234.605 13.6222 234.616 14.4959 234.616 15.5798C234.616 16.6858 234.605 17.5706 234.583 18.2342C234.538 20.3577 234.229 22.072 233.653 23.3771C233.1 24.6601 232.171 25.6223 230.866 26.2638C229.561 26.9053 227.78 27.226 225.523 27.226H218.289ZM225.357 25.2352C227.127 25.2352 228.521 25.0029 229.538 24.5384C230.556 24.0518 231.286 23.2997 231.729 22.2822C232.193 21.2425 232.448 19.8379 232.492 18.0683C232.514 17.4047 232.525 16.5752 232.525 15.5798C232.525 14.6065 232.514 13.7881 232.492 13.1245C232.448 10.6471 231.861 8.84428 230.733 7.71616C229.627 6.56592 227.78 5.9908 225.191 5.9908H219.649V25.2352H225.357Z" fill="#F8F9FA"/>
	<path d="M240.747 27.226C240.526 27.226 240.349 27.1596 240.216 27.0269C240.083 26.8942 240.017 26.7172 240.017 26.496V4.72996C240.017 4.50876 240.083 4.3318 240.216 4.19908C240.349 4.06636 240.526 4 240.747 4H241.377C241.599 4 241.776 4.06636 241.908 4.19908C242.041 4.3318 242.108 4.50876 242.108 4.72996V26.496C242.108 26.7172 242.041 26.8942 241.908 27.0269C241.776 27.1596 241.599 27.226 241.377 27.226H240.747Z" fill="#F8F9FA"/>
	<path d="M246.686 27.226C246.509 27.226 246.354 27.1596 246.222 27.0269C246.089 26.8942 246.023 26.7394 246.023 26.5624L246.089 26.1974L254.485 4.6636C254.662 4.2212 254.983 4 255.447 4H256.575C257.04 4 257.361 4.2212 257.538 4.6636L265.934 26.1974L266 26.5624C266 26.7394 265.934 26.8942 265.801 27.0269C265.668 27.1596 265.513 27.226 265.336 27.226H264.673C264.473 27.226 264.308 27.1707 264.175 27.0601C264.064 26.9495 263.987 26.8389 263.943 26.7283L261.885 21.4195H250.138L248.08 26.7283C248.036 26.8389 247.947 26.9495 247.815 27.0601C247.704 27.1707 247.549 27.226 247.35 27.226H246.686ZM261.089 19.4287L256.011 6.35578L250.934 19.4287H261.089Z" fill="#F8F9FA"/>
	<g clip-path="url(#clip0)">
		<path d="M3.00046 28C1.34554 28 0 26.6547 0 25V7C0 5.34533 1.34554 4 3.00046 4H29.0044C30.6594 4 32.0049 5.34533 32.0049 7V25C32.0049 26.6547 30.6594 28 29.0044 28H3.00046ZM3.00046 6C2.44837 6 2.00031 6.448 2.00031 7V25C2.00031 25.552 2.44837 26 3.00046 26H29.0044C29.5565 26 30.0046 25.552 30.0046 25V7C30.0046 6.448 29.5565 6 29.0044 6H3.00046Z" fill="url(#paint0_linear)"/>
		<path d="M13.0027 21C12.9534 21 12.904 20.996 12.8547 20.9893C12.548 20.9453 12.2719 20.7533 12.1226 20.4773L9.15679 15.016L5.85762 20.5147C5.67759 20.8133 5.34954 21 5.00016 21C4.8188 21 4.6401 20.9507 4.48541 20.8573C4.25738 20.72 4.09468 20.5013 4.03067 20.2427C3.96666 19.984 4.00534 19.7147 4.14269 19.4853L8.34333 12.4853C8.52336 12.1853 8.84474 11.9987 9.18346 11.9987C9.19413 11.9987 9.2328 12 9.24347 12C9.57952 12.0067 9.90891 12.2067 10.0796 12.5213L13.2414 18.344L16.2952 15.2907C16.4846 15.1013 16.7353 14.9973 17.002 14.9973C17.2687 14.9973 17.5207 15.1013 17.7088 15.2907L20.8466 18.428L26.1714 10.4427C26.3581 10.1667 26.6688 10 27.0035 10C27.2009 10 27.3929 10.0587 27.5583 10.168C27.781 10.316 27.933 10.5427 27.985 10.804C28.037 11.0653 27.985 11.332 27.8356 11.5547L21.8347 20.5547C21.668 20.804 21.4013 20.9653 21.1013 20.9947C21.0693 20.9987 21.0346 21 21.0013 21C20.7386 21 20.4812 20.8933 20.2945 20.7067L17.002 17.4147L13.7082 20.708C13.5188 20.896 13.2681 21 13.0027 21Z" fill="url(#paint1_linear)"/>
	</g>
	<defs>
		<linearGradient id="paint0_linear" x1="0" y1="4" x2="32.0014" y2="28.0047" gradientUnits="userSpaceOnUse">
			<stop stop-color="#2BD9CB"/>
			<stop offset="1" stop-color="#2B91D9"/>
		</linearGradient>
		<linearGradient id="paint1_linear" x1="0.499478" y1="4" x2="31.5007" y2="28.0046" gradientUnits="userSpaceOnUse">
			<stop stop-color="#2BD9CB"/>
			<stop offset="1" stop-color="#2B91D9"/>
		</linearGradient>
		<clipPath id="clip0">
			<rect width="32.0049" height="32" fill="white"/>
		</clipPath>
	</defs>
</svg>
