<svg width="512" height="512" viewBox="0 0 512 512" fill="none" xmlns="http://www.w3.org/2000/svg">
<path d="M100 400C80.144 400 64 383.856 64 364V148C64 128.144 80.144 112 100 112H412C431.856 112 448 128.144 448 148V364C448 383.856 431.856 400 412 400H100ZM100 136C93.376 136 88 141.376 88 148V364C88 370.624 93.376 376 100 376H412C418.624 376 424 370.624 424 364V148C424 141.376 418.624 136 412 136H100Z" fill="url(#paint0_linear)"/>
<path d="M100 400C80.144 400 64 383.856 64 364V148C64 128.144 80.144 112 100 112H412C431.856 112 448 128.144 448 148V364C448 383.856 431.856 400 412 400H100ZM100 136C93.376 136 88 141.376 88 148V364C88 370.624 93.376 376 100 376H412C418.624 376 424 370.624 424 364V148C424 141.376 418.624 136 412 136H100Z" fill="white"/>
<path d="M220.009 316C219.417 316 218.825 315.952 218.233 315.872C214.553 315.344 211.241 313.04 209.449 309.728L175.536 247.27C174.797 245.909 172.859 245.868 172.063 247.195L134.281 310.176C132.121 313.76 128.185 316 123.993 316C121.817 316 119.673 315.408 117.817 314.288C115.081 312.64 113.129 310.016 112.361 306.912C111.593 303.808 112.057 300.576 113.705 297.824L164.105 213.824C166.265 210.224 170.121 207.984 174.185 207.984C174.313 207.984 174.777 208 174.905 208C178.937 208.08 182.889 210.48 184.937 214.256L221.595 281.774C222.232 282.949 223.821 283.179 224.766 282.234L259.513 247.488C261.785 245.216 264.793 243.968 267.993 243.968C271.193 243.968 274.217 245.216 276.473 247.488L312.396 283.411C313.288 284.303 314.774 284.156 315.474 283.106L378.009 189.312C380.249 186 383.977 184 387.993 184C390.361 184 392.665 184.704 394.649 186.016C397.321 187.792 399.145 190.512 399.769 193.648C400.393 196.784 399.769 199.984 397.977 202.656L325.977 310.656C323.977 313.648 320.777 315.584 317.177 315.936C316.793 315.984 316.377 316 315.977 316C312.825 316 309.737 314.72 307.497 312.48L269.407 274.39C268.626 273.609 267.359 273.609 266.578 274.39L228.473 312.496C226.201 314.752 223.193 316 220.009 316Z" fill="url(#paint1_linear)"/>
<path d="M220.009 316C219.417 316 218.825 315.952 218.233 315.872C214.553 315.344 211.241 313.04 209.449 309.728L175.536 247.27C174.797 245.909 172.859 245.868 172.063 247.195L134.281 310.176C132.121 313.76 128.185 316 123.993 316C121.817 316 119.673 315.408 117.817 314.288C115.081 312.64 113.129 310.016 112.361 306.912C111.593 303.808 112.057 300.576 113.705 297.824L164.105 213.824C166.265 210.224 170.121 207.984 174.185 207.984C174.313 207.984 174.777 208 174.905 208C178.937 208.08 182.889 210.48 184.937 214.256L221.595 281.774C222.232 282.949 223.821 283.179 224.766 282.234L259.513 247.488C261.785 245.216 264.793 243.968 267.993 243.968C271.193 243.968 274.217 245.216 276.473 247.488L312.396 283.411C313.288 284.303 314.774 284.156 315.474 283.106L378.009 189.312C380.249 186 383.977 184 387.993 184C390.361 184 392.665 184.704 394.649 186.016C397.321 187.792 399.145 190.512 399.769 193.648C400.393 196.784 399.769 199.984 397.977 202.656L325.977 310.656C323.977 313.648 320.777 315.584 317.177 315.936C316.793 315.984 316.377 316 315.977 316C312.825 316 309.737 314.72 307.497 312.48L269.407 274.39C268.626 273.609 267.359 273.609 266.578 274.39L228.473 312.496C226.201 314.752 223.193 316 220.009 316Z" fill="white"/>
<defs>
<linearGradient id="paint0_linear" x1="64" y1="112" x2="448" y2="400" gradientUnits="userSpaceOnUse">
<stop stop-color="#2BD9CB"/>
<stop offset="1" stop-color="#2B91D9"/>
</linearGradient>
<linearGradient id="paint1_linear" x1="69.9927" y1="112" x2="441.993" y2="400" gradientUnits="userSpaceOnUse">
<stop stop-color="#2BD9CB"/>
<stop offset="1" stop-color="#2B91D9"/>
</linearGradient>
</defs>
</svg>
