<?xml version="1.0" standalone="no"?>
<!DOCTYPE svg PUBLIC "-//W3C//DTD SVG 20010904//EN"
 "http://www.w3.org/TR/2001/REC-SVG-20010904/DTD/svg10.dtd">
<svg version="1.0" xmlns="http://www.w3.org/2000/svg"
 width="512.000000pt" height="512.000000pt" viewBox="0 0 512.000000 512.000000"
 preserveAspectRatio="xMidYMid meet">
<metadata>
Created by potrace 1.11, written by Peter Selinger 2001-2013
</metadata>
<g transform="translate(0.000000,512.000000) scale(0.100000,-0.100000)"
fill="#000000" stroke="none">
<path d="M881 3979 c-100 -35 -181 -116 -220 -219 -20 -54 -21 -66 -21 -1195
0 -1037 2 -1146 17 -1191 39 -117 120 -198 237 -237 46 -16 181 -17 1686 -15
1228 2 1640 6 1651 15 8 6 19 12 24 13 57 9 144 90 189 175 l31 60 3 1156 c2
1056 1 1159 -15 1205 -39 117 -120 198 -237 237 -45 15 -186 17 -1670 16
-1568 -1 -1623 -1 -1675 -20z m3294 -235 c69 -33 66 40 63 -1198 l-3 -1116
-33 -32 -32 -33 -1596 -3 c-1440 -2 -1599 -1 -1629 14 -69 33 -66 -40 -63
1197 l3 1115 25 27 c14 15 34 31 45 35 11 5 733 9 1603 9 1423 1 1587 -1 1617
-15z"/>
<path d="M3821 3266 c-12 -5 -163 -221 -347 -498 -180 -268 -330 -488 -335
-488 -4 0 -95 87 -202 194 -142 141 -203 196 -226 201 -67 14 -86 1 -283 -196
-104 -104 -193 -189 -197 -189 -4 0 -37 53 -72 118 -35 64 -69 126 -76 137 -6
11 -23 43 -37 70 -14 28 -38 73 -53 100 -16 28 -57 104 -93 169 -70 128 -98
156 -158 156 -19 0 -47 -9 -62 -20 -23 -17 -209 -313 -359 -572 -9 -16 -56
-94 -104 -174 -49 -81 -91 -161 -94 -179 -11 -67 49 -135 119 -135 56 0 85 31
183 194 52 87 95 163 95 167 0 5 4 9 9 9 5 0 11 8 15 18 3 9 15 33 27 52 12
19 50 83 86 142 36 60 68 110 72 112 14 9 30 -11 76 -99 27 -49 56 -103 65
-120 9 -16 47 -86 85 -155 112 -206 127 -234 143 -262 31 -53 123 -73 170 -37
9 8 103 101 209 207 106 105 197 192 203 192 5 0 102 -92 214 -204 163 -163
212 -206 238 -211 38 -6 68 -2 95 15 14 9 443 639 488 718 6 9 12 19 15 22 30
30 263 400 267 425 15 91 -86 161 -176 121z"/>
</g>
</svg>
